
<svg width="12" height="12" viewBox="0 0 12 12" fill="none" xmlns="http://www.w3.org/2000/svg">
<path fill-rule="evenodd" clip-rule="evenodd" d="M4.64645 0.646447C4.84171 0.451184 5.15829 0.451184 5.35355 0.646447L10.3536 5.64645C10.5488 5.84171 10.5488 6.15829 10.3536 6.35355L5.35355 11.3536C5.15829 11.5488 4.84171 11.5488 4.64645 11.3536C4.45118 11.1583 4.45118 10.8417 4.64645 10.6464L9.29289 6L4.64645 1.35355C4.45118 1.15829 4.45118 0.841709 4.64645 0.646447ZM2.64645 4.64645C2.84171 4.45118 3.15829 4.45118 3.35355 4.64645L4.35355 5.64645C4.44732 5.74021 4.5 5.86739 4.5 6C4.5 6.13261 4.44732 6.25979 4.35355 6.35355L3.35355 7.35355C3.25979 7.44732 3.13261 7.5 3 7.5C2.86739 7.5 2.74021 7.44732 2.64645 7.35355L1.64645 6.35355C1.45118 6.15829 1.45118 5.84171 1.64645 5.64645L2.64645 4.64645Z" fill="white"/>
</svg>
