<svg width="12" height="14" viewBox="0 0 12 14" fill="none" xmlns="http://www.w3.org/2000/svg">
<path fill-rule="evenodd" clip-rule="evenodd" d="M3.14645 2.64645C3.34171 2.45118 3.65829 2.45118 3.85355 2.64645L6 4.79289L8.14645 2.64645C8.34171 2.45118 8.65829 2.45118 8.85355 2.64645L11.8536 5.64645C12.0428 5.83574 12.0495 6.14053 11.8686 6.33786L6.36858 12.3379C6.27387 12.4412 6.14015 12.5 6 12.5C5.85985 12.5 5.72613 12.4412 5.63142 12.3379L0.131424 6.33786C-0.049465 6.14053 -0.0428422 5.83574 0.146447 5.64645L3.14645 2.64645ZM1.19207 6.01504L6 11.2601L10.8079 6.01504L8.5 3.70711L6.35355 5.85355C6.15829 6.04882 5.84171 6.04882 5.64645 5.85355L3.5 3.70711L1.19207 6.01504Z" fill="#9B1616"/>
</svg>
