<?xml version="1.0" encoding="utf-8"?>
<svg xmlns="http://www.w3.org/2000/svg" viewBox="0 0 33 33" width="35px" height="35px">
  <defs>
    <style>
      .st0 {
        fill-rule: evenodd;
      }

      .st0 {
        fill: #9B1616;
      }
    </style>
  </defs>
  <g id="Logo" transform="matrix(1, 0, 0, 1, 0, -5)">
    <g id="Logo_History">
      <g id="Glyph">
        <path id="Union" class="st0" d="M16.1,15.4l4.4-4.4-4.4-4.4-4.4,4.4,4.4,4.4ZM10.3,10.3c-.4.4-.4,1,0,1.4l5.1,5.1c.4.4,1,.4,1.4,0l5.1-5.1c.4-.4.4-1,0-1.4l-5.1-5.1c-.4-.4-1-.4-1.4,0,0,0-5.1,5.1-5.1,5.1ZM16.1,35.4l4.4-4.4-4.4-4.4-4.4,4.4,4.4,4.4ZM10.3,30.3c-.4.4-.4,1,0,1.4l5.1,5.1c.4.4,1,.4,1.4,0l5.1-5.1c.4-.4.4-1,0-1.4l-5.1-5.1c-.4-.4-1-.4-1.4,0,0,0-5.1,5.1-5.1,5.1ZM26.1,25.4l-4.4-4.4,4.4-4.4,4.4,4.4-4.4,4.4ZM25.4,15.2c.4-.4,1-.4,1.4,0l5.1,5.1c.4.4.4,1,0,1.4l-5.1,5.1c-.4.4-1,.4-1.4,0l-5.1-5.1c-.4-.4-.4-1,0-1.4,0,0,5.1-5.1,5.1-5.1ZM1.6,21l4.4,4.4,4.4-4.4-4.4-4.4s-4.4,4.4-4.4,4.4ZM6.7,15.2c-.4-.4-1-.4-1.4,0L.3,20.3c-.4.4-.4,1,0,1.4l5.1,5.1c.4.4,1,.4,1.4,0l5.1-5.1c.4-.4.4-1,0-1.4l-5.1-5.1h0ZM15.6,19.5c.3.3.7.3,1,0l8.3-8.3c.3-.3.7-.3,1,0s.3.7,0,1l-8.3,8.3c-.3.3-.3.7,0,1l8.3,8.3c.3.3.3.7,0,1s-.7.3-1,0l-8.3-8.3c-.3-.3-.7-.3-1,0l-8.3,8.3c-.3.3-.7.3-1,0s-.3-.7,0-1l8.3-8.3c.3-.3.3-.7,0-1L6.3,12.2c-.3-.3-.3-.7,0-1s.7-.3,1,0l8.3,8.3ZM17.3,31c0,.6-.5,1.2-1.2,1.2s-1.2-.5-1.2-1.2.5-1.2,1.2-1.2,1.2.5,1.2,1.2ZM26.1,22.2c.6,0,1.2-.5,1.2-1.2s-.5-1.2-1.2-1.2-1.2.5-1.2,1.2.5,1.2,1.2,1.2ZM17.3,11c0,.6-.5,1.2-1.2,1.2s-1.2-.5-1.2-1.2.5-1.2,1.2-1.2,1.2.5,1.2,1.2ZM6.1,22.2c.6,0,1.2-.5,1.2-1.2s-.5-1.2-1.2-1.2-1.2.5-1.2,1.2.5,1.2,1.2,1.2Z"/>
      </g>
    </g>
  </g>
</svg>