<svg width="36" height="36" viewBox="0 0 36 36" fill="none" xmlns="http://www.w3.org/2000/svg">
<path fill-rule="evenodd" clip-rule="evenodd" d="M18.0004 11.8733L22.8303 7.04338L18.0004 2.21346L13.1705 7.04338L18.0004 11.8733ZM11.6948 6.30553C11.2873 6.71304 11.2873 7.37373 11.6948 7.78123L17.2625 13.349C17.67 13.7565 18.3307 13.7565 18.7382 13.349L24.306 7.78124C24.7135 7.37373 24.7135 6.71304 24.306 6.30553L18.7382 0.737757C18.3307 0.330254 17.67 0.330252 17.2625 0.737756L11.6948 6.30553ZM18.0004 33.7864L22.8303 28.9564L18.0004 24.1265L13.1705 28.9564L18.0004 33.7864ZM11.6948 28.2186C11.2873 28.6261 11.2873 29.2868 11.6948 29.6943L17.2625 35.2621C17.67 35.6696 18.3307 35.6696 18.7382 35.2621L24.306 29.6943C24.7135 29.2868 24.7135 28.6261 24.306 28.2186L18.7382 22.6508C18.3307 22.2433 17.67 22.2433 17.2625 22.6508L11.6948 28.2186ZM28.9569 22.8298L24.127 17.9999L28.9569 13.17L33.7868 17.9999L28.9569 22.8298ZM28.2191 11.6943C28.6266 11.2868 29.2873 11.2868 29.6948 11.6943L35.2625 17.2621C35.67 17.6696 35.67 18.3303 35.2625 18.7378L29.6948 24.3055C29.2873 24.713 28.6266 24.713 28.2191 24.3055L22.6513 18.7378C22.2438 18.3302 22.2438 17.6696 22.6513 17.2621L28.2191 11.6943ZM2.21395 17.9999L7.04387 22.8298L11.8738 17.9999L7.04387 13.17L2.21395 17.9999ZM7.78172 11.6943C7.37422 11.2868 6.71353 11.2868 6.30602 11.6943L0.738245 17.2621C0.330742 17.6696 0.330741 18.3302 0.738244 18.7378L6.30602 24.3055C6.71352 24.713 7.37422 24.713 7.78172 24.3055L13.3495 18.7378C13.757 18.3303 13.757 17.6696 13.3495 17.2621L7.78172 11.6943ZM17.447 16.3397C17.7526 16.6454 18.2482 16.6454 18.5538 16.3397L27.5893 7.30425C27.8949 6.99862 28.3904 6.99862 28.696 7.30425C29.0017 7.60988 29.0017 8.1054 28.696 8.41102L19.6606 17.4465C19.3549 17.7521 19.3549 18.2477 19.6606 18.5533L28.6961 27.5888C29.0017 27.8944 29.0017 28.3899 28.696 28.6956C28.3904 29.0012 27.8949 29.0012 27.5893 28.6956L18.5538 19.6601C18.2482 19.3544 17.7526 19.3544 17.447 19.6601L8.41151 28.6955C8.10588 29.0012 7.61036 29.0012 7.30474 28.6955C6.99911 28.3899 6.99911 27.8944 7.30474 27.5888L16.3402 18.5533C16.6459 18.2477 16.6459 17.7521 16.3402 17.4465L7.30475 8.41102C6.99912 8.10539 6.99912 7.60987 7.30475 7.30425C7.61038 6.99862 8.1059 6.99862 8.41152 7.30425L17.447 16.3397ZM19.3047 28.9564C19.3047 29.6768 18.7208 30.2608 18.0004 30.2608C17.28 30.2608 16.696 29.6768 16.696 28.9564C16.696 28.2361 17.28 27.6521 18.0004 27.6521C18.7208 27.6521 19.3047 28.2361 19.3047 28.9564ZM28.9569 19.3043C29.6773 19.3043 30.2613 18.7203 30.2613 17.9999C30.2613 17.2795 29.6773 16.6956 28.9569 16.6956C28.2365 16.6956 27.6526 17.2795 27.6526 17.9999C27.6526 18.7203 28.2365 19.3043 28.9569 19.3043ZM19.3047 7.04338C19.3047 7.76375 18.7208 8.34773 18.0004 8.34773C17.28 8.34773 16.696 7.76375 16.696 7.04338C16.696 6.32301 17.28 5.73904 18.0004 5.73904C18.7208 5.73904 19.3047 6.32301 19.3047 7.04338ZM7.04387 19.3043C7.76424 19.3043 8.34822 18.7203 8.34822 17.9999C8.34822 17.2795 7.76424 16.6956 7.04387 16.6956C6.3235 16.6956 5.73953 17.2795 5.73953 17.9999C5.73953 18.7203 6.3235 19.3043 7.04387 19.3043Z" fill="white"/>
</svg>
