<?xml version="1.0" encoding="utf-8"?>
<!-- Generator: Adobe Illustrator 28.0.0, SVG Export Plug-In . SVG Version: 6.00 Build 0)  -->
<svg version="1.1" id="Layer_1" xmlns="http://www.w3.org/2000/svg" xmlns:xlink="http://www.w3.org/1999/xlink" x="0px" y="0px"
	 viewBox="0 0 1000 179" style="enable-background:new 0 0 1000 179;" xml:space="preserve">
<style type="text/css">
	.st0{fill-rule:evenodd;clip-rule:evenodd;fill:#FFFFFF;}
	.st1{fill:#FFFFFF;}
</style>
<g id="Logo">
	<g id="Logo_History">
		<g id="Glyph">
			<path id="Union" class="st0" d="M88.5,60.2L111.6,37L88.5,13.9L65.4,37L88.5,60.2z M58.3,33.5c-2,2-2,5.1,0,7.1L85,67.2
				c2,2,5.1,2,7.1,0l26.7-26.7c2-2,2-5.1,0-7.1L92.1,6.8c-2-2-5.1-2-7.1,0L58.3,33.5z M88.5,165.1l23.1-23.1l-23.1-23.1L65.4,142
				L88.5,165.1z M58.3,138.4c-2,2-2,5.1,0,7.1L85,172.2c2,2,5.1,2,7.1,0l26.7-26.7c2-2,2-5.1,0-7.1l-26.7-26.7c-2-2-5.1-2-7.1,0
				L58.3,138.4z M141,112.6l-23.1-23.1L141,66.4l23.1,23.1L141,112.6z M137.4,59.3c2-2,5.1-2,7.1,0L171.2,86c2,2,2,5.1,0,7.1
				l-26.7,26.7c-2,2-5.1,2-7.1,0L110.8,93c-2-2-2-5.1,0-7.1L137.4,59.3z M12.9,89.5l23.1,23.1l23.1-23.1L36.1,66.4L12.9,89.5z
				 M39.6,59.3c-2-2-5.1-2-7.1,0L5.9,86c-2,2-2,5.1,0,7.1l26.7,26.7c2,2,5.1,2,7.1,0L66.2,93c2-2,2-5.1,0-7.1L39.6,59.3z M85.9,81.6
				c1.5,1.5,3.8,1.5,5.3,0l43.3-43.3c1.5-1.5,3.8-1.5,5.3,0c1.5,1.5,1.5,3.8,0,5.3L96.5,86.9c-1.5,1.5-1.5,3.8,0,5.3l43.3,43.3
				c1.5,1.5,1.5,3.8,0,5.3c-1.5,1.5-3.8,1.5-5.3,0L91.2,97.4c-1.5-1.5-3.8-1.5-5.3,0l-43.3,43.3c-1.5,1.5-3.8,1.5-5.3,0
				c-1.5-1.5-1.5-3.8,0-5.3l43.3-43.3c1.5-1.5,1.5-3.8,0-5.3L37.3,43.6c-1.5-1.5-1.5-3.8,0-5.3c1.5-1.5,3.8-1.5,5.3,0L85.9,81.6z
				 M94.8,142c0,3.4-2.8,6.2-6.2,6.2c-3.4,0-6.2-2.8-6.2-6.2c0-3.4,2.8-6.2,6.2-6.2C92,135.7,94.8,138.5,94.8,142z M141,95.7
				c3.4,0,6.2-2.8,6.2-6.2c0-3.4-2.8-6.2-6.2-6.2c-3.4,0-6.2,2.8-6.2,6.2C134.7,92.9,137.5,95.7,141,95.7z M94.8,37
				c0,3.4-2.8,6.2-6.2,6.2c-3.4,0-6.2-2.8-6.2-6.2c0-3.4,2.8-6.2,6.2-6.2C92,30.8,94.8,33.6,94.8,37z M36.1,95.7
				c3.4,0,6.2-2.8,6.2-6.2c0-3.4-2.8-6.2-6.2-6.2c-3.4,0-6.2,2.8-6.2,6.2C29.8,92.9,32.6,95.7,36.1,95.7z"/>
		</g>
		<g>
			<path id="Vector_2" class="st1" d="M330.3,107.1c0,0.2,0,0.4-0.4,2.1c-0.2,0.9-0.4,2.2-0.7,3.7c-0.3,1.4-0.6,3-0.9,4.7
				c-0.3,1.6-0.6,3.2-0.9,4.6c-0.3,1.4-0.5,2.6-0.8,3.5l-0.4,1.8c-0.4,0.9-1.3,1.3-2.3,1.3c-0.9,0-1.7-0.3-2.2-0.8
				c-0.4-0.5-0.7-1.2-0.6-1.9c0-0.5,0.1-1,0.1-1.6c0-1.2-0.1-2.5-0.2-3.9c-0.1-1.3-0.3-2.5-0.7-3.6c-0.3-0.9-0.9-1.7-1.6-2.3
				c-0.7-0.6-1.6-0.8-2.8-0.8l-48.5-0.1c-1.4,0-2.4,0.3-3.1,1c-0.8,0.8-1.3,1.8-1.7,3c-0.3,1.3-0.6,2.8-0.6,4.3v4.4
				c0,1.2-0.9,2.1-2.1,2.1c-0.1,0-0.4,0.1-0.6,0.1c-1.1,0-1.9-0.5-2.3-1.3l-0.1-0.4l-0.3-1.4c-0.2-1-0.4-2.1-0.8-3.5
				c-0.3-1.4-0.6-3-0.9-4.6c-0.3-1.7-0.6-3.2-0.9-4.7c-0.3-1.4-0.5-2.7-0.7-3.6c-0.2-1.3-0.3-2-0.3-2.1c0-1,0.6-1.8,1.6-2
				c0.2-0.1,0.6-0.2,1-0.2c1,0,1.9,0.5,2.4,1.3c0.2,0.4,0.4,0.9,0.6,1.4l0.6,1.1l1.5-0.1c0.3-0.1,0.8-0.2,1.2-0.3
				c0.2-0.1,0.4-0.3,0.6-0.6c0.1-0.2,0.3-0.5,0.3-1.4V72.7c0-0.8-0.1-1.1-0.2-1.3c-0.2-0.3-0.4-0.5-0.6-0.6c-0.3-0.2-0.7-0.3-1-0.3
				c-0.7-0.1-1.2-0.2-1.7-0.2c-0.7-0.1-1.2-0.2-1.6-0.3c-1.1-0.3-1.8-1.2-1.8-2.3c0-0.4,0.1-0.8,0.3-1.2c0.4-0.8,1.1-1.2,2-1.2h19.4
				c0.4,0,1.1,0.1,1.8,1c0.4,0.5,0.6,1,0.6,1.5c0,1.1-0.7,2.4-2.7,2.5c-0.7,0-1.3,0.1-2.1,0.3c-0.6,0.1-1.1,0.3-1.6,0.7
				c-0.2,0.1-0.4,0.5-0.4,1.5v33.5c0,0.8,0.1,1.2,0.3,1.4c0.1,0.2,0.4,0.4,0.9,0.7c0.4,0.1,0.9,0.3,1.5,0.4c0.7,0,1.4,0.1,2.1,0.1
				h28.3c0.7,0,1.4,0,2.2-0.1c0.5-0.1,1.1-0.2,1.4-0.4c0.3-0.2,0.6-0.4,0.8-0.7c0.2-0.3,0.3-0.8,0.3-1.4V72.7c0-1-0.2-1.4-0.3-1.5
				c-0.6-0.4-1.1-0.6-1.7-0.7c-0.9-0.2-1.6-0.3-2.2-0.3c-2-0.1-2.7-1.4-2.7-2.5c0-0.4,0.1-0.8,0.3-1.2c0.4-0.8,1.1-1.2,2-1.2h19.4
				c0.8,0,1.6,0.4,1.9,1.2c0.2,0.4,0.3,0.8,0.3,1.2c0,1.1-0.7,2.3-2.6,2.6c-0.7,0.1-1.4,0.1-2.2,0.3c-0.6,0.1-1.1,0.3-1.6,0.7
				c-0.1,0.1-0.3,0.5-0.3,1.5v33.5c0,0.9,0.2,1.2,0.3,1.3c0.2,0.3,0.5,0.6,0.8,0.7c0.3,0.1,0.7,0.2,1.2,0.2c0.4,0,0.9,0.1,1.3,0.1
				c0.2-0.3,0.3-0.6,0.4-0.9c0.3-0.6,0.5-1,0.7-1.4c0.7-1.1,2-1.7,3.4-1.1C329.7,105.4,330.3,106.2,330.3,107.1L330.3,107.1z
				 M515.2,71.3c0.5-0.4,1-0.6,1.7-0.7c0.8-0.2,1.4-0.3,2.1-0.3c1.9-0.2,2.6-1.5,2.6-2.6c0-0.3-0.1-0.7-0.3-1.2
				c-0.3-0.9-1.1-1.4-2-1.4h-19.8c-0.9,0-1.7,0.6-2,1.4c-0.2,0.4-0.3,0.8-0.3,1.2c0,1,0.6,1.9,1.8,2.4c0.4,0.1,1,0.2,1.6,0.2
				c0.5,0,1,0.1,1.7,0.2c0.4,0,0.7,0.1,1,0.3c0.2,0.1,0.4,0.3,0.7,0.7c0,0,0.2,0.3,0.2,1.2v33.5c0,1-0.2,1.4-0.3,1.6
				c-0.5,0.4-1.1,0.6-1.7,0.7c-0.8,0.1-1.5,0.2-2.2,0.2c-2,0.1-2.7,1.4-2.7,2.5c0,0.4,0.1,0.8,0.3,1.2c0.4,0.8,1.1,1.2,1.9,1.2h19.8
				c0.8,0,1.6-0.4,2-1.2c0.2-0.4,0.3-0.8,0.3-1.2c0-1.1-0.7-2.4-2.7-2.5c-0.6,0-1.3-0.1-2-0.2c-0.6-0.1-1.2-0.4-1.7-0.7
				c-0.2-0.1-0.4-0.6-0.4-1.6V72.8c0-1,0.2-1.4,0.3-1.4H515.2z M255.7,28.3l0.4-1.8c0.2-1,0.5-2.1,0.8-3.5c0.3-1.4,0.6-3,0.9-4.6
				c0.3-1.7,0.7-3.2,0.9-4.7c0.3-1.4,0.6-2.7,0.8-3.7c0.3-1.6,0.4-1.9,0.4-2.1c0-0.9-0.6-1.7-1.5-2c-1.4-0.6-2.8,0-3.4,1.1
				c-0.2,0.3-0.4,0.8-0.7,1.4c-0.1,0.3-0.2,0.6-0.5,1c-0.5,0.2-1,0.3-1.4,0.3h-47.9c-0.8,0-1.6,0.4-1.9,1.2
				c-0.2,0.4-0.3,0.8-0.3,1.2c0,1.1,0.7,2.4,2.6,2.5c0.7,0,1.3,0.1,2.2,0.3c0.6,0.1,1,0.3,1.6,0.7c0.1,0.1,0.3,0.5,0.3,1.5v33.5
				c0,1-0.2,1.4-0.4,1.5c-0.5,0.3-1,0.6-1.6,0.7c-0.8,0.1-1.6,0.2-2.2,0.3c-1.9,0.1-2.6,1.4-2.6,2.5c0,0.4,0.1,0.8,0.2,1.2
				c0.3,0.9,1.1,1.4,2,1.4h20.1c0.9,0,1.7-0.6,2-1.4c0.2-0.4,0.2-0.8,0.2-1.2c0-1.2-0.8-2.1-1.7-2.3c-0.5-0.2-1.1-0.3-1.9-0.4
				l-1.9-0.1c-0.5,0-1-0.1-1.2-0.2c-0.3-0.1-0.6-0.4-0.8-0.6c-0.1-0.1-0.2-0.4-0.2-1.4V17.4c0-0.8,0.1-1.2,0.2-1.4
				c0.2-0.3,0.5-0.6,0.8-0.7c0.4-0.2,0.9-0.3,1.6-0.3c0.8-0.1,1.5-0.1,2.2-0.1h21.1c1.2,0,2.2,0.3,2.8,0.8c0.8,0.6,1.3,1.4,1.6,2.3
				c0.4,1,0.6,2.2,0.7,3.6c0.1,1.4,0.2,2.7,0.2,3.9c0,0.6,0,1.1-0.1,1.6c-0.1,0.7,0.1,1.3,0.6,1.8C252.2,30,254.9,29.9,255.7,28.3z
				 M401.2,94.9l-2.3-1.1l-2.2,0.7l-0.5,1.8l0.1,0.4c0.2,1.1,0.3,2.4,0.2,4c0,1.4-0.3,2.8-0.8,4.1c-0.4,1.2-1.1,2.2-2,3.1
				c-0.7,0.7-1.7,1-2.9,1h-28.5c-0.8,0-1.6,0-2.2-0.1c-0.6-0.1-1.1-0.2-1.6-0.4c-0.3-0.1-0.6-0.4-0.8-0.5c-0.1-0.2-0.3-0.6-0.3-1.5
				V72.8c0-1.1,0.4-1.4,0.5-1.5c0.6-0.5,1.4-0.8,2.3-0.9c1-0.2,2.1-0.3,3.2-0.2c3.1,0.1,4.9-0.1,6.9,0.8c1.1,0.4,2.1,1.1,3,2
				c0.9,0.8,1.6,1.8,2.2,2.9c0.6,1.1,1.1,2.3,1.3,3.6l0.1,0.6l0.4,0.4c0.2,0.2,0.4,0.4,0.8,0.6c0.7,0.4,1.5,0.8,3,0
				c0.5-0.4,0.9-0.9,1-1.6l0.1-0.4l-0.1-0.4c-0.9-3.7-1.4-7.4-1.4-11.2v-0.8l-1.6-1.4h-36.5c-0.9,0-1.7,0.6-2,1.4
				c-0.2,0.4-0.3,0.8-0.3,1.2c0,1,0.7,2.3,2.6,2.6c0.7,0,1.3,0.1,2.2,0.3c0.6,0.1,1,0.3,1.6,0.7c0.1,0.1,0.3,0.6,0.3,1.4v33.5
				c0,1-0.2,1.4-0.4,1.6c-0.4,0.3-1,0.6-1.6,0.6c-0.8,0.1-1.6,0.2-2.2,0.3c-1.9,0.1-2.6,1.4-2.6,2.5c0,0.4,0.1,0.8,0.3,1.2
				c0.4,0.8,1.1,1.2,1.9,1.2h54.8c0.5,0,1,0.1,1.6,0.2l0.3,0.2c0.2,0.3,0.3,0.6,0.4,0.9l0.6,1.3c0.5,0.9,1.4,1.3,2.4,1.3
				c0.5,0,0.9-0.1,1.2-0.3c1-0.4,1.5-1.5,1.2-2.6L401.2,94.9L401.2,94.9z M838.5,52.2c-0.2,0.2-0.3,0.4-0.6,0.6
				c-0.3,0.2-0.7,0.3-0.9,0.3c-0.7,0-1.2,0.1-1.7,0.2c-0.7,0.1-1.2,0.2-1.6,0.3c-1.1,0.3-1.7,1.2-1.7,2.3c0,0.4,0.1,0.8,0.3,1.3
				c0.4,0.8,1.1,1.2,1.9,1.2h19.8c0.4,0,1.2-0.1,1.9-1.1c0.3-0.5,0.4-1,0.4-1.4c0-1.1-0.6-2-1.6-2.3c-0.5-0.2-1.1-0.3-1.8-0.4
				l-1.6-0.1c-0.4-0.1-0.9-0.2-1.2-0.3c-0.3-0.1-0.5-0.3-0.6-0.6c-0.1-0.1-0.2-0.5-0.2-1.4V17.5c0-1,0.2-1.4,0.4-1.5
				c0.5-0.4,1-0.6,1.6-0.7c0.8-0.1,1.6-0.2,2.4-0.3c2-0.2,2.7-1.5,2.7-2.6c0-0.4-0.1-0.9-0.2-1.2c-0.3-0.9-1.1-1.4-2.1-1.4h-19.8
				c-0.9,0-1.7,0.6-2,1.4c-0.2,0.4-0.3,0.8-0.3,1.2c0,1.2,0.8,2.5,2.6,2.6c0.7,0,1.4,0.1,2.2,0.2c0.6,0.1,1,0.3,1.6,0.7
				c0.1,0.1,0.3,0.5,0.3,1.5v33.4C838.8,51.7,838.6,52,838.5,52.2L838.5,52.2z M515.2,16c0.5-0.4,1-0.6,1.7-0.7
				c0.8-0.2,1.4-0.3,2.1-0.3c1.9-0.2,2.6-1.5,2.6-2.6c0-0.3-0.1-0.7-0.3-1.2c-0.3-0.9-1.1-1.4-2-1.4h-9.5c-1,0-2,0.2-2.9,0.7
				c-0.9,0.5-1.7,1.2-2.2,2.1l-21,37.6c-0.6,1-1,1.4-1.1,1.6c-0.4,0.3-0.8,0.5-1.1,0.6c-0.5,0.1-1.1,0.2-1.7,0.3
				c-0.8,0.1-1.7,0.3-2.7,0.7c-1,0.4-1.7,1.3-1.7,2.5c0,0.4,0.1,0.8,0.3,1.3c0.4,0.8,1.1,1.2,2,1.2h14.7c0.4,0,1.2-0.1,1.9-1.1
				c0.3-0.5,0.4-1,0.4-1.4c0-0.9-0.6-2.1-2.1-2.5c-0.5-0.1-1.1-0.3-1.8-0.4c-0.4-0.1-0.8-0.2-1-0.3c0,0,0.1-0.6,1-2.4
				c0.8-1.6,1.7-3.5,2.9-5.7c1.2-2.2,2.4-4.6,3.8-7.1c1.4-2.6,2.8-5,4.1-7.2c0.9-1.6,1.8-3,2.5-4.4v24.9c0,1-0.2,1.5-0.3,1.6
				c-0.5,0.3-1.1,0.6-1.7,0.7c-0.8,0.1-1.5,0.2-2.2,0.2c-2,0.1-2.7,1.5-2.7,2.6c0,0.4,0.1,0.8,0.3,1.3c0.4,0.8,1.1,1.2,2,1.2h19.8
				c0.8,0,1.6-0.4,2-1.3c0.2-0.4,0.2-0.8,0.2-1.2c0-1.1-0.7-2.5-2.6-2.6c-0.7-0.1-1.4-0.2-2.2-0.3c-0.6-0.1-1.1-0.3-1.6-0.6
				c-0.2-0.1-0.4-0.7-0.4-1.6V17.5C514.9,16.5,515.1,16.1,515.2,16z M454.7,52.2c-0.2,0.2-0.3,0.4-0.6,0.6c-0.3,0.2-0.7,0.3-0.9,0.3
				c-0.7,0-1.2,0.1-1.7,0.2c-0.7,0.1-1.2,0.2-1.6,0.3c-1.1,0.3-1.7,1.2-1.7,2.3c0,0.4,0.1,0.8,0.3,1.3c0.4,0.8,1.1,1.2,2,1.2h19.8
				c0.4,0,1.2-0.1,1.9-1.1c0.3-0.5,0.4-1,0.4-1.4c0-1.1-0.6-2-1.6-2.3c-0.5-0.2-1.1-0.3-1.8-0.4l-1.6-0.1c-0.4-0.1-0.9-0.2-1.2-0.3
				c-0.3-0.1-0.5-0.3-0.6-0.6c-0.1-0.1-0.2-0.5-0.2-1.4V17.5c0-1,0.2-1.4,0.4-1.5c0.5-0.4,1-0.6,1.6-0.7c0.8-0.1,1.6-0.2,2.4-0.3
				c2-0.2,2.7-1.5,2.7-2.6c0-0.4-0.1-0.9-0.3-1.2c-0.3-0.9-1.1-1.4-2.1-1.4h-19.8c-0.9,0-1.7,0.6-2,1.4c-0.2,0.4-0.3,0.8-0.3,1.2
				c0,1.2,0.8,2.5,2.6,2.6c0.7,0,1.4,0.1,2.2,0.2c0.6,0.1,1,0.3,1.6,0.7c0.1,0.1,0.3,0.5,0.3,1.5v33.4
				C454.9,51.7,454.8,52,454.7,52.2z M934.9,45.8c-1.6-3.2-2.3-7.1-2.3-11.6c0-2,0.1-3.9,0.4-5.8c0.3-1.9,0.8-3.8,1.5-5.5
				c0.7-1.8,1.8-3.4,3.1-4.9c1.3-1.5,3-2.8,5-3.8c3.2-1.6,6.5-2.8,10.1-3.4c3.4-0.7,7-1,10.4-1h29.3c0.9,0,1.7,0.6,2,1.4
				c0.2,0.4,0.2,0.8,0.2,1.2c0,1.1-0.7,2.5-2.7,2.6c-0.6,0-1.3,0.1-2,0.3c-0.7,0.1-1.2,0.3-1.7,0.7c-0.1,0.1-0.3,0.5-0.3,1.4v33.4
				c0,0.9,0.2,1.3,0.2,1.4c0.1,0.1,0.3,0.3,0.6,0.5c0.3,0.2,0.7,0.3,1,0.3l1.6,0.1c0.7,0.1,1.2,0.2,1.7,0.4c1,0.3,1.6,1.2,1.6,2.3
				c0,0.3-0.1,0.7-0.2,1.2c-0.5,0.9-1.2,1.3-2,1.3h-30.4c-3.9,0-7.6-0.4-11.1-1.1c-3.6-0.8-6.8-2.2-9.4-4
				C938.8,51.4,936.6,48.9,934.9,45.8L934.9,45.8z M972.7,14.9h-9.7c-3.9,0-7.2,0.3-9.9,0.9c-2.5,0.6-4.5,1.6-6,3
				c-1.5,1.3-2.6,3.3-3.3,5.7c-0.7,2.5-1.1,5.8-1.1,9.8c0,3.7,0.3,6.9,1,9.4c0.6,2.3,1.7,4.3,3.1,5.7c1.4,1.4,3.3,2.5,5.6,3.1
				c2.5,0.7,5.7,1,9.4,1h10.6c0.8,0,1.6,0,2.3-0.1c0.6-0.1,1.1-0.2,1.6-0.4c0.4-0.2,0.7-0.4,0.9-0.7c0.1-0.2,0.3-0.7,0.3-1.4V17.5
				c0-0.6-0.1-1.1-0.3-1.4c-0.2-0.3-0.5-0.6-0.8-0.7c-0.5-0.2-1-0.4-1.6-0.4C974.2,14.9,973.5,14.8,972.7,14.9L972.7,14.9z
				 M257.6,53.5c-1.8,0.7-2.1,1.8-2.1,2.4c0,0.3,0.1,0.7,0.3,1.3c0.4,0.8,1.1,1.2,1.9,1.2h19.7c0.8,0,1.6-0.4,1.9-1.1
				c0.3-0.5,0.4-1,0.4-1.4c0-1.1-0.7-2.3-2.5-2.5c-0.7-0.1-1.5-0.3-2.3-0.4c-0.7-0.1-1.2-0.4-1.8-0.7c-0.1,0-0.3-0.2-0.3-0.8
				c0-2,0.1-4.2,0.4-6.6c0.3-2.3,0.7-4.7,1.1-7c0.5-2.3,1.2-4.7,1.9-6.9c0.7-2.2,1.6-4.2,2.4-6c1.3-2.5,2.8-4.4,4.6-5.7
				c1.9-1.4,4-2.4,6.2-3c2.3-0.7,4.8-1.1,7.3-1.1c2.7-0.1,5.3-0.2,8-0.2c0.8,0,1.5,0,2.3,0.1c0.6,0,1.1,0.1,1.6,0.3
				c0.3,0.1,0.6,0.3,0.9,0.7c0.2,0.3,0.3,0.8,0.3,1.4v33.4c0,1.4-0.5,1.8-0.7,1.9c-0.7,0.4-1.7,0.6-2.8,0.6c-0.4,0-0.9,0-1.1,0.1
				c-1.1,0-2.2,0.8-2.2,2.5c0,0.3,0.1,0.7,0.3,1.3c0.4,0.8,1.1,1.2,1.9,1.2h19.2c0.8,0,1.6-0.4,2-1.3c0.2-0.4,0.3-0.8,0.3-1.2
				c0-1.1-0.7-2.1-1.6-2.2c-0.5-0.2-1.1-0.3-1.6-0.4c-0.6-0.1-1.1-0.2-1.7-0.2c-0.4-0.1-0.7-0.2-1-0.3c-0.3-0.1-0.5-0.3-0.6-0.5
				c-0.1-0.1-0.2-0.5-0.2-1.4V17.5c0-1,0.2-1.4,0.3-1.4c0.5-0.4,1-0.6,1.7-0.7c0.8-0.2,1.4-0.3,2-0.3c2-0.1,2.7-1.5,2.7-2.6
				c0-0.3-0.1-0.8-0.2-1.2c-0.3-0.9-1.1-1.4-2-1.4h-25.1c-6.6,0-12.1,1.1-16.5,3.4c-4.3,2.2-8,5.3-10.8,9.1c-2.8,3.7-4.9,8.1-6.5,13
				c-1.5,4.8-2.8,9.9-3.8,15.2c-0.1,0.4-0.3,0.8-0.7,1.1c-0.6,0.4-1.2,0.8-1.9,1.1C258.8,53.1,258.1,53.3,257.6,53.5L257.6,53.5z
				 M219.5,71.4c0.2-0.3,0.4-0.5,0.7-0.6c0.4-0.2,0.8-0.3,1.3-0.3c0.6,0,1.2-0.1,1.8-0.1c0.7-0.1,1.3-0.1,1.8-0.3
				c1.1-0.4,1.8-1.3,1.8-2.4c0-0.4-0.1-0.8-0.3-1.1c-0.3-0.9-1.1-1.4-2-1.4h-20.1c-0.9,0-1.7,0.6-1.9,1.3c-0.2,0.4-0.3,0.8-0.3,1.2
				c0,1.4,1,2.4,2.6,2.7c0.7,0,1.4,0.1,2.2,0.2c0.6,0.1,1,0.3,1.6,0.7c0.1,0.1,0.3,0.5,0.3,1.5v33.4c0,1-0.2,1.4-0.4,1.5
				c-0.5,0.3-1,0.6-1.6,0.7c-0.8,0.1-1.6,0.2-2.2,0.3c-1.9,0.1-2.6,1.4-2.6,2.5c0,0.4,0.1,0.8,0.3,1.2c0.3,0.9,1.1,1.4,2,1.4h20.1
				c0.8,0,1.6-0.4,2-1.3c0.2-0.4,0.2-0.8,0.2-1.2c0-1.2-0.8-2.1-1.7-2.3c-0.5-0.2-1.1-0.3-1.9-0.4c-0.6,0-1.2-0.1-1.9-0.1
				c-0.5,0-1-0.1-1.2-0.2c-0.3-0.1-0.6-0.4-0.7-0.6c-0.1-0.2-0.3-0.6-0.3-1.5V72.8C219.3,71.8,219.5,71.4,219.5,71.4L219.5,71.4z
				 M346.8,52.4c-0.4,0.3-1,0.6-1.6,0.6c-0.8,0.1-1.6,0.2-2.2,0.3c-1.8,0.1-2.6,1.4-2.6,2.6c0,0.4,0.1,0.8,0.3,1.3
				c0.4,0.8,1.1,1.2,2,1.2h36.5l1.7-1.4v-0.8c-0.1-1.9,0-3.7,0.2-5.6c0.3-1.9,0.6-3.8,1.1-5.6l0.1-0.5l-0.5-1.6l-0.7-0.3
				c-0.2-0.1-0.4-0.2-0.6-0.2l-0.9-0.1c-0.7,0-1.6,0.3-2.5,1.8c-0.3,0.6-0.6,1.3-1,2.2c-0.3,0.8-0.8,1.6-1.2,2.5
				c-0.4,0.8-1,1.7-1.6,2.4c-0.5,0.6-1.2,1.2-2,1.6c-0.7,0.4-1.6,0.6-2.6,0.6h-6.5c-0.8,0-1.6,0-2.2-0.1c-0.6-0.1-1.1-0.2-1.6-0.4
				c-0.3-0.1-0.6-0.4-0.8-0.6c-0.1-0.2-0.3-0.6-0.3-1.5V17.5c0-0.7,0.1-1.2,0.2-1.4c0.3-0.3,0.6-0.6,0.9-0.7
				c0.5-0.2,1.1-0.3,1.8-0.3c0.8-0.1,1.5-0.1,2.2-0.1H387c1.2,0,2.1,0.3,2.7,0.9c0.7,0.7,1.2,1.5,1.6,2.6c0.4,1.1,0.6,2.4,0.7,3.7
				c0.1,1.4,0.1,2.8,0.1,3.9c0,0.1,0,0.3-0.1,0.8l-0.1,1.5c0,0.6,0.1,1.1,0.2,1.6c0.3,1,1.2,1.7,2.3,1.7c0.3,0,0.7,0,1.3-0.2
				c0.8-0.3,1.3-0.9,1.4-1.7l4.3-21.5l-0.4-1.3l-0.3-0.3c0,0-0.3-0.3-0.6-0.5c-0.3-0.3-0.9-0.7-1.6-0.7c-0.9,0-1.7,0.6-2.1,1.4
				c-0.1,0.3-0.2,0.6-0.2,0.8c-0.3,0.9-0.6,1.6-1,2c-0.2,0.2-0.8,0.4-1.6,0.4h-50.9c-0.9,0-1.7,0.6-2,1.4c-0.2,0.4-0.3,0.8-0.3,1.2
				c0,1,0.7,2.3,2.6,2.6c0.7,0,1.3,0.1,2.2,0.3c0.6,0.1,1,0.3,1.6,0.7c0.1,0.1,0.3,0.6,0.3,1.4v33.4
				C347.1,51.9,346.9,52.3,346.8,52.4L346.8,52.4z M492,65.1h-14.7c-0.9,0-1.7,0.6-2.1,1.4c-0.2,0.4-0.2,0.8-0.2,1.2v0.5l1.3,2h0.9
				c0.2,0,0.6,0,0.9,0.1c0.4,0.1,0.8,0.2,1.1,0.3c0.2,0.1,0.4,0.2,0.6,0.1c0,0-0.1,0.6-1,2.4c-0.8,1.6-1.7,3.5-2.9,5.7
				c-1.2,2.2-2.4,4.6-3.9,7.1c-1.4,2.6-2.8,5-4.1,7.4c-0.9,1.6-1.7,3-2.5,4.4V72.8c0-1,0.2-1.4,0.4-1.5c0.5-0.4,1-0.6,1.6-0.7
				c0.8-0.1,1.6-0.2,2.4-0.3c2-0.2,2.7-1.5,2.7-2.6c0-0.4-0.1-0.9-0.3-1.2c-0.3-0.9-1.1-1.4-2.1-1.4h-19.8c-0.9,0-1.7,0.6-2,1.4
				c-0.2,0.4-0.3,0.8-0.3,1.2c0,1.2,0.8,2.5,2.6,2.6c0.7,0,1.4,0.1,2.2,0.2c0.6,0.1,1,0.3,1.6,0.7c0.1,0.1,0.3,0.5,0.3,1.5v33.5
				c0,1-0.2,1.4-0.4,1.6c-0.5,0.3-1,0.6-1.6,0.7c-0.8,0.1-1.5,0.2-2.2,0.2c-1.9,0.1-2.6,1.4-2.6,2.5c0,0.4,0.1,0.8,0.3,1.2
				c0.4,0.8,1.1,1.2,1.9,1.2h9.5c1,0,1.9-0.2,2.9-0.6c1-0.5,1.7-1.2,2.2-2.2l20.9-37.6c0.6-1,1-1.3,1.2-1.6c0.3-0.3,0.7-0.5,1.1-0.6
				c0.6-0.2,1.1-0.3,1.7-0.3c0.9-0.1,1.8-0.3,2.6-0.7c0.5-0.2,0.9-0.5,1.2-0.9c0.4-0.5,0.6-1,0.6-1.5c0-0.4-0.1-0.9-0.3-1.2
				C493.7,65.6,492.9,65.1,492,65.1L492,65.1z M905.3,71.3c0.5-0.4,1-0.6,1.7-0.7c0.8-0.2,1.4-0.3,2.1-0.3c1.9-0.2,2.6-1.5,2.6-2.6
				c0-0.4-0.1-0.8-0.3-1.2c-0.3-0.9-1.1-1.4-2-1.4h-19.8c-0.9,0-1.7,0.6-2,1.4c-0.2,0.4-0.2,0.8-0.2,1.2c0,1.1,0.6,1.9,1.8,2.4
				c0.5,0.1,1,0.2,1.5,0.2c0.5,0,1,0.1,1.7,0.2c0.4,0,0.7,0.1,1,0.3c0.2,0.1,0.4,0.3,0.7,0.7c0,0,0.2,0.3,0.2,1.2v33.5
				c0,1-0.2,1.4-0.3,1.6c-0.5,0.3-1.1,0.6-1.7,0.7c-0.8,0.1-1.5,0.2-2.2,0.2c-2,0.1-2.7,1.4-2.7,2.5c0,0.4,0.1,0.8,0.3,1.2
				c0.4,0.8,1.1,1.2,1.9,1.2h19.8c0.8,0,1.5-0.4,1.9-1.2c0.2-0.4,0.3-0.8,0.3-1.2c0-1.1-0.7-2.4-2.7-2.5c-0.6,0-1.3-0.1-2-0.2
				c-0.6-0.1-1.2-0.4-1.7-0.7c-0.2-0.1-0.4-0.7-0.4-1.6V72.8c0-1,0.2-1.4,0.3-1.4L905.3,71.3z M875.9,65.1h-14.7
				c-0.9,0-1.7,0.6-2.1,1.4c-0.2,0.4-0.3,0.8-0.3,1.2v0.5l1.3,2h0.9c0.2,0,0.6,0,0.9,0.1c0.4,0.1,0.8,0.2,1.1,0.3
				c0.2,0.1,0.4,0.2,0.6,0.1c0,0-0.1,0.6-1,2.4c-0.8,1.6-1.7,3.5-2.9,5.7c-1.2,2.2-2.4,4.6-3.9,7.1c-1.4,2.6-2.8,5-4.1,7.4
				c-0.9,1.6-1.7,3-2.5,4.4v-25c0-1,0.2-1.4,0.4-1.5c0.5-0.4,1-0.6,1.6-0.7c0.8-0.1,1.6-0.2,2.4-0.3c2-0.2,2.7-1.5,2.7-2.6
				c0-0.4-0.1-0.9-0.2-1.2c-0.3-0.9-1.1-1.4-2.1-1.4h-19.8c-0.9,0-1.7,0.6-2,1.4c-0.2,0.4-0.3,0.8-0.3,1.2c0,1.2,0.8,2.5,2.6,2.6
				c0.7,0,1.4,0.1,2.2,0.2c0.6,0.1,1,0.3,1.6,0.7c0.1,0.1,0.3,0.5,0.3,1.5v33.5c0,1-0.2,1.4-0.4,1.6c-0.5,0.3-1,0.6-1.5,0.7
				c-0.8,0.1-1.5,0.2-2.2,0.2c-1.9,0.1-2.6,1.4-2.6,2.5c0,0.4,0.1,0.8,0.3,1.2c0.4,0.8,1.1,1.2,1.9,1.2h9.5c1,0,1.9-0.2,2.9-0.6
				c1-0.5,1.7-1.2,2.2-2.2l20.9-37.6c0.6-1,1-1.3,1.2-1.6c0.3-0.3,0.7-0.5,1.1-0.6c0.6-0.2,1.1-0.3,1.7-0.3c0.9-0.1,1.8-0.3,2.6-0.7
				c0.5-0.1,0.9-0.5,1.2-0.9c0.4-0.5,0.6-1,0.6-1.5c0-0.4-0.1-0.9-0.2-1.2C877.6,65.7,876.8,65.1,875.9,65.1L875.9,65.1z M820.6,25
				c1.1,2.9,1.7,5.9,1.7,9.1c0,3.2-0.6,6.2-1.7,9.2c-1.1,2.9-2.7,5.5-4.7,7.8c-2,2.2-4.4,4-7.2,5.4c-2.8,1.4-5.9,2.1-9.2,2.1h-37
				c-0.8,0-1.5-0.4-1.9-1.2c-0.2-0.6-0.3-0.9-0.3-1.3c0-1.1,0.7-2,1.7-2.3c0.4-0.1,0.9-0.3,1.6-0.3c0.4-0.1,1-0.1,1.7-0.2
				c0.2,0,0.6-0.2,0.9-0.3c0.2-0.1,0.4-0.3,0.6-0.6c0.1-0.1,0.3-0.5,0.3-1.4V17.5c0-0.9-0.2-1.3-0.3-1.4c-0.6-0.4-1-0.7-1.6-0.7
				c-0.9-0.2-1.5-0.3-2.2-0.3c-1.8-0.1-2.6-1.4-2.6-2.6c0-0.3,0.1-0.7,0.2-1.2c0.3-0.9,1.1-1.4,2-1.4h37c3.3,0,6.4,0.7,9.2,2.1
				c2.8,1.3,5.2,3.2,7.2,5.4C817.9,19.6,819.5,22.1,820.6,25L820.6,25z M780.1,53.3c0.8,0,1.5,0.1,2.3,0.1h17.2
				c2.7,0,4.9-0.6,6.5-1.6c1.7-1.1,2.9-2.4,3.7-4.2c0.9-1.8,1.5-3.9,1.8-6.1c0.3-2.4,0.4-4.9,0.4-7.3c0-2.4-0.1-4.8-0.4-7.3
				c-0.3-2.3-0.9-4.4-1.8-6.2c-0.9-1.8-2.1-3.2-3.7-4.2c-1.6-1.1-3.8-1.6-6.5-1.6h-17.4c-0.7,0-1.4,0-2.2,0.1
				c-0.6,0-1.1,0.2-1.5,0.4c-0.4,0.2-0.7,0.4-0.9,0.7c-0.2,0.3-0.3,0.8-0.3,1.4V51c0,0.7,0.1,1.2,0.3,1.4c0.2,0.3,0.5,0.5,0.9,0.7
				c0.4,0.2,1,0.3,1.6,0.3L780.1,53.3z M988.1,71.3c0.5-0.4,1-0.6,1.7-0.7c0.8-0.2,1.5-0.3,2.1-0.3c1.9-0.2,2.6-1.5,2.6-2.6
				c0-0.4-0.1-0.9-0.2-1.2c-0.3-0.9-1.1-1.4-2.1-1.4h-40c-0.9,0-1.7,0.6-2,1.4c-0.2,0.4-0.2,0.8-0.2,1.2c0,0.6,0.2,2,2.7,2.6
				c0.8,0.1,1.7,0.3,2.7,0.5c0.7,0.1,1.4,0.3,2.1,0.6c-0.2,0.3-0.5,0.8-1,1.6c-1,1.4-2.2,3.2-3.8,5.3c-1.5,2.1-3.1,4.3-5,6.7
				c-1.8,2.4-3.5,4.7-5.2,6.9l-4.4,5.8c-1.3,1.7-2.2,2.9-2.7,3.4c-1.8,2.3-3.8,4.2-6.1,5.6c-2.2,1.3-4.8,2-7.7,2
				c-0.4,0-1.2,0.1-1.8,1c-0.3,0.4-0.5,0.9-0.5,1.4c0,0.4,0.1,0.8,0.3,1.4c0.4,0.8,1.1,1.2,2,1.2c1.5,0,3,0,4.5-0.1
				c1.5-0.1,3-0.4,4.3-0.9c1.4-0.4,2.8-1.1,4.1-2c1.3-0.9,2.4-2,3.5-3.5l24.8-33.5c0.7-0.9,1.5-1.8,2.5-2.6c1.6-1.2,3.2-1,6.1-1.1
				c1.2-0.1,2.3,0,3.3,0.1c0.9,0.1,1.6,0.4,2.2,0.9c0.2,0.1,0.6,0.4,0.6,1.6v33.5c0,0.8-0.1,1.1-0.3,1.3c-0.1,0.2-0.3,0.4-0.6,0.6
				c-0.4,0.2-0.8,0.3-1,0.3l-1.7,0.1c-0.7,0.1-1.3,0.2-1.9,0.4c-1,0.4-1.5,1.2-1.5,2.3c0,0.4,0.1,0.8,0.3,1.2
				c0.4,0.8,1.1,1.2,1.9,1.2h19.4c0.4,0,1.2-0.1,1.8-1c0.3-0.5,0.6-1,0.6-1.5c0-1.1-0.7-2.4-2.7-2.5c-0.6,0-1.3-0.1-2-0.2
				c-0.7-0.1-1.2-0.4-1.7-0.7c-0.2-0.1-0.4-0.7-0.4-1.6V72.8C987.8,71.9,988,71.4,988.1,71.3L988.1,71.3z M777.6,71.3
				c0.5-0.4,1-0.6,1.6-0.7c0.8-0.1,1.5-0.2,2.2-0.2c2-0.1,2.7-1.5,2.7-2.6c0-0.3-0.1-0.7-0.2-1.2c-0.3-0.9-1.1-1.4-2-1.4h-19.3
				c-0.9,0-1.7,0.6-2,1.4c-0.2,0.4-0.2,0.8-0.2,1.2c0,1,0.7,2.3,2.6,2.6c0.7,0,1.3,0.1,2.2,0.3c0.6,0.1,1,0.3,1.6,0.7
				c0.1,0.1,0.3,0.6,0.3,1.4v33.5c0,1-0.2,1.4-0.4,1.6c-0.5,0.3-1,0.6-1.5,0.7c-0.8,0.1-1.5,0.2-2.2,0.2c-1.9,0.1-2.6,1.4-2.6,2.5
				c0,0.4,0.1,0.8,0.3,1.2c0.4,0.8,1.1,1.2,1.9,1.2h19.3c0.8,0,1.5-0.4,2-1.2c0.2-0.4,0.3-0.8,0.3-1.2c0-1.1-0.7-2.4-2.7-2.5
				c-0.7,0-1.4-0.1-2.2-0.2c-0.6-0.1-1.1-0.3-1.6-0.6c-0.2-0.1-0.4-0.7-0.4-1.7V72.8C777.3,71.8,777.5,71.4,777.6,71.3L777.6,71.3z
				 M905.3,16c0.5-0.4,1-0.6,1.7-0.7c0.8-0.2,1.4-0.3,2.1-0.3c1.9-0.2,2.6-1.5,2.6-2.6c0-0.4-0.1-0.8-0.3-1.2
				c-0.3-0.9-1.1-1.4-2-1.4H900c-1,0-2,0.2-2.9,0.7c-0.9,0.5-1.7,1.2-2.2,2.1l-21,37.6c-0.6,1-1,1.4-1.1,1.6
				c-0.4,0.3-0.8,0.5-1.1,0.6c-0.5,0.1-1.1,0.2-1.7,0.3c-0.8,0.1-1.7,0.3-2.7,0.7c-1,0.4-1.7,1.3-1.7,2.5c0,0.3,0.1,0.7,0.3,1.3
				c0.4,0.8,1.1,1.2,2,1.2h14.7c0.4,0,1.2-0.1,1.9-1.1c0.3-0.5,0.4-1,0.4-1.4c0-0.9-0.6-2.1-2.1-2.5c-0.5-0.1-1.1-0.3-1.8-0.4
				c-0.4-0.1-0.8-0.2-1-0.3c0,0,0.1-0.6,1-2.4c0.8-1.6,1.7-3.5,2.9-5.7c1.2-2.2,2.4-4.6,3.8-7.1c1.5-2.6,2.8-5,4.1-7.2
				c0.9-1.6,1.8-3,2.5-4.4v24.9c0,1-0.2,1.5-0.3,1.6c-0.5,0.3-1.1,0.6-1.7,0.7c-0.8,0.1-1.5,0.2-2.2,0.2c-2,0.1-2.7,1.5-2.7,2.6
				c0,0.3,0.1,0.7,0.3,1.3c0.4,0.8,1.1,1.2,2,1.2h19.8c0.8,0,1.5-0.4,2-1.3c0.2-0.4,0.3-0.8,0.3-1.2c0-1.1-0.7-2.5-2.6-2.6
				c-0.7-0.1-1.4-0.2-2.2-0.3c-0.6-0.1-1.1-0.3-1.5-0.6c-0.2-0.1-0.4-0.7-0.4-1.6V17.5C905,16.5,905.2,16.1,905.3,16z M671.8,5.9
				c-0.4-0.1-0.8-0.1-1-0.1c-1.1,0-1.9,0.7-2.3,1.8c-0.1,0.3-0.3,0.7-0.5,1.1c-0.1,0.3-0.4,0.6-0.7,0.8c-0.1,0.1-0.4,0.3-1.4,0.3
				h-59.9c-0.8,0-1.3-0.2-1.7-0.5c-0.4-0.4-0.7-0.9-0.9-1.7l-0.2-0.9L601.4,6l-0.7-0.1c-0.3,0-0.7,0.1-1.2,0.3
				c-1,0.4-1.5,1.4-1.3,2.4l4.2,21.1c0.1,0.8,0.6,1.3,1.2,1.7l0.4,0.1c1.8,0.3,3.6-0.6,3.6-2.4c0-1.4,0-3-0.1-4.8
				c0-1.7,0.1-3.3,0.4-4.9c0.3-1.4,0.8-2.5,1.6-3.4c0.6-0.8,1.6-1.1,3.1-1.1h13.1c0.7,0,1.4,0,2.2,0.1c0.6,0,1.1,0.1,1.6,0.4
				c0.3,0.1,0.6,0.3,0.8,0.7c0.2,0.3,0.3,0.8,0.3,1.4v33.4c0,1-0.2,1.4-0.4,1.6c-0.4,0.3-1,0.6-1.5,0.6c-0.8,0.1-1.6,0.2-2.2,0.3
				c-1.8,0.1-2.6,1.4-2.6,2.6c0,0.4,0.1,0.9,0.6,1.6c0.6,0.8,1.4,1,1.8,1h19.6c0.4,0,1.1-0.1,1.9-1.1c0.3-0.5,0.5-1,0.5-1.4
				c0-1.1-0.6-2-1.7-2.3c-0.5-0.2-1.1-0.3-1.8-0.4l-1.8-0.1c-0.4,0-0.8-0.1-1.1-0.3c-0.3-0.1-0.5-0.3-0.7-0.6
				c-0.1-0.1-0.2-0.5-0.2-1.3V17.5c0-0.7,0.1-1.2,0.2-1.4c0.3-0.3,0.6-0.6,0.9-0.7c0.5-0.2,1.1-0.3,1.8-0.3c0.8-0.1,1.6-0.1,2.3-0.1
				h13.2c1.2,0,2.1,0.3,2.7,0.9c0.7,0.7,1.2,1.5,1.6,2.6c0.4,1.1,0.7,2.4,0.7,3.7c0.1,1.4,0.1,2.8,0.1,3.9c0,1-0.1,1.9-0.2,2.7
				l-0.1,0.4l0.4,1.4l2,1.4l0.7-0.1c0.8-0.1,1.3-0.6,1.5-1c0.3-0.4,0.5-0.8,0.6-1.3l4.2-20.9c0.2-0.7,0.1-1.3-0.2-1.8
				c-0.3-0.5-0.9-0.9-1.5-0.9H671.8z M647.1,109c-0.6-0.2-1.3-0.3-1.9-0.3c-0.6,0-1.3-0.1-2-0.1c-0.6,0-1-0.1-1.3-0.2
				c-0.3-0.1-0.6-0.4-0.8-0.6c-0.1-0.2-0.3-0.6-0.3-1.5V72.8c0-0.9,0.2-1.3,0.4-1.5c0.6-0.4,1.1-0.6,1.8-0.7
				c0.9-0.1,1.6-0.2,2.3-0.2c2-0.1,2.8-1.5,2.8-2.6c0-0.4-0.1-0.9-0.4-1.4c-0.6-1-1.5-1.2-1.9-1.2h-19.6c-0.9,0-1.7,0.6-2,1.3
				c-0.2,0.4-0.3,0.9-0.3,1.3c0,1,0.7,2.3,2.6,2.6c0.7,0,1.3,0.1,2.2,0.3c0.6,0.1,1,0.3,1.6,0.7c0.1,0.1,0.3,0.6,0.3,1.4v33.5
				c0,1-0.2,1.4-0.4,1.6c-0.5,0.3-1,0.6-1.6,0.7c-0.8,0.1-1.5,0.2-2.2,0.2c-1.9,0.1-2.6,1.4-2.6,2.5c0,0.5,0.2,1,0.6,1.5
				c0.6,0.8,1.4,1,1.8,1h20.5c0.8,0,1.5-0.4,1.9-1.2c0.2-0.4,0.3-0.9,0.3-1.3C648.9,110.1,648.1,109.2,647.1,109L647.1,109z
				 M749.4,53.6c-0.6-0.2-1.2-0.3-1.9-0.3c-0.5,0-1,0-1.7,0.1c-0.3,0-0.7,0-0.9-0.1c-0.3-0.1-0.6-0.3-0.8-0.5
				c-0.1-0.1-0.4-0.6-0.6-1.7c-0.4-2.6-1-5.5-1.7-8.6c-0.7-3.1-1.7-6.3-2.8-9.4c-1.1-3.2-2.5-6.3-4.1-9.2c-1.6-3-3.5-5.7-5.6-8
				c-2.1-2.4-4.7-4.3-7.4-5.8c-5.7-3-13.5-2.9-19.2,0c-2.8,1.4-5.3,3.4-7.5,5.8c-2.1,2.3-4,5-5.7,8c-1.5,2.9-2.9,6-4.1,9.2
				c-1.1,3.1-2,6.3-2.8,9.4c-0.7,3.1-1.3,6-1.7,8.5c-0.2,1-0.4,1.4-0.6,1.7c-0.2,0.3-0.4,0.5-0.6,0.6c-0.3,0.1-0.7,0.2-1,0.2
				c-0.6,0-1.2-0.1-1.6-0.1c-0.7-0.1-1.2,0-1.8,0.1c-0.8,0.2-1.7,1-1.7,2.4c0,0.4,0.1,0.8,0.3,1.3c0.4,0.8,1.1,1.2,2,1.2H697
				c0.9,0,1.7-0.6,2-1.4c0.1-0.3,0.2-0.5,0.2-0.7l0.1-0.4l-0.1-0.4c-0.2-1.1-1.1-2.2-2.9-2.2c-0.7,0-1.4-0.1-2.2-0.2
				c-0.6-0.1-1.1-0.3-1.5-0.7c0,0-0.4-0.3-0.4-1.9c0-2.1,0.1-4.6,0.4-7.3c0.3-2.7,0.7-5.5,1.3-8.3c0.7-2.8,1.5-5.6,2.6-8.3
				c1-2.6,2.3-5,3.8-7.1c1.5-2,3.2-3.6,5.2-4.8c3.8-2.3,9.5-2.4,13.3,0c2,1.2,3.8,2.9,5.2,4.9c1.5,2,2.8,4.4,3.8,7.1
				c1,2.7,1.9,5.5,2.5,8.3c0.7,2.8,1.1,5.6,1.4,8.3c0.3,2.7,0.4,5.2,0.4,7.2c0,1.2-0.4,1.8-0.8,2.1c-0.5,0.5-1.2,0.7-2.2,0.7
				c-0.1,0-0.2,0-0.4,0c-0.5-0.1-0.9-0.1-1,0c-0.6,0-1.2,0.2-1.7,0.6c-0.3,0.3-1,0.9-1,2.1c0,0.3,0.1,0.7,0.2,1.2l0.2,0.4
				c0.4,0.6,1.1,1,1.9,1h20.9c0.8,0,1.5-0.4,2-1.3c0.2-0.4,0.2-0.8,0.2-1.2C750.8,54.5,749.9,53.8,749.4,53.6L749.4,53.6z
				 M594.1,9.1V28c0,1-0.6,1.8-1.4,2.1c-1.3,0.3-1.5,0.3-2.5,0c-0.6-0.2-0.9-0.4-1.1-0.7c-0.7-0.9-1.2-1.7-1.7-2.6
				c-0.4-0.9-0.8-1.6-1.2-2.2c-1-1.5-2.1-3-3.3-4.3c-1.2-1.4-2.6-2.6-4-3.7c-1.4-1.1-3-1.9-4.6-2.6c-1.6-0.6-3.2-0.9-5-0.9
				c-2.6,0-4.8,0.6-6.7,1.8c-2,1.2-3.8,2.8-5.2,4.8c-1.5,2.1-2.8,4.4-3.8,7.1c-1,2.7-1.9,5.5-2.6,8.3c-0.6,2.9-1.1,5.7-1.3,8.3
				c-0.3,2.7-0.4,5.2-0.4,7.3c0,0.9,0.2,1.4,0.3,1.6c0.2,0.3,0.4,0.5,0.7,0.7c0.3,0.1,0.8,0.3,1.4,0.3c0.7,0.1,1.4,0.1,2.1,0.1h0.4
				l1.5,0.7l0.5,2l-1.4,2.4h-21.9c-0.8,0-1.5-0.4-2-1.2c-0.2-0.6-0.3-0.9-0.3-1.3c0-1.4,0.9-2.2,1.7-2.4c0.9-0.2,2-0.2,3.4-0.1
				c0.3,0,0.7-0.1,1-0.2c0.2-0.1,0.4-0.3,0.6-0.5c0.1-0.2,0.4-0.6,0.6-1.6c0.4-2.6,1-5.4,1.7-8.5c0.7-3.1,1.7-6.3,2.8-9.4
				c1.1-3.2,2.5-6.3,4.1-9.2c1.6-3,3.5-5.8,5.7-8c2.2-2.4,4.7-4.3,7.5-5.7c2.8-1.5,6.1-2.2,9.6-2.2c2.3,0,4.4,0.4,6.3,1.1
				c1.7,0.7,3.3,1.5,4.8,2.3l3.8,2.2c0.9,0.5,1.8,0.8,2.7,0.8c0.3,0,0.9,0,1.1-0.3c0.3-0.6,0.6-1.3,0.7-2c0.2-1,0.3-1.9,0.4-2.6
				c0.3-2.8,2.4-3.1,4-2.5C593.5,7.3,594.2,8.1,594.1,9.1L594.1,9.1z M748.6,65.1h-20.9c-0.9,0-1.6,0.4-2,1.2
				c-0.2,0.4-0.3,0.9-0.3,1.4c0,1.1,0.7,2.1,1.8,2.3c0.4,0.1,1,0.2,1.5,0.2c0.5,0,1,0.1,1.7,0.2c0.4,0,0.7,0.1,1,0.3
				c0.2,0.1,0.4,0.3,0.7,0.7c0.1,0.2,0.3,0.6,0.3,1.5c0,2.2-0.1,4.7-0.4,7.5c-0.2,2.7-0.6,5.5-1.2,8.3c-0.6,2.8-1.4,5.6-2.5,8.2
				c-1,2.6-2.2,5-3.7,7c-1.5,2-3.2,3.6-5.3,4.8c-3.9,2.3-9.9,2.3-13.8,0c-2-1.2-3.8-2.8-5.3-4.7c-1.5-2.1-2.8-4.4-3.8-7
				c-1-2.7-1.8-5.5-2.4-8.2c-0.6-2.9-1.1-5.7-1.3-8.4c-0.2-2.7-0.3-5.2-0.3-7.5c0-1.5,0.5-1.8,0.7-2c0.7-0.5,1.4-0.7,2.5-0.7
				c0.3,0,0.7,0,1.3,0.1c1.5,0,2.5-1.1,2.5-2.6c0-0.6-0.2-1.1-0.4-1.4c-0.6-1-1.5-1.2-1.9-1.2H676c-0.9,0-1.7,0.6-2,1.4
				c-0.2,0.4-0.3,0.8-0.3,1.2c0,1.1,0.6,2,1.7,2.4c0.5,0.1,0.9,0.2,1.4,0.2h2.1c0.5,0,0.8,0.1,1.1,0.2c0,0,0.1,0.1,0.3,0.4
				c0.1,0.2,0.3,0.7,0.6,1.7c0.6,2.6,1.2,5.4,1.9,8.5c0.7,3.1,1.7,6.3,2.8,9.4c1.1,3.1,2.4,6.2,3.9,9.1c1.6,3,3.4,5.7,5.5,8.1
				c2.1,2.3,4.7,4.2,7.4,5.7c2.9,1.4,6.2,2.2,9.8,2.2c3.6,0,6.8-0.8,9.7-2.2c2.8-1.4,5.3-3.3,7.5-5.7c2.2-2.3,4-5.1,5.6-8.1
				c1.5-3,2.8-6,3.9-9.2c1.1-3.1,2-6.3,2.8-9.4c0.7-3.1,1.3-5.9,1.8-8.5c0.2-1.2,0.6-1.7,0.7-1.9c0.1-0.1,0.5-0.4,1.6-0.4
				c0.2,0,0.4,0,0.7,0.1c0.5,0.1,1,0.1,1.5,0c0.5-0.1,0.9-0.2,1.5-0.4c0.9-0.4,1.3-1.3,1.3-2.3c0-0.3-0.1-0.7-0.3-1.2
				c-0.3-0.9-1.1-1.4-2-1.4H748.6z M592.6,94c-0.6-0.4-1.3-0.6-2.3-0.3l-1.2,0.5l-0.3,0.5c-1.1,1.9-2.4,3.9-3.8,5.9
				c-1.3,1.9-2.8,3.6-4.5,5.1c-1.6,1.4-3.4,2.7-5.3,3.6c-3.9,1.9-9.5,1.7-13.1-0.4c-2-1.2-3.8-2.8-5.3-4.7c-1.5-2.1-2.8-4.4-3.8-7
				c-1-2.7-1.8-5.5-2.4-8.2c-0.6-2.8-1.1-5.7-1.3-8.4c-0.2-2.8-0.3-5.3-0.3-7.5c0-0.9,0.2-1.3,0.3-1.6c0.2-0.4,0.5-0.6,0.7-0.7
				c0.4-0.2,0.9-0.3,1.5-0.4c0.8-0.1,1.5-0.1,2.2-0.1h0.4l1.3-0.7l0.3-0.5c0.2-0.4,0.3-0.8,0.3-1.2c0-0.3-0.1-0.7-0.2-0.9
				c-0.2-1.1-1-1.8-2.1-1.8h-20.9c-0.9,0-1.7,0.6-2,1.4c-0.2,0.4-0.2,0.8-0.2,1.2c0,1.1,0.6,2,1.7,2.4c0.4,0.1,0.9,0.2,1.4,0.2h2.1
				c0.5,0,0.8,0.1,1.1,0.2c0,0,0.2,0.1,0.3,0.4c0.1,0.2,0.3,0.7,0.6,1.7c0.6,2.7,1.1,5.3,1.7,7.9c0.6,2.6,1.2,5.2,1.9,7.7
				c0.8,2.5,1.7,5,2.8,7.4c1.1,2.5,2.5,4.9,4.2,7.3c1.2,1.7,2.4,3.3,3.9,4.8c1.5,1.5,3.1,2.9,4.7,4c1.7,1.1,3.6,2.1,5.6,2.8
				c2,0.7,4.2,1,6.4,1c3,0,5.8-0.6,8.2-1.8c2.4-1.1,4.7-2.6,6.7-4.4c2-1.8,3.8-3.9,5.3-6.1c1.5-2.2,2.9-4.4,4.1-6.6l0.2-0.6
				C593.8,95.2,593.4,94.3,592.6,94L592.6,94z"/>
			<g>
				<path class="st1" d="M203.5,172.7l11.2-25.6h4.1l11.2,25.6h-4.7l-2.6-6.1h-12l-2.6,6.1H203.5z M212.3,162.6h8.7l-4.4-10.2
					L212.3,162.6z"/>
				<path class="st1" d="M244.7,173.7v-2.8c-3.9,0-7-1-9.3-3.1c-2.3-2.1-3.4-4.7-3.4-8c0-3.3,1.1-5.9,3.4-8c2.3-2,5.4-3,9.3-3v-2.4
					h4.4v2.4c3.9,0,7,1,9.3,3c2.3,2,3.4,4.7,3.4,8c0,3.3-1.1,6-3.4,8c-2.3,2.1-5.4,3.1-9.3,3.1v2.8H244.7z M244.7,167v-14.2
					c-2.5,0-4.5,0.6-5.9,1.9c-1.5,1.3-2.2,3-2.2,5.2c0,2.2,0.7,4,2.2,5.2C240.2,166.3,242.2,167,244.7,167z M249.2,167
					c2.5,0,4.5-0.6,6-1.9c1.4-1.2,2.2-3,2.2-5.2c0-2.2-0.7-3.9-2.2-5.2c-1.5-1.3-3.4-1.9-5.9-1.9V167z"/>
				<path class="st1" d="M266.9,172.7v-25.4h4.4v18.5l12.8-18.5h4.2v25.4h-4.4v-18.5l-12.8,18.5H266.9z"/>
				<path class="st1" d="M294.8,172.7v-25.4h4.4v21.4h10v-21.4h4.5v21.4h10v-21.4h4.4v25.4H294.8z"/>
				<path class="st1" d="M332.4,172.7l11.2-25.6h4.1l11.2,25.6h-4.7l-2.6-6.1h-12l-2.6,6.1H332.4z M341.2,162.6h8.7l-4.4-10.2
					L341.2,162.6z"/>
				<path class="st1" d="M374.1,172.7v-25.4h4.4v18.5l12.8-18.5h4.2v25.4h-4.4v-18.5l-12.8,18.5H374.1z"/>
				<path class="st1" d="M413.8,173.1c-3.7,0-6.7-1.3-9.2-3.8c-2.5-2.5-3.7-5.6-3.7-9.3c0-3.7,1.2-6.8,3.7-9.3
					c2.5-2.5,5.6-3.8,9.4-3.8c2.2,0,4.1,0.3,5.6,1c1.5,0.7,3,1.7,4.3,2.9l-2.9,3.3c-2.3-2.1-4.6-3.2-7.1-3.2c-2.4,0-4.4,0.9-6,2.6
					c-1.6,1.7-2.4,3.9-2.4,6.4c0,2.5,0.8,4.6,2.4,6.4c1.6,1.8,3.6,2.6,6,2.6c1.5,0,2.7-0.3,3.8-0.8c1.1-0.5,2.3-1.4,3.4-2.5l2.9,2.9
					c-1.4,1.5-2.9,2.6-4.5,3.4C418,172.8,416.1,173.1,413.8,173.1z"/>
				<path class="st1" d="M435,172.7v-21.2h-8v-4.1h20.6v4.1h-8v21.2H435z"/>
				<path class="st1" d="M472.1,169.3c-2.5,2.6-5.7,3.8-9.5,3.8c-3.8,0-7-1.3-9.5-3.8c-2.5-2.5-3.7-5.6-3.7-9.3
					c0-3.6,1.3-6.7,3.8-9.3c2.5-2.6,5.7-3.8,9.5-3.8c3.8,0,7,1.3,9.5,3.8c2.5,2.5,3.7,5.6,3.7,9.3
					C475.9,163.6,474.6,166.7,472.1,169.3z M456.5,166.4c1.6,1.8,3.7,2.6,6.2,2.6c2.5,0,4.5-0.9,6.1-2.6c1.6-1.7,2.4-3.9,2.4-6.4
					c0-2.5-0.8-4.6-2.4-6.4c-1.6-1.8-3.7-2.6-6.2-2.6c-2.5,0-4.5,0.9-6.1,2.6c-1.6,1.7-2.4,3.9-2.4,6.4
					C454,162.5,454.8,164.7,456.5,166.4z"/>
				<path class="st1" d="M481.3,172.7v-25.4h10c2.9,0,5.3,0.8,7,2.3c1.7,1.5,2.6,3.6,2.6,6.2c0,2.7-1,4.9-2.9,6.4
					c-1.9,1.5-4.3,2.3-7.3,2.3h-5v8.2H481.3z M485.7,160.5h5.2c1.7,0,3-0.4,4-1.3c1-0.8,1.5-2,1.5-3.3c0-1.5-0.5-2.6-1.5-3.4
					c-1-0.8-2.3-1.2-4-1.2h-5.2V160.5z"/>
				<path class="st1" d="M505.5,172.7v-25.4h4.4v18.5l12.8-18.5h4.2v25.4h-4.4v-18.5l-12.8,18.5H505.5z"/>
				<path class="st1" d="M548.3,172.7v-10c-2.7,1.4-5.1,2.1-7.2,2.1c-2.6,0-4.6-0.7-6.1-2c-1.5-1.4-2.3-3.4-2.3-6v-9.4h4.5v8.3
					c0,1.6,0.4,2.9,1.2,3.8c0.8,0.9,2,1.3,3.5,1.3c2.3,0,4.4-0.7,6.4-2v-11.3h4.5v25.4H548.3z"/>
				<path class="st1" d="M559.3,172.7v-25.4h18.8v4h-14.4v6.6h12.7v4h-12.7v6.8h14.5v4H559.3z"/>
				<path class="st1" d="M595.4,173.1c-3.7,0-6.7-1.3-9.2-3.8c-2.5-2.5-3.7-5.6-3.7-9.3c0-3.7,1.2-6.8,3.7-9.3s5.6-3.8,9.4-3.8
					c2.2,0,4.1,0.3,5.6,1c1.5,0.7,3,1.7,4.3,2.9l-2.9,3.3c-2.3-2.1-4.6-3.2-7.1-3.2c-2.4,0-4.4,0.9-6,2.6c-1.6,1.7-2.4,3.9-2.4,6.4
					c0,2.5,0.8,4.6,2.4,6.4c1.6,1.8,3.6,2.6,6,2.6c1.4,0,2.7-0.3,3.8-0.8c1.1-0.5,2.3-1.4,3.4-2.5l2.9,2.9c-1.4,1.5-2.9,2.6-4.5,3.4
					C599.6,172.8,597.6,173.1,595.4,173.1z"/>
				<path class="st1" d="M610.4,172.7v-25.4h4.5v12.8l12.1-12.8h5.5l-10.5,10.9l11,14.5h-5.4l-8.7-11.4l-4,4.1v7.4H610.4z"/>
				<path class="st1" d="M636.6,172.7v-25.4h4.4v18.5l12.8-18.5h4.2v25.4h-4.4v-18.5l-12.8,18.5H636.6z"/>
				<path class="st1" d="M662.7,172.7l9.2-12.9l-8.9-12.5h5.3l6.3,9.1l6.3-9.1h5.1l-8.8,12.4l9.2,13h-5.3l-6.7-9.6l-6.7,9.6H662.7z"
					/>
				<path class="st1" d="M701.9,172.7v-25.4h4.7l7.7,12l7.7-12h4.7v25.4h-4.5v-18.2l-8,12h-0.1l-7.9-11.9v18.1H701.9z"/>
				<path class="st1" d="M733.4,172.7v-25.4h18.8v4h-14.4v6.6h12.7v4h-12.7v6.8h14.5v4H733.4z"/>
				<path class="st1" d="M757.7,172.7v-25.4h10c2.9,0,5.3,0.8,7,2.3c1.7,1.5,2.6,3.6,2.6,6.2c0,2.7-1,4.9-2.9,6.4
					c-1.9,1.5-4.3,2.3-7.3,2.3h-5v8.2H757.7z M762.1,160.5h5.2c1.7,0,3-0.4,4-1.3c1-0.8,1.5-2,1.5-3.3c0-1.5-0.5-2.6-1.5-3.4
					c-1-0.8-2.3-1.2-4-1.2h-5.2V160.5z"/>
				<path class="st1" d="M803.5,169.3c-2.5,2.6-5.7,3.8-9.5,3.8c-3.8,0-7-1.3-9.5-3.8s-3.7-5.6-3.7-9.3c0-3.6,1.3-6.7,3.8-9.3
					c2.5-2.6,5.7-3.8,9.5-3.8c3.8,0,7,1.3,9.5,3.8c2.5,2.5,3.7,5.6,3.7,9.3C807.3,163.6,806,166.7,803.5,169.3z M787.9,166.4
					c1.6,1.8,3.7,2.6,6.2,2.6c2.5,0,4.5-0.9,6.1-2.6c1.6-1.7,2.4-3.9,2.4-6.4c0-2.5-0.8-4.6-2.4-6.4c-1.6-1.8-3.7-2.6-6.2-2.6
					c-2.5,0-4.5,0.9-6.1,2.6c-1.6,1.7-2.4,3.9-2.4,6.4C785.4,162.5,786.2,164.7,787.9,166.4z"/>
				<path class="st1" d="M812.7,172.7v-25.4h20.7v25.4h-4.5v-21.4h-11.8v21.4H812.7z"/>
				<path class="st1" d="M839.9,172.7v-25.4h10c2.9,0,5.3,0.8,7,2.3c1.7,1.5,2.6,3.6,2.6,6.2c0,2.7-1,4.9-2.9,6.4
					c-1.9,1.5-4.3,2.3-7.3,2.3h-5v8.2H839.9z M844.4,160.5h5.2c1.7,0,3-0.4,4-1.3c1-0.8,1.5-2,1.5-3.3c0-1.5-0.5-2.6-1.5-3.4
					c-1-0.8-2.3-1.2-4-1.2h-5.2V160.5z"/>
				<path class="st1" d="M864.1,172.7v-25.4h4.4v18.5l12.8-18.5h4.2v25.4h-4.4v-18.5l-12.8,18.5H864.1z"/>
				<path class="st1" d="M890.1,172.7l6.9-9.5c-1.9-0.5-3.3-1.4-4.4-2.7c-1.1-1.3-1.6-3-1.6-5c0-2.5,0.8-4.4,2.5-5.9
					c1.7-1.5,4-2.2,6.9-2.2h11.3v25.4h-4.4v-8.8h-5.6l-6.3,8.8H890.1z M900.7,160h6.6v-8.7h-6.5c-1.7,0-3,0.4-3.9,1.1
					c-0.9,0.8-1.4,1.8-1.4,3.2c0,1.3,0.5,2.4,1.4,3.2C897.9,159.7,899.1,160,900.7,160z"/>
				<path class="st1" d="M924.5,172.7v-21.2h-8v-4.1H937v4.1h-8v21.2H924.5z"/>
				<path class="st1" d="M941.7,172.7v-25.4h4.4v18.5l12.8-18.5h4.2v25.4h-4.4v-18.5l-12.8,18.5H941.7z"/>
				<path class="st1" d="M969.7,172.7v-25.4h4.4v18.5l12.8-18.5h4.2v25.4h-4.4v-18.5l-12.8,18.5H969.7z M984.3,144
					c-1,0.9-2.3,1.4-3.8,1.4c-1.5,0-2.8-0.5-3.8-1.4c-1-0.9-1.7-2.1-1.9-3.7l2.7-0.5c0.5,1.6,1.5,2.5,3,2.5c1.5,0,2.5-0.8,3-2.5
					l2.7,0.5C986,141.8,985.3,143.1,984.3,144z"/>
			</g>
		</g>
	</g>
</g>
</svg>
