<svg width="12" height="12" viewBox="0 0 12 12" fill="none" xmlns="http://www.w3.org/2000/svg">
<path fill-rule="evenodd" clip-rule="evenodd" d="M6.35355 0.646447C6.15829 0.451184 5.84171 0.451184 5.64645 0.646447L0.646447 5.64645C0.451185 5.84171 0.451185 6.15829 0.646447 6.35355L2.79289 8.5L0.146447 11.1464C-0.0488155 11.3417 -0.0488155 11.6583 0.146447 11.8536C0.341709 12.0488 0.658291 12.0488 0.853553 11.8536L3.5 9.20711L5.64645 11.3536C5.84171 11.5488 6.15829 11.5488 6.35355 11.3536L11.3536 6.35355C11.5488 6.15829 11.5488 5.84171 11.3536 5.64645L6.35355 0.646447ZM6 10.2929L3.85355 8.14645L1.70711 6L6 1.70711L10.2929 6L6 10.2929ZM5.99999 7C6.55228 7 6.99999 6.55228 6.99999 6C6.99999 5.44772 6.55228 5 5.99999 5C5.44771 5 4.99999 5.44772 4.99999 6C4.99999 6.55228 5.44771 7 5.99999 7Z" fill="white"/>
</svg>
