<svg width="12" height="13" viewBox="0 0 12 13" fill="none" xmlns="http://www.w3.org/2000/svg">
<path fill-rule="evenodd" clip-rule="evenodd" d="M5.64645 1.64645C5.84172 1.45118 6.1583 1.45118 6.35356 1.64645L9.85356 5.14645C10.0244 5.31731 10.0486 5.58593 9.9111 5.78461L6.60814 10.5556L7.07009 11.2228L7.64645 10.6464C7.84172 10.4512 8.1583 10.4512 8.35356 10.6464C8.54882 10.8417 8.54882 11.1583 8.35356 11.3536L7.35356 12.3536C7.24872 12.4584 7.10277 12.5113 6.9551 12.498C6.80744 12.4847 6.6733 12.4065 6.58891 12.2846L6.00001 11.434L5.4111 12.2846C5.32671 12.4065 5.19257 12.4847 5.04491 12.498C4.89725 12.5113 4.75129 12.4584 4.64645 12.3536L3.64645 11.3536C3.45119 11.1583 3.45119 10.8417 3.64645 10.6464C3.84172 10.4512 4.1583 10.4512 4.35356 10.6464L4.92993 11.2228L5.39188 10.5556L2.08891 5.78461C1.95137 5.58593 1.97559 5.31731 2.14645 5.14645L5.64645 1.64645ZM3.14863 5.55849L6.00001 9.67715L8.85139 5.55849L6.00001 2.70711L3.14863 5.55849ZM6 6.5C6.55229 6.5 7 6.05228 7 5.5C7 4.94772 6.55229 4.5 6 4.5C5.44772 4.5 5.00001 4.94772 5.00001 5.5C5.00001 6.05228 5.44772 6.5 6 6.5Z" fill="#1B1B1B" fill-opacity="0.56"/>
</svg>
