<svg width="11" height="11" viewBox="0 0 11 11" fill="none" xmlns="http://www.w3.org/2000/svg">
<path fill-rule="evenodd" clip-rule="evenodd" d="M4.43896 1.47486L1.4745 4.43933C0.88871 5.02511 0.88871 5.97486 1.4745 6.56065L4.43896 9.52511C5.02475 10.1109 5.9745 10.1109 6.56028 9.52511L9.52475 6.56065C10.1105 5.97486 10.1105 5.02511 9.52475 4.43933L6.56028 1.47486C5.9745 0.889076 5.02475 0.889076 4.43896 1.47486ZM0.767389 3.73222C-0.208922 4.70853 -0.208921 6.29145 0.76739 7.26776L3.73185 10.2322C4.70817 11.2085 6.29108 11.2085 7.26739 10.2322L10.2319 7.26776C11.2082 6.29144 11.2082 4.70853 10.2319 3.73222L7.26739 0.767755C6.29108 -0.208556 4.70816 -0.208555 3.73185 0.767756L0.767389 3.73222ZM5.49962 2.99999C5.77576 2.99999 5.99962 3.22385 5.99962 3.49999V4.99999H7.49962C7.77576 4.99999 7.99962 5.22385 7.99962 5.49999C7.99962 5.77613 7.77576 5.99999 7.49962 5.99999H5.99962V7.49999C5.99962 7.77613 5.77576 7.99999 5.49962 7.99999C5.22348 7.99999 4.99962 7.77613 4.99962 7.49999V5.99999H3.49962C3.22348 5.99999 2.99962 5.77613 2.99962 5.49999C2.99962 5.22385 3.22348 4.99999 3.49962 4.99999H4.99962V3.49999C4.99962 3.22385 5.22348 2.99999 5.49962 2.99999Z" fill="white"/>
</svg>
