<svg width="11" height="11" viewBox="0 0 11 11" fill="none" xmlns="http://www.w3.org/2000/svg">
<path fill-rule="evenodd" clip-rule="evenodd" d="M7 2.5C7 3.32843 6.32843 4 5.5 4C4.67158 4 4 3.32843 4 2.5C4 1.67157 4.67158 1 5.5 1C6.32843 1 7 1.67157 7 2.5ZM8 2.5C8 3.88071 6.88072 5 5.5 5C4.11929 5 3 3.88071 3 2.5C3 1.11929 4.11929 0 5.5 0C6.88072 0 8 1.11929 8 2.5ZM9.62127 7.01493L5.62127 6.01493C5.54165 5.99502 5.45836 5.99502 5.37874 6.01493L1.37874 7.01493C1.21289 7.05639 1.07972 7.17971 1.02566 7.34189L0.025662 10.3419C-0.0251627 10.4944 0.000406927 10.662 0.0943826 10.7924C0.188358 10.9227 0.339282 11 0.500004 11H10.5C10.6607 11 10.8116 10.9227 10.9056 10.7924C10.9996 10.662 11.0252 10.4944 10.9743 10.3419L9.97435 7.34189C9.92029 7.17971 9.78712 7.05639 9.62127 7.01493ZM1.19372 10L1.88755 7.9185L5.5 7.01539L9.11246 7.9185L9.80629 10H1.19372Z" fill="white"/>
</svg>
