<svg width="8" height="11" viewBox="0 0 8 11" fill="none" xmlns="http://www.w3.org/2000/svg">
<path fill-rule="evenodd" clip-rule="evenodd" d="M3.64645 0.146447C3.84172 -0.0488155 4.1583 -0.0488155 4.35356 0.146447L7.85356 3.64645C8.02443 3.81731 8.04865 4.08593 7.9111 4.28461L4.60814 9.05556L5.07009 9.72281L5.64645 9.14645C5.84172 8.95118 6.1583 8.95118 6.35356 9.14645C6.54882 9.34171 6.54882 9.65829 6.35356 9.85355L5.35356 10.8536C5.24872 10.9584 5.10277 11.0113 4.9551 10.998C4.80744 10.9847 4.6733 10.9065 4.58891 10.7846L4.00001 9.93397L3.4111 10.7846C3.32671 10.9065 3.19257 10.9847 3.04491 10.998C2.89725 11.0113 2.75129 10.9584 2.64645 10.8536L1.64645 9.85355C1.45119 9.65829 1.45119 9.34171 1.64645 9.14645C1.84172 8.95118 2.1583 8.95118 2.35356 9.14645L2.92993 9.72281L3.39188 9.05556L0.0889113 4.28461C-0.0486343 4.08593 -0.0244134 3.81731 0.146454 3.64645L3.64645 0.146447ZM1.14863 4.05849L4.00001 8.17715L6.85139 4.05849L4.00001 1.20711L1.14863 4.05849ZM4 5C4.55228 5 5 4.55228 5 4C5 3.44772 4.55228 3 4 3C3.44772 3 3 3.44772 3 4C3 4.55228 3.44772 5 4 5Z" fill="white"/>
</svg>
