<?xml version="1.0" encoding="UTF-8"?>
<svg id="Layer_1" xmlns="http://www.w3.org/2000/svg" version="1.1" viewBox="0 0 189 42" width="189" height="42">
  <!-- Generator: Adobe Illustrator 29.3.0, SVG Export Plug-In . SVG Version: 2.1.0 Build 146)  -->
  <defs>
    <style>
      .st0 {
        fill-rule: evenodd;
      }

      .st0, .st1 {
        fill: #fff;
      }
    </style>
  </defs>
  <g id="Logo">
    <g id="Logo_History">
      <g id="Glyph">
        <path id="Union" class="st0" d="M16.1,15.4l4.4-4.4-4.4-4.4-4.4,4.4,4.4,4.4ZM10.3,10.3c-.4.4-.4,1,0,1.4l5.1,5.1c.4.4,1,.4,1.4,0l5.1-5.1c.4-.4.4-1,0-1.4l-5.1-5.1c-.4-.4-1-.4-1.4,0,0,0-5.1,5.1-5.1,5.1ZM16.1,35.4l4.4-4.4-4.4-4.4-4.4,4.4,4.4,4.4ZM10.3,30.3c-.4.4-.4,1,0,1.4l5.1,5.1c.4.4,1,.4,1.4,0l5.1-5.1c.4-.4.4-1,0-1.4l-5.1-5.1c-.4-.4-1-.4-1.4,0,0,0-5.1,5.1-5.1,5.1ZM26.1,25.4l-4.4-4.4,4.4-4.4,4.4,4.4-4.4,4.4ZM25.4,15.2c.4-.4,1-.4,1.4,0l5.1,5.1c.4.4.4,1,0,1.4l-5.1,5.1c-.4.4-1,.4-1.4,0l-5.1-5.1c-.4-.4-.4-1,0-1.4,0,0,5.1-5.1,5.1-5.1ZM1.6,21l4.4,4.4,4.4-4.4-4.4-4.4s-4.4,4.4-4.4,4.4ZM6.7,15.2c-.4-.4-1-.4-1.4,0L.3,20.3c-.4.4-.4,1,0,1.4l5.1,5.1c.4.4,1,.4,1.4,0l5.1-5.1c.4-.4.4-1,0-1.4l-5.1-5.1h0ZM15.6,19.5c.3.3.7.3,1,0l8.3-8.3c.3-.3.7-.3,1,0s.3.7,0,1l-8.3,8.3c-.3.3-.3.7,0,1l8.3,8.3c.3.3.3.7,0,1s-.7.3-1,0l-8.3-8.3c-.3-.3-.7-.3-1,0l-8.3,8.3c-.3.3-.7.3-1,0s-.3-.7,0-1l8.3-8.3c.3-.3.3-.7,0-1L6.3,12.2c-.3-.3-.3-.7,0-1s.7-.3,1,0l8.3,8.3ZM17.3,31c0,.6-.5,1.2-1.2,1.2s-1.2-.5-1.2-1.2.5-1.2,1.2-1.2,1.2.5,1.2,1.2ZM26.1,22.2c.6,0,1.2-.5,1.2-1.2s-.5-1.2-1.2-1.2-1.2.5-1.2,1.2.5,1.2,1.2,1.2ZM17.3,11c0,.6-.5,1.2-1.2,1.2s-1.2-.5-1.2-1.2.5-1.2,1.2-1.2,1.2.5,1.2,1.2ZM6.1,22.2c.6,0,1.2-.5,1.2-1.2s-.5-1.2-1.2-1.2-1.2.5-1.2,1.2.5,1.2,1.2,1.2Z"/>
      </g>
      <g>
        <path id="Vector_2" class="st1" d="M62.2,24.4v.4c0,.2,0,.4,0,.7,0,.3,0,.6-.2.9,0,.3,0,.6-.2.9s0,.5-.2.7v.3c-.2.2-.3.2-.5.2s-.3,0-.4-.2c0,0,0-.2,0-.4v-1c0-.2,0-.5,0-.7,0-.2-.2-.3-.3-.4s-.3-.2-.5-.2h-9.3c-.3,0-.5,0-.6.2-.2.2-.2.3-.3.6,0,.2,0,.5,0,.8v.8c0,.2-.2.4-.4.4s0,0,0,0c-.2,0-.4,0-.4-.2h0v-.3c0-.2,0-.4-.2-.7,0-.3,0-.6-.2-.9,0-.3,0-.6-.2-.9,0-.3,0-.5,0-.7v-.4c0-.2,0-.3.3-.4h.2c.2,0,.4,0,.5.2,0,0,0,.2,0,.3v.2h.7v-7h0c0-.1,0-.1-.2-.1h-.6c-.2,0-.3-.2-.3-.4v-.2c0-.2.2-.2.4-.2h3.7s.2,0,.3.2c0,0,0,.2,0,.3,0,.2,0,.5-.5.5h-.4c0,0-.2,0-.3.1v7h.2c0,.1.2.1.3.1h6.5s0,0,.2-.1v-7c0,0-.2-.1-.3-.1h-.4c-.4,0-.5-.3-.5-.5v-.2c0-.2.2-.2.4-.2h3.7c.2,0,.3,0,.4.2v.2c0,.2,0,.4-.5.5h-.4c0,0-.2,0-.3.1v6.9s0,.1.2.1h.4v-.2c0-.1,0-.2,0-.3,0-.2.4-.3.6-.2,0,0,.2.2.2.4h-.2ZM97.5,17.5s.2-.1.3-.1h.4c.4,0,.5-.3.5-.5v-.2c0-.2-.2-.3-.4-.3h-3.8c-.2,0-.3.1-.4.3v.2c0,.2,0,.4.3.5h.9v7s-.2.1-.3.1h-.4c-.4,0-.5.3-.5.5v.2c0,.2.2.2.4.2h3.8c.2,0,.3,0,.4-.2v-.2c0-.2,0-.5-.5-.5h-.4c0,0-.2,0-.3-.1v-7h0ZM48,9.3v-.3c0-.2.2-.4.2-.7s0-.6.2-.9c0-.3,0-.6.2-.9,0-.3,0-.5.2-.7v-.4c0-.2,0-.3-.3-.4-.3,0-.5,0-.6.2,0,0,0,.2,0,.3v.2h-9.4c-.2,0-.3,0-.4.2v.2c0,.2,0,.5.5.5h.4c0,0,.2,0,.3,0v7s-.2.1-.3.1h-.4c-.4,0-.5.3-.5.5v.2c0,.2.2.3.4.3h3.8c.2,0,.3-.1.4-.3v-.2c0-.2-.2-.4-.3-.4h-1s0,0-.2-.1v-6.9s0,0,.2,0h4.7c.2,0,.4,0,.5.2.2,0,.2.3.3.4,0,.2,0,.4,0,.7v1c0,.1,0,.2,0,.3.3.2.8.2,1,0ZM75.7,22l-.4-.2h-.4v.5h0v.8c0,.3,0,.5-.2.8,0,.2-.2.4-.4.6,0,.1-.3.2-.6.2h-6.3v-7c0,0,.3-.2.4-.2h.6c.6,0,.9,0,1.3.2.2,0,.4.2.6.4.2.2.3.3.4.6s.2.4.2.7h0v.2h.2c0,.1.3.3.6.1,0,0,.2-.2.2-.3h0v-.2c-.2-.7-.3-1.4-.3-2.1v-.2l-.3-.3h-7c-.2,0-.3.1-.4.3v.2c0,.2,0,.4.5.5h.4c0,0,.2,0,.3.1v7s-.2.1-.3.1h-.4c-.4,0-.5.3-.5.5v.2c0,.2.2.2.4.2h10.8v.4c.2.2.4.2.6.2h.2c.2,0,.3-.3.2-.5l-.7-3.8h.3ZM159.2,13.9h-.1c0,.1-.1.1-.2.1h-.6c-.2,0-.3.2-.3.4v.2c0,.2.2.2.4.2h3.8s.2,0,.4-.2v-.3c0-.2-.1-.4-.3-.4h-.9v-7.1s.2,0,.3,0h.5c.4,0,.5-.3.5-.5v-.2c0-.2-.2-.3-.4-.3h-3.8c-.2,0-.3,0-.4.3v.2c0,.2.2.5.5.5h.4c.1,0,.2,0,.3,0v7h0ZM97.5,7s.2,0,.3,0h.4c.4,0,.5-.3.5-.5v-.2c0-.2-.2-.3-.4-.3h-1.8c-.2,0-.4,0-.6,0s-.3.2-.4.4l-4,7.2c0,.2-.2.3-.2.3,0,0-.2,0-.2.1h-.3c-.2,0-.3,0-.5.1s-.3.2-.3.5,0,.2,0,.2c0,.2.2.2.4.2h2.8s.2,0,.4-.2v-.3c0-.2,0-.4-.4-.5h-.5s0-.1.2-.5c.2-.3.3-.7.6-1.1.2-.4.5-.9.7-1.4.3-.5.5-1,.8-1.4.2-.3.3-.6.5-.8v5.1s-.2.1-.3.1h-.4c-.4,0-.5.3-.5.5v.2c0,.2.2.2.4.2h3.8c.2,0,.3,0,.4-.2v-.2c0-.2,0-.5-.5-.5h-.4c0,0-.2,0-.3-.1v-7h-.2ZM85.9,13.9h0c0,.1,0,.1-.2.1h-.6c-.2,0-.3.2-.3.4v.2c0,.2.2.2.4.2h3.8s.2,0,.4-.2v-.3c0-.2,0-.4-.3-.4h-.9v-7.1s.2,0,.3,0h.5c.4,0,.5-.3.5-.5v-.2c0-.2-.2-.3-.4-.3h-3.8c-.2,0-.3,0-.4.3v.2c0,.2.2.5.5.5h.4c0,0,.2,0,.3,0v7h0ZM177.6,12.7c-.3-.6-.4-1.4-.4-2.2v-1.1c0-.4.2-.7.3-1s.3-.6.6-.9.6-.5,1-.7c.6-.3,1.2-.5,1.9-.6.6,0,1.3-.2,2-.2h5.6c.2,0,.3,0,.4.3v.2c0,.2-.1.5-.5.5h-.4c-.1,0-.2,0-.3,0v7h.9c.2,0,.3.2.3.4v.2c0,.2-.2.2-.4.2h-5.8c-.7,0-1.5,0-2.1-.2-.7-.2-1.3-.4-1.8-.8-.5-.3-.9-.8-1.3-1.4h0v.2ZM184.8,6.8h-1.9c-.7,0-1.4,0-1.9.2-.5,0-.9.3-1.1.6-.3.2-.5.6-.6,1.1s-.2,1.1-.2,1.9,0,1.3.2,1.8c.1.4.3.8.6,1.1s.6.5,1.1.6,1.1.2,1.8.2h2.7s.1,0,.2-.1v-7s0,0-.2,0h-.7v-.3ZM48.3,14.1c-.3.1-.4.3-.4.5v.2c0,.2.2.2.4.2h3.8c.2,0,.3,0,.4-.2v-.3c0-.2,0-.4-.5-.5h-.4c0,0-.2,0-.3-.1v-1.5c0-.4,0-.9.2-1.3,0-.4.2-.9.4-1.3,0-.4.3-.8.5-1.1.2-.5.5-.8.9-1.1.4-.3.8-.5,1.2-.6s.9-.2,1.4-.2h1.5c.5,0,.3,0,.4,0h.3s0,0,.2,0v6.7q0,.3,0,.4c0,0-.3.1-.5.1h-.2c-.2,0-.4.2-.4.5s0,.1,0,.2c0,.2.2.2.4.2h3.7c.2,0,.3,0,.4-.2v-.2c0-.2,0-.4-.3-.4h-.8c-.1,0,0,0,0,0v-7s.2,0,.3,0h.4c.4,0,.5-.3.5-.5v-.2c0-.2-.2-.3-.4-.3h-4.8c-1.3,0-2.3.2-3.1.6s-1.5,1-2.1,1.7c-.5.7-.9,1.5-1.2,2.5-.3.9-.5,1.9-.7,2.9,0,0,0,.2,0,.2s-.2.2-.4.2c0,0-.2,0-.3.1h0l-.2-.2ZM41.1,17.5h0c0-.1.2-.1.2-.1h.6c.2,0,.3-.2.3-.5s0-.2,0-.2c0-.2-.2-.3-.4-.3h-3.8c-.2,0-.3.1-.4.2v.2c0,.3.2.5.5.5h.4c0,0,.2,0,.3.1v7s-.2.1-.3.1h-.4c-.4,0-.5.3-.5.5v.2c0,.2.2.3.4.3h3.8c.2,0,.3,0,.4-.2v-.2c0-.2-.2-.4-.3-.4h-1s0,0,0-.1v-7h.2ZM65.4,13.9s-.2.1-.3.1h-.4c-.3,0-.5.3-.5.5v.2c0,.2.2.2.4.2h7l.3-.3v-1.3c0-.4,0-.7.2-1.1h0v-.4h-.4c0,0-.3,0-.5.3,0,.1,0,.2-.2.4,0,.2-.2.3-.2.5s-.2.3-.3.5c0,.1-.2.2-.4.3,0,0-.3.1-.5.1h-1.9s0,0-.2-.1v-7s0,0,.2,0h5.4c.2,0,.4,0,.5.2,0,0,.2.3.3.5s0,.5,0,.7v1.5c0,.2.2.3.4.3s0,0,.2,0c.2,0,.2-.2.3-.3l.8-4.1v-.2h-.2s-.2,0-.3,0-.3,0-.4.3v.2c0,.2,0,.3-.2.4h-10c-.2,0-.3,0-.4.3v.2c0,.2,0,.4.5.5h.4c0,0,.2,0,.3,0v6.9h0v-.2ZM93.1,16.3h-2.8c-.2,0-.3.1-.4.3v.2h0l.2.5h.7s0,.1-.2.5c-.2.3-.3.7-.6,1.1-.2.4-.5.9-.7,1.4-.3.5-.5,1-.8,1.4-.2.3-.3.6-.5.8v-5.1s.2-.1.3-.1h.5c.4,0,.5-.3.5-.5v-.2c0-.2-.2-.3-.4-.3h-3.8c-.2,0-.3.1-.4.3v.2c0,.2.2.5.5.5h.4c0,0,.2,0,.3.1v7s-.2.1-.3.1h-.4c-.4,0-.5.3-.5.5v.2c0,.2.2.2.4.2h1.8c.2,0,.4,0,.6-.1.2,0,.3-.2.4-.4l4-7.2c0-.2.2-.2.2-.3,0,0,0,0,.2-.1h.3c.2,0,.3,0,.5-.1,0,0,.2,0,.2-.2,0,0,0-.2,0-.3v-.2c0-.2-.2-.2-.3-.2h0ZM172,17.5s.2-.1.3-.1h.4c.4,0,.5-.3.5-.5v-.2c0-.2-.2-.3-.4-.3h-3.8c-.2,0-.3.1-.4.3v.2c0,.2.1.4.3.5h.9v7s-.2.1-.3.1h-.4c-.4,0-.5.3-.5.5v.2c0,.2.2.2.4.2h3.8c.2,0,.3,0,.4-.2v-.2c0-.2-.1-.5-.5-.5h-.4c-.1,0-.2,0-.3-.1v-7h0ZM166.3,16.3h-2.8c-.2,0-.3.1-.4.3v.2h0l.2.5h.7s0,.1-.2.5c-.2.3-.3.7-.6,1.1s-.5.9-.7,1.4c-.3.5-.5,1-.8,1.4-.2.3-.3.6-.5.8v-5.1s.2-.1.3-.1h.5c.4,0,.5-.3.5-.6s0-.2,0-.2c0-.2-.2-.3-.4-.3h-3.8c-.2,0-.3.1-.4.3v.2c0,.2.2.5.5.5h.4c.1,0,.2,0,.3.1v7s-.2.1-.3.1h-.4c-.4,0-.5.3-.5.5v.2c0,.2.2.2.4.2h1.8c.2,0,.4,0,.6-.1.2,0,.3-.2.4-.4l4-7.2c.1-.2.2-.2.2-.3,0,0,.1,0,.2-.1h.3c.2,0,.3,0,.5-.1,0,0,.2,0,.2-.2,0,0,.1-.2.1-.3v-.2c0-.1-.2-.2-.4-.2h0ZM155.8,8.7c.2.6.3,1.1.3,1.7s-.1,1.2-.3,1.8-.5,1-.9,1.5c-.4.4-.8.8-1.4,1s-1.1.4-1.8.4h-7.1c-.2,0-.3,0-.4-.2v-.2c0-.2.1-.4.3-.4h.9v-7.1c-.1,0-.2,0-.3,0h-.4c-.3,0-.5-.3-.5-.5v-.2c0-.2.2-.3.4-.3h7.1c.6,0,1.2,0,1.8.4.5.2,1,.6,1.4,1s.7.9.9,1.5h0v-.3ZM148.1,14.1h3.7c.5,0,.9-.1,1.2-.3s.6-.5.7-.8c.2-.3.3-.7.3-1.2v-2.8c0-.4-.2-.8-.3-1.2-.2-.3-.4-.6-.7-.8-.3-.2-.7-.3-1.2-.3h-4q-.1,0-.2,0v7h.2c.2.2.2.1.3.1h0v.2ZM187.8,17.5s.2-.1.3-.1h.4c.4,0,.5-.3.5-.5v-.2c0-.2-.2-.3-.4-.3h-7.6c-.2,0-.3.1-.4.3v.2c0,.1,0,.4.5.5h.5c.1,0,.3,0,.4.1,0,0,0,.2-.2.3-.2.3-.4.6-.7,1s-.6.8-1,1.3c-.3.5-.7.9-1,1.3l-.8,1.1c-.2.3-.4.6-.5.6-.3.4-.7.8-1.2,1.1-.4.2-.9.4-1.5.4s-.2,0-.3.2v.6c0,.2.2.2.4.2h.9c.3,0,.6,0,.8-.2.3,0,.5-.2.8-.4s.5-.4.7-.7l4.7-6.4c.1-.2.3-.3.5-.5.3-.2.6-.2,1.2-.2h.6c.2,0,.3,0,.4.2,0,0,.1,0,.1.3v6.6h-.1c0,.1-.2.1-.2.1h-.7c-.2,0-.3.2-.3.4v.2c0,.2.2.2.4.2h3.7s.2,0,.3-.2c0,0,.1-.2.1-.3,0-.2-.1-.5-.5-.5h-.4q-.2,0-.3-.1v-6.9h0v.3ZM147.6,17.5s.2-.1.3-.1h.4c.4,0,.5-.3.5-.5v-.2c0-.2-.2-.3-.4-.3h-3.7c-.2,0-.3.1-.4.3v.2c0,.2.1.4.5.5h.4c.1,0,.2,0,.3.1v7s-.2.1-.3.1h-.4c-.4,0-.5.3-.5.5v.2c0,.2.2.2.4.2h3.7c.2,0,.3,0,.4-.2v-.2c0-.2-.1-.5-.5-.5h-.4c-.1,0-.2,0-.3-.1v-7h0ZM172,7s.2,0,.3,0h.4c.4,0,.5-.3.5-.5v-.2c0-.2-.2-.3-.4-.3h-1.8c-.2,0-.4,0-.6,0s-.3.2-.4.4l-4,7.2c-.1.2-.2.3-.2.3,0,0-.2,0-.2.1h-.3c-.2,0-.3,0-.5.1s-.3.2-.3.5,0,.1,0,.2c0,.2.2.2.4.2h2.8s.2,0,.4-.2v-.3c0-.2-.1-.4-.4-.5h-.5s0-.1.2-.5c.2-.3.3-.7.6-1.1s.5-.9.7-1.4c.3-.5.5-1,.8-1.4.2-.3.3-.6.5-.8v5.1s-.2.1-.3.1h-.4c-.4,0-.5.3-.5.5v.2c0,.2.2.2.4.2h3.8c.2,0,.3,0,.4-.2v-.2c0-.2-.1-.5-.5-.5h-.4c-.1,0-.2,0-.3-.1v-7h-.2ZM127.4,5h-.2c-.2,0-.4,0-.4.3v.2s0,0,0,.2h-12s0-.2-.2-.3v-.2h-.4c0,0,0,0,0,0h-.2c-.2,0-.3.3-.2.5l.8,4c0,.2,0,.2.2.3h0c.3,0,.7,0,.7-.4v-1.8c0-.3.2-.5.3-.6,0-.2.3-.2.6-.2h3.2s0,0,.2,0v7s-.2.1-.3.1h-.4c-.3,0-.5.3-.5.5s0,.2,0,.3c0,.2.3.2.3.2h3.7s.2,0,.4-.2v-.3c0-.2,0-.4-.3-.4h-.9v-7s0,0,.2,0h3.2c.2,0,.4,0,.5.2,0,0,.2.3.3.5,0,.2,0,.5,0,.7v1.2h0v.3l.4.3h0c.2,0,.2-.1.3-.2,0,0,0-.2,0-.2l.8-4v-.3c0-.1-.2-.2-.3-.2h0v-.4ZM122.7,24.7h-.8q-.2,0-.2,0s0,0-.2-.1v-7c0,0,.2-.1.3-.1h.4c.4,0,.5-.3.5-.5v-.3c0-.2-.3-.2-.4-.2h-3.7c-.2,0-.3.1-.4.2v.2c0,.2,0,.4.5.5h.4c0,0,.2,0,.3.1v7s-.2.1-.3.1h-.4c-.4,0-.5.3-.5.5s0,.2,0,.3c0,.2.3.2.3.2h3.9c.2,0,.3,0,.4-.2v-.2c0-.2-.2-.4-.3-.4h0ZM142.2,14.1h-1.1s0-.1-.1-.3c0-.5-.2-1-.3-1.6s-.3-1.2-.5-1.8-.5-1.2-.8-1.8c-.3-.6-.7-1.1-1.1-1.5-.4-.5-.9-.8-1.4-1.1-1.1-.6-2.6-.6-3.7,0-.5.3-1,.6-1.4,1.1-.4.4-.8,1-1.1,1.5-.3.6-.6,1.1-.8,1.8-.2.6-.4,1.2-.5,1.8s-.2,1.1-.3,1.6c0,.2,0,.3-.1.3h-.1c0,.1-.1.1-.2.1h-.6c-.2,0-.3.2-.3.5s0,.2,0,.2c0,.2.2.2.4.2h4c.2,0,.3-.1.4-.3h0v-.3c0-.2-.2-.4-.6-.4s-.3,0-.4,0-.2,0-.3-.1v-1.8c0-.5.1-1,.2-1.6.1-.5.3-1.1.5-1.6s.4-1,.7-1.4.6-.7,1-.9c.7-.4,1.8-.5,2.5,0,.4.2.7.6,1,.9.3.4.5.8.7,1.4s.4,1,.5,1.6c.1.5.2,1.1.3,1.6v1.4c0,.4,0,.3-.2.4,0,0-.2.1-.4.1h-.2c-.1,0-.2,0-.3.1,0,0-.2.2-.2.4v.2h0c0,.2.2.3.4.3h4c.2,0,.3,0,.4-.2v-.2c0-.3,0-.4-.2-.5h.2ZM112.6,5.7v3.6c0,.2,0,.3-.3.4h-.5c0,0-.2,0-.2-.1,0-.2-.2-.3-.3-.5,0-.2-.2-.3-.2-.4-.2-.3-.4-.6-.6-.8-.2-.3-.5-.5-.8-.7s-.6-.4-.9-.5-.6-.2-1-.2-.9,0-1.3.3c-.4.2-.7.5-1,.9s-.5.8-.7,1.4-.4,1-.5,1.6-.2,1.1-.2,1.6v1.4c0,.4,0,.3,0,.3h0c0,.1.2.1.3.1h.8v.5l-.3.5h-4.2c-.2,0-.3,0-.4-.2v-.2c0-.3.2-.4.3-.5h.9s0-.1,0-.3c0-.5.2-1,.3-1.6s.3-1.2.5-1.8.5-1.2.8-1.8.7-1.1,1.1-1.5c.4-.5.9-.8,1.4-1.1.5-.3,1.2-.4,1.8-.4s.8,0,1.2.2c.3,0,.6.3.9.4l.7.4c.2,0,.3.2.5.2h.2c0,0,0-.2,0-.4v-.5c0-.5.5-.6.8-.5,0,0,.2.2.2.4h0l.4-.2ZM142,16.3h-4c-.2,0-.3,0-.4.2v.3c0,.2.1.4.3.4h.9v1.8c0,.5-.1,1-.2,1.6-.1.5-.3,1.1-.5,1.6s-.4,1-.7,1.3-.6.7-1,.9c-.7.4-1.9.4-2.6,0-.4-.2-.7-.5-1-.9s-.5-.8-.7-1.3-.3-1-.5-1.6c-.1-.6-.2-1.1-.2-1.6v-1.4c0-.4,0-.3.1-.4.1,0,.3-.1.5-.1h.2c.3,0,.5-.2.5-.5v-.3c-.1-.2-.3-.2-.4-.2h-4c-.2,0-.3.1-.4.3v.2c0,.2,0,.4.3.5h.9s0,.1.1.3c.1.5.2,1,.4,1.6s.3,1.2.5,1.8.5,1.2.7,1.7c.3.6.6,1.1,1,1.5s.9.8,1.4,1.1c.6.3,1.2.4,1.9.4s1.3-.2,1.9-.4c.5-.3,1-.6,1.4-1.1.4-.4.8-1,1.1-1.5.3-.6.5-1.1.7-1.8.2-.6.4-1.2.5-1.8.1-.6.2-1.1.3-1.6,0-.2.1-.3.1-.4h.3c.3,0,0,0,.1,0h.6c.2,0,.2-.2.2-.4v-.2c0-.2-.2-.3-.4-.3h0v.3ZM112.3,21.9c0,0-.2-.1-.4,0h-.2v.2c-.2.4-.5.7-.7,1.1s-.5.7-.9,1c-.3.3-.6.5-1,.7-.7.4-1.8.3-2.5,0-.4-.2-.7-.5-1-.9s-.5-.8-.7-1.3-.3-1-.5-1.6c0-.5-.2-1.1-.2-1.6v-1.4c0-.4,0-.2,0-.3,0,0,0-.1,0-.1h1v-.6c0-.2-.2-.3-.4-.3h-4c-.2,0-.3.1-.4.3v.2c0,.2,0,.4.3.5h.9s0,.1,0,.3c0,.5.2,1,.3,1.5,0,.5.2,1,.4,1.5.2.5.3,1,.5,1.4.2.5.5.9.8,1.4.2.3.5.6.7.9s.6.6.9.8c.3.2.7.4,1.1.5s.8.2,1.2.2,1.1-.1,1.6-.3c.5-.2.9-.5,1.3-.8s.7-.7,1-1.2.6-.8.8-1.3h0c0-.3,0-.5-.2-.5h0v-.3Z"/>
        <g>
          <path class="st1" d="M38,36.9l2.1-4.9h.8l2.1,4.9h-.9l-.5-1.2h-2.3l-.5,1.2h-.9.1ZM39.7,35h1.7l-.8-1.9-.8,1.9h-.1Z"/>
          <path class="st1" d="M45.9,37.1v-.5c-.7,0-1.3-.2-1.8-.6s-.6-.9-.6-1.5.2-1.1.6-1.5c.4-.4,1-.6,1.8-.6v-.5h.8v.5c.7,0,1.3.2,1.8.6.4.4.6.9.6,1.5s-.2,1.1-.6,1.5c-.4.4-1,.6-1.8.6v.5h-.8ZM45.9,35.8v-2.7c-.5,0-.9,0-1.1.4-.3.2-.4.6-.4,1s0,.8.4,1c.3.2.6.4,1.1.4h0ZM46.7,35.8c.5,0,.9,0,1.1-.4.3-.2.4-.6.4-1s0-.7-.4-1c-.3-.2-.6-.4-1.1-.4v2.7h0Z"/>
          <path class="st1" d="M50.1,36.9v-4.8h.8v3.5l2.4-3.5h.8v4.8h-.8v-3.5l-2.4,3.5h-.8Z"/>
          <path class="st1" d="M55.4,36.9v-4.8h.8v4.1h1.9v-4.1h.9v4.1h1.9v-4.1h.8v4.8h-6.4,0Z"/>
          <path class="st1" d="M62.6,36.9l2.1-4.9h.8l2.1,4.9h-.9l-.5-1.2h-2.3l-.5,1.2h-.9.1ZM64.3,35h1.7l-.8-1.9-.8,1.9h0Z"/>
          <path class="st1" d="M70.6,36.9v-4.8h.8v3.5l2.4-3.5h.8v4.8h-.8v-3.5l-2.4,3.5h-.8Z"/>
          <path class="st1" d="M78.1,37c-.7,0-1.3-.2-1.8-.7s-.7-1.1-.7-1.8.2-1.3.7-1.8,1.1-.7,1.8-.7.8,0,1.1.2.6.3.8.6l-.6.6c-.4-.4-.9-.6-1.4-.6s-.8.2-1.1.5c-.3.3-.5.7-.5,1.2s.2.9.5,1.2.7.5,1.1.5.5,0,.7-.2c.2,0,.4-.3.6-.5l.6.6c-.3.3-.6.5-.9.6-.3.2-.6.2-1.1.2h.2Z"/>
          <path class="st1" d="M82.2,36.9v-4h-1.5v-.8h3.9v.8h-1.5v4h-.9Z"/>
          <path class="st1" d="M89.3,36.2c-.5.5-1.1.7-1.8.7s-1.3-.2-1.8-.7-.7-1.1-.7-1.8.2-1.3.7-1.8,1.1-.7,1.8-.7,1.3.2,1.8.7.7,1.1.7,1.8-.2,1.3-.7,1.8ZM86.3,35.7c.3.3.7.5,1.2.5s.9-.2,1.2-.5c.3-.3.5-.7.5-1.2s-.2-.9-.5-1.2-.7-.5-1.2-.5-.9.2-1.2.5c-.3.3-.5.7-.5,1.2s0,.9.5,1.2Z"/>
          <path class="st1" d="M91,36.9v-4.8h1.9c.6,0,1,.2,1.3.4s.5.7.5,1.2-.2.9-.6,1.2-.8.4-1.4.4h-1v1.6h-.8,0ZM91.9,34.6h1c.3,0,.6,0,.8-.2.2-.2.3-.4.3-.6s0-.5-.3-.6c-.2-.2-.4-.2-.8-.2h-1v1.8-.2Z"/>
          <path class="st1" d="M95.6,36.9v-4.8h.8v3.5l2.4-3.5h.8v4.8h-.8v-3.5l-2.4,3.5h-.8Z"/>
          <path class="st1" d="M103.8,36.9v-1.9c-.5.3-1,.4-1.4.4s-.9,0-1.2-.4c-.3-.3-.4-.6-.4-1.1v-1.8h.9v1.6c0,.3,0,.6.2.7.2.2.4.2.7.2s.8,0,1.2-.4v-2.2h.9v4.8h-.9,0Z"/>
          <path class="st1" d="M105.9,36.9v-4.8h3.6v.8h-2.7v1.3h2.4v.8h-2.4v1.3h2.8v.8h-3.6v-.2Z"/>
          <path class="st1" d="M112.8,37c-.7,0-1.3-.2-1.8-.7s-.7-1.1-.7-1.8.2-1.3.7-1.8,1.1-.7,1.8-.7.8,0,1.1.2.6.3.8.6l-.6.6c-.4-.4-.9-.6-1.4-.6s-.8.2-1.1.5c-.3.3-.5.7-.5,1.2s.2.9.5,1.2.7.5,1.1.5.5,0,.7-.2.4-.3.6-.5l.6.6c-.3.3-.6.5-.9.6-.3.2-.7.2-1.1.2h.2Z"/>
          <path class="st1" d="M115.7,36.9v-4.8h.9v2.4l2.3-2.4h1l-2,2.1,2.1,2.8h-1l-1.7-2.2-.8.8v1.4h-.9,0Z"/>
          <path class="st1" d="M120.7,36.9v-4.8h.8v3.5l2.4-3.5h.8v4.8h-.8v-3.5l-2.4,3.5h-.8Z"/>
          <path class="st1" d="M125.7,36.9l1.8-2.5-1.7-2.4h1l1.2,1.7,1.2-1.7h1l-1.7,2.4,1.8,2.5h-1l-1.3-1.8-1.3,1.8h-1Z"/>
          <path class="st1" d="M133.1,36.9v-4.8h.9l1.5,2.3,1.5-2.3h.9v4.8h-.9v-3.5l-1.5,2.3h0l-1.5-2.3v3.5h-.9Z"/>
          <path class="st1" d="M139.1,36.9v-4.8h3.6v.8h-2.7v1.3h2.4v.8h-2.4v1.3h2.8v.8h-3.6v-.2Z"/>
          <path class="st1" d="M143.8,36.9v-4.8h1.9c.6,0,1,.2,1.3.4s.5.7.5,1.2-.2.9-.6,1.2-.8.4-1.4.4h-1v1.6h-.8.1ZM144.6,34.6h1c.3,0,.6,0,.8-.2s.3-.4.3-.6,0-.5-.3-.6c-.2-.2-.4-.2-.8-.2h-1v1.8-.2Z"/>
          <path class="st1" d="M152.5,36.2c-.5.5-1.1.7-1.8.7s-1.3-.2-1.8-.7-.7-1.1-.7-1.8.2-1.3.7-1.8,1.1-.7,1.8-.7,1.3.2,1.8.7.7,1.1.7,1.8-.2,1.3-.7,1.8ZM149.5,35.7c.3.3.7.5,1.2.5s.9-.2,1.2-.5.5-.7.5-1.2-.2-.9-.5-1.2-.7-.5-1.2-.5-.9.2-1.2.5-.5.7-.5,1.2.1.9.5,1.2Z"/>
          <path class="st1" d="M154.3,36.9v-4.8h4v4.8h-.9v-4.1h-2.3v4.1h-.8Z"/>
          <path class="st1" d="M159.5,36.9v-4.8h1.9c.6,0,1,.2,1.3.4s.5.7.5,1.2-.2.9-.6,1.2-.8.4-1.4.4h-1v1.6h-.8.1ZM160.3,34.6h1c.3,0,.6,0,.8-.2s.3-.4.3-.6,0-.5-.3-.6c-.2-.2-.4-.2-.8-.2h-1v1.8-.2Z"/>
          <path class="st1" d="M164.1,36.9v-4.8h.8v3.5l2.4-3.5h.8v4.8h-.8v-3.5l-2.4,3.5h-.8Z"/>
          <path class="st1" d="M169.1,36.9l1.3-1.8c-.4,0-.6-.3-.8-.5s-.3-.6-.3-1,.2-.8.5-1.1.8-.4,1.3-.4h2.2v4.8h-.8v-1.7h-1.1l-1.2,1.7h-1.1ZM171.1,34.5h1.3v-1.7h-1.2c-.3,0-.6,0-.7.2-.2.2-.3.3-.3.6s0,.5.3.6c.2.2.4.2.7.2h-.1Z"/>
          <path class="st1" d="M175.6,36.9v-4h-1.5v-.8h3.9v.8h-1.5v4h-.9Z"/>
          <path class="st1" d="M178.9,36.9v-4.8h.8v3.5l2.4-3.5h.8v4.8h-.8v-3.5l-2.4,3.5h-.8Z"/>
          <path class="st1" d="M184.2,36.9v-4.8h.8v3.5l2.4-3.5h.8v4.8h-.8v-3.5l-2.4,3.5h-.8ZM187,31.4c-.2.2-.4.3-.7.3s-.5,0-.7-.3-.3-.4-.4-.7h.5c0,.2.3.4.6.4s.5-.2.6-.5h.5c0,.4-.2.6-.4.8h0Z"/>
        </g>
      </g>
    </g>
  </g>
</svg>