
<svg width="48" height="48" viewBox="0 0 48 48" fill="none" xmlns="http://www.w3.org/2000/svg">
<path d="M1.82843 26.8284C0.26633 25.2663 0.26633 22.7337 1.82843 21.1716L21.1716 1.82843C22.7337 0.26633 25.2663 0.26633 26.8284 1.82843L46.1716 21.1716C47.7337 22.7337 47.7337 25.2663 46.1716 26.8284L26.8284 46.1716C25.2663 47.7337 22.7337 47.7337 21.1716 46.1716L1.82843 26.8284Z" fill="#9B1616"/>
<path fill-rule="evenodd" clip-rule="evenodd" d="M16.9205 15.3295C16.4812 14.8902 15.7688 14.8902 15.3295 15.3295C14.8902 15.7688 14.8902 16.4812 15.3295 16.9205L18.3295 19.9205C18.7688 20.3598 19.4812 20.3598 19.9205 19.9205C20.3598 19.4812 20.3598 18.7688 19.9205 18.3295L16.9205 15.3295ZM32.4205 30.8295C32.8598 31.2688 32.8598 31.9812 32.4205 32.4205C31.9812 32.8598 31.2688 32.8598 30.8295 32.4205L27.8295 29.4205C27.3902 28.9812 27.3902 28.2688 27.8295 27.8295C28.2688 27.3902 28.9812 27.3902 29.4205 27.8295L32.4205 30.8295ZM32.4205 15.3295C31.9812 14.8902 31.2688 14.8902 30.8295 15.3295L27.8295 18.3295C27.3902 18.7688 27.3902 19.4812 27.8295 19.9205C28.2688 20.3598 28.9812 20.3598 29.4205 19.9205L32.4205 16.9205C32.8598 16.4812 32.8598 15.7688 32.4205 15.3295ZM15.3295 30.8295C14.8902 31.2688 14.8902 31.9812 15.3295 32.4205C15.7688 32.8598 16.4812 32.8598 16.9205 32.4205L19.9205 29.4205C20.3598 28.9812 20.3598 28.2688 19.9205 27.8295C19.4812 27.3902 18.7688 27.3902 18.3295 27.8295L15.3295 30.8295ZM23.2929 21.2929C23.6834 20.9024 24.3166 20.9024 24.7071 21.2929L26.7071 23.2929C27.0976 23.6834 27.0976 24.3166 26.7071 24.7071L24.7071 26.7071C24.3166 27.0976 23.6834 27.0976 23.2929 26.7071L21.2929 24.7071C20.9024 24.3166 20.9024 23.6834 21.2929 23.2929L23.2929 21.2929Z" fill="white"/>
</svg>
