<svg width="174" height="48" viewBox="0 0 174 48" fill="none" xmlns="http://www.w3.org/2000/svg">
<rect x="0.5" width="173" height="48" rx="24" fill="#9B1616"/>
<path d="M40.7173 19.5455V29H39.5724V20.5611H34.8082V29H33.6634V19.5455H40.7173ZM45.7597 29.1477C45.1195 29.1477 44.5579 28.9954 44.0747 28.6907C43.5945 28.386 43.2191 27.9598 42.9482 27.4119C42.6805 26.8641 42.5466 26.224 42.5466 25.4915C42.5466 24.7528 42.6805 24.1081 42.9482 23.5572C43.2191 23.0063 43.5945 22.5785 44.0747 22.2738C44.5579 21.9691 45.1195 21.8168 45.7597 21.8168C46.3998 21.8168 46.96 21.9691 47.4401 22.2738C47.9233 22.5785 48.2987 23.0063 48.5665 23.5572C48.8373 24.1081 48.9727 24.7528 48.9727 25.4915C48.9727 26.224 48.8373 26.8641 48.5665 27.4119C48.2987 27.9598 47.9233 28.386 47.4401 28.6907C46.96 28.9954 46.3998 29.1477 45.7597 29.1477ZM45.7597 28.169C46.2459 28.169 46.646 28.0444 46.96 27.7951C47.2739 27.5458 47.5062 27.218 47.657 26.8118C47.8079 26.4055 47.8833 25.9654 47.8833 25.4915C47.8833 25.0175 47.8079 24.5759 47.657 24.1665C47.5062 23.7572 47.2739 23.4264 46.96 23.174C46.646 22.9216 46.2459 22.7955 45.7597 22.7955C45.2734 22.7955 44.8733 22.9216 44.5594 23.174C44.2455 23.4264 44.0131 23.7572 43.8623 24.1665C43.7115 24.5759 43.6361 25.0175 43.6361 25.4915C43.6361 25.9654 43.7115 26.4055 43.8623 26.8118C44.0131 27.218 44.2455 27.5458 44.5594 27.7951C44.8733 28.0444 45.2734 28.169 45.7597 28.169ZM50.6358 29V21.9091H51.7253V24.9929H52.4455L54.9938 21.9091H56.3972L53.535 25.3253L56.4341 29H55.0307L52.704 26.0085H51.7253V29H50.6358ZM59.7049 29.1662C59.2556 29.1662 58.8478 29.0816 58.4815 28.9123C58.1153 28.7399 57.8245 28.4922 57.609 28.169C57.3936 27.8428 57.2859 27.4489 57.2859 26.9872C57.2859 26.581 57.3659 26.2517 57.5259 25.9993C57.686 25.7438 57.8999 25.5438 58.1676 25.3991C58.4354 25.2545 58.7308 25.1468 59.054 25.076C59.3802 25.0021 59.708 24.9437 60.0373 24.9006C60.4682 24.8452 60.8175 24.8036 61.0852 24.7759C61.3561 24.7451 61.553 24.6944 61.6761 24.6236C61.8023 24.5528 61.8654 24.4297 61.8654 24.2543V24.2173C61.8654 23.7618 61.7408 23.4079 61.4915 23.1555C61.2453 22.9032 60.8713 22.777 60.3697 22.777C59.8496 22.777 59.4418 22.8909 59.1463 23.1186C58.8509 23.3464 58.6431 23.5895 58.5231 23.848L57.489 23.4787C57.6737 23.0478 57.9199 22.7124 58.2276 22.4723C58.5385 22.2292 58.877 22.0599 59.2433 21.9645C59.6126 21.866 59.9757 21.8168 60.3327 21.8168C60.5605 21.8168 60.8221 21.8445 61.1175 21.8999C61.4161 21.9522 61.7038 22.0614 61.9808 22.2276C62.2609 22.3938 62.4933 22.6446 62.6779 22.9801C62.8626 23.3156 62.9549 23.7649 62.9549 24.3281V29H61.8654V28.0398H61.81C61.7362 28.1937 61.613 28.3583 61.4407 28.5337C61.2683 28.7092 61.0391 28.8584 60.7528 28.9815C60.4666 29.1046 60.1173 29.1662 59.7049 29.1662ZM59.8711 28.1875C60.302 28.1875 60.6651 28.1029 60.9606 27.9336C61.2591 27.7643 61.4838 27.5458 61.6346 27.2781C61.7885 27.0103 61.8654 26.7287 61.8654 26.4332V25.4361C61.8192 25.4915 61.7177 25.5423 61.5607 25.5884C61.4068 25.6315 61.2283 25.67 61.0252 25.7038C60.8252 25.7346 60.6297 25.7623 60.4389 25.7869C60.2512 25.8085 60.0988 25.8269 59.9819 25.8423C59.6987 25.8793 59.4341 25.9393 59.1879 26.0224C58.9447 26.1024 58.7478 26.224 58.5969 26.3871C58.4492 26.5471 58.3754 26.7656 58.3754 27.0426C58.3754 27.4212 58.5154 27.7074 58.7955 27.9013C59.0786 28.0921 59.4371 28.1875 59.8711 28.1875ZM64.5003 27.1903H65.6636C65.6882 27.5104 65.8329 27.7536 66.0976 27.9197C66.3653 28.0859 66.7131 28.169 67.1409 28.169C67.5779 28.169 67.9519 28.0798 68.2627 27.9013C68.5735 27.7197 68.729 27.4273 68.729 27.0241C68.729 26.7872 68.6705 26.581 68.5535 26.4055C68.4366 26.227 68.2719 26.0885 68.0596 25.9901C67.8472 25.8916 67.5964 25.8423 67.3071 25.8423H66.0883V24.8636H67.3071C67.741 24.8636 68.0611 24.7652 68.2673 24.5682C68.4766 24.3712 68.5812 24.125 68.5812 23.8295C68.5812 23.5125 68.4689 23.2586 68.2442 23.0678C68.0196 22.8739 67.701 22.777 67.2886 22.777C66.8731 22.777 66.5269 22.8709 66.2499 23.0586C65.9729 23.2433 65.8267 23.4818 65.8113 23.7741H64.6665C64.6788 23.3925 64.7957 23.0555 65.0173 22.7631C65.2389 22.4677 65.5405 22.2369 65.9221 22.0707C66.3038 21.9014 66.7408 21.8168 67.2332 21.8168C67.7318 21.8168 68.1642 21.9045 68.5305 22.0799C68.8998 22.2522 69.1845 22.4877 69.3845 22.7862C69.5876 23.0817 69.6892 23.4171 69.6892 23.7926C69.6892 24.1927 69.5769 24.5159 69.3522 24.7621C69.1275 25.0083 68.8459 25.1837 68.5074 25.2884V25.3622C68.7751 25.3807 69.0075 25.4669 69.2045 25.6207C69.4045 25.7715 69.5599 25.9701 69.6707 26.2163C69.7815 26.4594 69.8369 26.7287 69.8369 27.0241C69.8369 27.455 69.7215 27.8305 69.4907 28.1506C69.2599 28.4676 68.9429 28.7138 68.5397 28.8892C68.1365 29.0616 67.6764 29.1477 67.1594 29.1477C66.6577 29.1477 66.2084 29.0662 65.8113 28.9031C65.4143 28.7369 65.0989 28.5076 64.865 28.2152C64.6341 27.9197 64.5126 27.5781 64.5003 27.1903ZM73.4539 29.1662C73.0046 29.1662 72.5968 29.0816 72.2306 28.9123C71.8643 28.7399 71.5735 28.4922 71.358 28.169C71.1426 27.8428 71.0349 27.4489 71.0349 26.9872C71.0349 26.581 71.1149 26.2517 71.2749 25.9993C71.435 25.7438 71.6489 25.5438 71.9166 25.3991C72.1844 25.2545 72.4798 25.1468 72.803 25.076C73.1292 25.0021 73.457 24.9437 73.7863 24.9006C74.2172 24.8452 74.5665 24.8036 74.8343 24.7759C75.1051 24.7451 75.3021 24.6944 75.4252 24.6236C75.5513 24.5528 75.6144 24.4297 75.6144 24.2543V24.2173C75.6144 23.7618 75.4898 23.4079 75.2405 23.1555C74.9943 22.9032 74.6204 22.777 74.1187 22.777C73.5986 22.777 73.1908 22.8909 72.8953 23.1186C72.5999 23.3464 72.3921 23.5895 72.2721 23.848L71.238 23.4787C71.4227 23.0478 71.6689 22.7124 71.9767 22.4723C72.2875 22.2292 72.626 22.0599 72.9923 21.9645C73.3616 21.866 73.7248 21.8168 74.0818 21.8168C74.3095 21.8168 74.5711 21.8445 74.8666 21.8999C75.1651 21.9522 75.4529 22.0614 75.7298 22.2276C76.0099 22.3938 76.2423 22.6446 76.4269 22.9801C76.6116 23.3156 76.7039 23.7649 76.7039 24.3281V29H75.6144V28.0398H75.559C75.4852 28.1937 75.3621 28.3583 75.1897 28.5337C75.0174 28.7092 74.7881 28.8584 74.5019 28.9815C74.2156 29.1046 73.8663 29.1662 73.4539 29.1662ZM73.6201 28.1875C74.051 28.1875 74.4142 28.1029 74.7096 27.9336C75.0081 27.7643 75.2328 27.5458 75.3836 27.2781C75.5375 27.0103 75.6144 26.7287 75.6144 26.4332V25.4361C75.5683 25.4915 75.4667 25.5423 75.3097 25.5884C75.1559 25.6315 74.9774 25.67 74.7742 25.7038C74.5742 25.7346 74.3788 25.7623 74.1879 25.7869C74.0002 25.8085 73.8479 25.8269 73.7309 25.8423C73.4478 25.8793 73.1831 25.9393 72.9369 26.0224C72.6937 26.1024 72.4968 26.224 72.346 26.3871C72.1982 26.5471 72.1244 26.7656 72.1244 27.0426C72.1244 27.4212 72.2644 27.7074 72.5445 27.9013C72.8276 28.0921 73.1862 28.1875 73.6201 28.1875ZM77.7276 22.9247V21.9091H83.489V22.9247H81.1623V29H80.0728V22.9247H77.7276ZM86.02 24.4759H88.0512C88.8822 24.4759 89.5177 24.6867 89.9578 25.1083C90.3979 25.5299 90.618 26.0639 90.618 26.7102C90.618 27.1349 90.5195 27.5212 90.3225 27.869C90.1256 28.2137 89.8363 28.4891 89.4546 28.6953C89.073 28.8984 88.6052 29 88.0512 29H85.0782V21.9091H86.1677V27.9844H88.0512C88.4821 27.9844 88.836 27.8705 89.113 27.6428C89.39 27.415 89.5285 27.1226 89.5285 26.7656C89.5285 26.3902 89.39 26.0839 89.113 25.8469C88.836 25.61 88.4821 25.4915 88.0512 25.4915H86.02V24.4759ZM98.9057 29.1477C98.2225 29.1477 97.6331 28.9969 97.1376 28.6953C96.6452 28.3906 96.2651 27.9659 95.9973 27.4212C95.7327 26.8733 95.6003 26.2363 95.6003 25.5099C95.6003 24.7836 95.7327 24.1435 95.9973 23.5895C96.2651 23.0324 96.6375 22.5985 97.1145 22.2876C97.5946 21.9737 98.1548 21.8168 98.7949 21.8168C99.1642 21.8168 99.5289 21.8783 99.889 22.0014C100.249 22.1245 100.577 22.3246 100.872 22.6016C101.168 22.8755 101.403 23.2386 101.579 23.6911C101.754 24.1435 101.842 24.7005 101.842 25.3622V25.8239H96.3759V24.8821H100.734C100.734 24.482 100.654 24.125 100.494 23.8111C100.337 23.4972 100.112 23.2494 99.8198 23.0678C99.5305 22.8862 99.1889 22.7955 98.7949 22.7955C98.361 22.7955 97.9855 22.9032 97.6685 23.1186C97.3546 23.331 97.113 23.608 96.9437 23.9496C96.7744 24.2912 96.6898 24.6574 96.6898 25.0483V25.6761C96.6898 26.2116 96.7821 26.6656 96.9668 27.038C97.1545 27.4073 97.4146 27.6889 97.747 27.8828C98.0794 28.0736 98.4656 28.169 98.9057 28.169C99.1919 28.169 99.4505 28.129 99.6813 28.049C99.9152 27.9659 100.117 27.8428 100.286 27.6797C100.455 27.5135 100.586 27.3073 100.678 27.0611L101.731 27.3565C101.62 27.7135 101.434 28.0275 101.172 28.2983C100.911 28.5661 100.588 28.7753 100.203 28.9261C99.8182 29.0739 99.3858 29.1477 98.9057 29.1477ZM113.175 27.9844L113.046 31.0312H111.92V29H110.996V27.9844H113.175ZM103.499 21.9091H104.589V27.9844H107.266V21.9091H108.356V27.9844H111.033V21.9091H112.123V29H103.499V21.9091ZM117.657 29.1477C116.973 29.1477 116.384 28.9969 115.889 28.6953C115.396 28.3906 115.016 27.9659 114.748 27.4212C114.484 26.8733 114.351 26.2363 114.351 25.5099C114.351 24.7836 114.484 24.1435 114.748 23.5895C115.016 23.0324 115.388 22.5985 115.866 22.2876C116.346 21.9737 116.906 21.8168 117.546 21.8168C117.915 21.8168 118.28 21.8783 118.64 22.0014C119 22.1245 119.328 22.3246 119.623 22.6016C119.919 22.8755 120.154 23.2386 120.33 23.6911C120.505 24.1435 120.593 24.7005 120.593 25.3622V25.8239H115.127V24.8821H119.485C119.485 24.482 119.405 24.125 119.245 23.8111C119.088 23.4972 118.863 23.2494 118.571 23.0678C118.281 22.8862 117.94 22.7955 117.546 22.7955C117.112 22.7955 116.736 22.9032 116.419 23.1186C116.106 23.331 115.864 23.608 115.695 23.9496C115.525 24.2912 115.441 24.6574 115.441 25.0483V25.6761C115.441 26.2116 115.533 26.6656 115.718 27.038C115.906 27.4073 116.166 27.6889 116.498 27.8828C116.83 28.0736 117.217 28.169 117.657 28.169C117.943 28.169 118.201 28.129 118.432 28.049C118.666 27.9659 118.868 27.8428 119.037 27.6797C119.206 27.5135 119.337 27.3073 119.429 27.0611L120.482 27.3565C120.371 27.7135 120.185 28.0275 119.923 28.2983C119.662 28.5661 119.339 28.7753 118.954 28.9261C118.569 29.0739 118.137 29.1477 117.657 29.1477ZM116.161 20.7273C115.967 20.7273 115.795 20.6534 115.644 20.5057C115.496 20.3549 115.422 20.1825 115.422 19.9886C115.422 19.7763 115.496 19.6009 115.644 19.4624C115.795 19.3208 115.967 19.25 116.161 19.25C116.373 19.25 116.549 19.3208 116.687 19.4624C116.829 19.6009 116.9 19.7763 116.9 19.9886C116.9 20.1825 116.829 20.3549 116.687 20.5057C116.549 20.6534 116.373 20.7273 116.161 20.7273ZM118.82 20.7273C118.626 20.7273 118.454 20.6534 118.303 20.5057C118.155 20.3549 118.081 20.1825 118.081 19.9886C118.081 19.7763 118.155 19.6009 118.303 19.4624C118.454 19.3208 118.626 19.25 118.82 19.25C119.032 19.25 119.208 19.3208 119.346 19.4624C119.488 19.6009 119.559 19.7763 119.559 19.9886C119.559 20.1825 119.488 20.3549 119.346 20.5057C119.208 20.6534 119.032 20.7273 118.82 20.7273Z" fill="white"/>
<path fill-rule="evenodd" clip-rule="evenodd" d="M135.146 19.6464C135.342 19.4512 135.658 19.4512 135.854 19.6464L136.854 20.6464C137.049 20.8417 137.049 21.1583 136.854 21.3536L135.854 22.3536C135.658 22.5488 135.342 22.5488 135.146 22.3536L134.146 21.3536C133.951 21.1583 133.951 20.8417 134.146 20.6464L135.146 19.6464ZM130.146 22.6464C130.342 22.4512 130.658 22.4512 130.854 22.6464L135.5 27.2929L140.146 22.6464C140.342 22.4512 140.658 22.4512 140.854 22.6464C141.049 22.8417 141.049 23.1583 140.854 23.3536L135.854 28.3536C135.658 28.5488 135.342 28.5488 135.146 28.3536L130.146 23.3536C129.951 23.1583 129.951 22.8417 130.146 22.6464Z" fill="white"/>
</svg>
