<svg width="32" height="32" viewBox="0 0 32 32" fill="none" xmlns="http://www.w3.org/2000/svg">
<path d="M30.8782 18.1214C32.0498 16.9498 32.0498 15.0503 30.8782 13.8787L18.1209 1.12136C16.9493 -0.0502173 15.0498 -0.0502175 13.8782 1.12136L1.12087 13.8787C-0.0507056 15.0503 -0.0507058 16.9498 1.12087 18.1214L13.8782 30.8787C15.0498 32.0503 16.9493 32.0503 18.1209 30.8787L30.8782 18.1214Z" fill="#9B1616"/>
<path fill-rule="evenodd" clip-rule="evenodd" d="M16.5303 10.9697C16.2374 10.6768 15.7626 10.6768 15.4697 10.9697C15.1768 11.2626 15.1768 11.7374 15.4697 12.0303L19.4393 16L15.4697 19.9697C15.1768 20.2626 15.1768 20.7374 15.4697 21.0303C15.7626 21.3232 16.2374 21.3232 16.5303 21.0303L21.0303 16.5303C21.3232 16.2374 21.3232 15.7626 21.0303 15.4697L16.5303 10.9697ZM13.5303 14.4697C13.2374 14.1768 12.7626 14.1768 12.4697 14.4697L11.4697 15.4697C11.1768 15.7626 11.1768 16.2374 11.4697 16.5303L12.4697 17.5303C12.7626 17.8232 13.2374 17.8232 13.5303 17.5303L14.5303 16.5303C14.8232 16.2374 14.8232 15.7626 14.5303 15.4697L13.5303 14.4697Z" fill="white"/>
</svg>
