<svg width="26" height="33" viewBox="0 0 26 33" fill="none" xmlns="http://www.w3.org/2000/svg">
<path fill-rule="evenodd" clip-rule="evenodd" d="M12.12 0.612449C12.6073 0.129178 13.3931 0.129184 13.8804 0.612464L24.8802 11.5216C25.3168 11.9545 25.3737 12.6407 25.0143 13.1396L14.5405 27.6818L15.909 29.5819L17.6198 27.8852C18.11 27.3991 18.9014 27.4023 19.3876 27.8925C19.8737 28.3827 19.8704 29.1741 19.3802 29.6603L16.6302 32.3875C16.3706 32.645 16.0112 32.7759 15.6468 32.7457C15.2824 32.7155 14.9494 32.5273 14.7357 32.2305L13 29.8206L11.2643 32.2305C11.0506 32.5273 10.7177 32.7155 10.3533 32.7457C9.98883 32.7759 9.62945 32.645 9.36981 32.3875L6.61981 29.6603C6.12963 29.1741 6.12635 28.3827 6.61247 27.8925C7.0986 27.4023 7.89005 27.3991 8.38022 27.8852L10.0911 29.5819L11.4596 27.6818L0.985714 13.1396C0.626362 12.6407 0.683229 11.9545 1.11982 11.5215L12.12 0.612449ZM3.63827 12.5449L13 25.543L22.3618 12.5449L13.0002 3.26048L3.63827 12.5449ZM13.8839 9.61612C13.3957 9.12796 12.6043 9.12796 12.1161 9.61612L9.11612 12.6161C8.62796 13.1043 8.62796 13.8957 9.11612 14.3839L12.1161 17.3839C12.6043 17.872 13.3957 17.872 13.8839 17.3839L16.8839 14.3839C17.372 13.8957 17.372 13.1043 16.8839 12.6161L13.8839 9.61612ZM13 14.7322L11.7678 13.5L13 12.2678L14.2322 13.5L13 14.7322Z" fill="#9B1616"/>
</svg>
