<svg width="8" height="8" viewBox="0 0 8 8" fill="none" xmlns="http://www.w3.org/2000/svg">
<path fill-rule="evenodd" clip-rule="evenodd" d="M4.35355 0.646447C4.15829 0.451184 3.84171 0.451184 3.64645 0.646447L0.146447 4.14645C-0.0488155 4.34171 -0.0488155 4.65829 0.146447 4.85355C0.341709 5.04882 0.658291 5.04882 0.853553 4.85355L4 1.70711L7.14645 4.85355C7.34171 5.04882 7.65829 5.04882 7.85355 4.85355C8.04882 4.65829 8.04882 4.34171 7.85355 4.14645L4.35355 0.646447ZM4 7C4.55228 7 5 6.55228 5 6C5 5.44772 4.55228 5 4 5C3.44772 5 3 5.44772 3 6C3 6.55228 3.44772 7 4 7Z" fill="#9B1616"/>
</svg>
