<svg width="8" height="8" viewBox="0 0 8 8" fill="none" xmlns="http://www.w3.org/2000/svg">
<path fill-rule="evenodd" clip-rule="evenodd" d="M4 3C4.55228 3 5 2.55228 5 2C5 1.44772 4.55228 1 4 1C3.44772 1 3 1.44772 3 2C3 2.55228 3.44772 3 4 3ZM0.853553 3.14645C0.658291 2.95118 0.341709 2.95118 0.146447 3.14645C-0.0488155 3.34171 -0.0488155 3.65829 0.146447 3.85355L3.64645 7.35355C3.84171 7.54882 4.15829 7.54882 4.35355 7.35355L7.85355 3.85355C8.04882 3.65829 8.04882 3.34171 7.85355 3.14645C7.65829 2.95118 7.34171 2.95118 7.14645 3.14645L4 6.29289L0.853553 3.14645Z" fill="#9B1616"/>
</svg>
