<svg width="32" height="32" viewBox="0 0 32 32" fill="none" xmlns="http://www.w3.org/2000/svg">
<path d="M1.12132 18.1213C-0.0502521 16.9497 -0.0502524 15.0503 1.12132 13.8787L13.8787 1.12132C15.0503 -0.0502521 16.9497 -0.0502524 18.1213 1.12132L30.8787 13.8787C32.0503 15.0503 32.0503 16.9497 30.8787 18.1213L18.1213 30.8787C16.9497 32.0503 15.0503 32.0503 13.8787 30.8787L1.12132 18.1213Z" fill="#9B1616"/>
<path fill-rule="evenodd" clip-rule="evenodd" d="M16.5303 12.0303C16.8232 11.7374 16.8232 11.2626 16.5303 10.9697C16.2374 10.6768 15.7626 10.6768 15.4697 10.9697L10.9697 15.4697C10.6768 15.7626 10.6768 16.2374 10.9697 16.5303L15.4697 21.0303C15.7626 21.3232 16.2374 21.3232 16.5303 21.0303C16.8232 20.7374 16.8232 20.2626 16.5303 19.9697L12.5607 16L16.5303 12.0303ZM19.5303 14.4697C19.2374 14.1768 18.7626 14.1768 18.4697 14.4697L17.4697 15.4697C17.1768 15.7626 17.1768 16.2374 17.4697 16.5303L18.4697 17.5303C18.7626 17.8232 19.2374 17.8232 19.5303 17.5303L20.5303 16.5303C20.8232 16.2374 20.8232 15.7626 20.5303 15.4697L19.5303 14.4697Z" fill="white"/>
</svg>
