<svg width="32" height="32" viewBox="0 0 32 32" fill="none" xmlns="http://www.w3.org/2000/svg">
<path fill-rule="evenodd" clip-rule="evenodd" d="M1.82797 14.5858L14.5853 1.82846C15.3664 1.04741 16.6327 1.04741 17.4138 1.82846L30.1711 14.5858C30.9522 15.3669 30.9522 16.6332 30.1711 17.4142L17.4138 30.1716C16.6327 30.9527 15.3664 30.9527 14.5853 30.1716L1.82797 17.4142C1.04693 16.6332 1.04693 15.3669 1.82797 14.5858ZM1.12087 18.1214C-0.0507056 16.9498 -0.0507058 15.0503 1.12087 13.8787L13.8782 1.12136C15.0498 -0.0502173 16.9493 -0.0502175 18.1209 1.12136L30.8782 13.8787C32.0498 15.0503 32.0498 16.9498 30.8782 18.1214L18.1209 30.8787C16.9493 32.0503 15.0498 32.0503 13.8782 30.8787L1.12087 18.1214ZM15.945 12.3869C14.0899 13.1599 8.74101 15.3551 8.74101 15.3551C7.47336 15.8498 8.21536 16.3135 8.21536 16.3135C8.21536 16.3135 9.29751 16.6846 10.2251 16.9628C11.1526 17.2411 11.6473 16.9319 11.6473 16.9319C11.6473 16.9319 13.8116 15.5097 16.0068 13.9946C17.5527 12.9434 17.1817 13.8091 16.8107 14.1802C16.0068 14.9841 14.6773 16.2517 13.5643 17.272C13.0696 17.7049 13.3169 18.0759 13.5334 18.2614C14.1628 18.794 15.6453 19.7627 16.3184 20.2025C16.5049 20.3243 16.6293 20.4056 16.6561 20.4257C16.8107 20.5494 17.6764 21.1059 18.2021 20.9822C18.7277 20.8586 18.7895 20.1474 18.7895 20.1474C18.7895 20.1474 19.1914 17.6121 19.5625 15.2932C19.6312 14.838 19.6999 14.3922 19.764 13.9766C19.9305 12.8963 20.0657 12.0193 20.0881 11.7067C20.1808 10.6555 19.0678 11.0883 19.0678 11.0883C19.0678 11.0883 16.6561 12.0777 15.945 12.3869Z" fill="white"/>
</svg>
