<svg width="32" height="32" viewBox="0 0 32 32" fill="none" xmlns="http://www.w3.org/2000/svg">
<path fill-rule="evenodd" clip-rule="evenodd" d="M1.82797 14.5858L14.5853 1.82846C15.3664 1.04741 16.6327 1.04741 17.4138 1.82846L30.1711 14.5858C30.9522 15.3669 30.9522 16.6332 30.1711 17.4142L17.4138 30.1716C16.6327 30.9527 15.3664 30.9527 14.5853 30.1716L1.82797 17.4142C1.04693 16.6332 1.04693 15.3669 1.82797 14.5858ZM1.12087 18.1214C-0.0507056 16.9498 -0.0507058 15.0503 1.12087 13.8787L13.8782 1.12136C15.0498 -0.0502173 16.9493 -0.0502175 18.1209 1.12136L30.8782 13.8787C32.0498 15.0503 32.0498 16.9498 30.8782 18.1214L18.1209 30.8787C16.9493 32.0503 15.0498 32.0503 13.8782 30.8787L1.12087 18.1214ZM21.2158 12C21.6579 12 21.7526 12.2211 21.6579 12.5368C21.4998 13.2993 20.0767 15.3597 19.747 15.8372C19.7034 15.9002 19.6789 15.9356 19.6789 15.9368C19.5211 16.1789 19.4579 16.3053 19.6789 16.5895C19.7542 16.7024 19.9256 16.8703 20.1216 17.0622C20.3093 17.246 20.5196 17.4518 20.6895 17.6526C21.3211 18.3684 21.7947 18.9684 21.9316 19.3789C22.0579 19.7895 21.8474 20 21.4263 20H19.9526C19.5617 20 19.362 19.7777 18.9333 19.3005C18.7503 19.0968 18.5255 18.8466 18.2263 18.5474C17.3526 17.7053 16.9842 17.6 16.7632 17.6C16.4579 17.6 16.3737 17.6842 16.3737 18.1053V19.4316C16.3737 19.7895 16.2579 20 15.3211 20C13.7632 20 12.0474 19.0526 10.8263 17.3053C8.99474 14.7474 8.5 12.8105 8.5 12.4211C8.5 12.2 8.58421 12 9.00526 12H10.4789C10.8579 12 10.9947 12.1684 11.1421 12.5579C11.8579 14.6632 13.0789 16.4947 13.5737 16.4947C13.7632 16.4947 13.8474 16.4105 13.8474 15.9368V13.7684C13.8085 13.1602 13.5947 12.894 13.4357 12.6961C13.336 12.572 13.2579 12.4747 13.2579 12.3368C13.2579 12.1789 13.4053 12 13.6368 12H15.9526C16.2684 12 16.3737 12.1579 16.3737 12.5368V15.4632C16.3737 15.7789 16.5105 15.8842 16.6053 15.8842C16.7947 15.8842 16.9421 15.7789 17.2895 15.4316C18.3526 14.2526 19.1 12.4211 19.1 12.4211C19.1947 12.2 19.3632 12 19.7421 12H21.2158Z" fill="white"/>
</svg>
