
<svg width="24" height="24" viewBox="0 0 24 24" fill="none" xmlns="http://www.w3.org/2000/svg">
<path fill-rule="evenodd" clip-rule="evenodd" d="M1.82797 10.5858L10.5853 1.82846C11.3664 1.04741 12.6327 1.04741 13.4138 1.82846L22.1711 10.5858C22.9522 11.3669 22.9522 12.6332 22.1711 13.4142L13.4138 22.1716C12.6327 22.9527 11.3664 22.9527 10.5853 22.1716L1.82797 13.4142C1.04693 12.6332 1.04693 11.3669 1.82797 10.5858ZM1.12087 14.1214C-0.0507053 12.9498 -0.0507062 11.0503 1.12087 9.87871L9.87823 1.12136C11.0498 -0.050217 12.9493 -0.0502179 14.1209 1.12135L22.8782 9.87871C24.0498 11.0503 24.0498 12.9498 22.8782 14.1214L14.1209 22.8787C12.9493 24.0503 11.0498 24.0503 9.87823 22.8787L1.12087 14.1214ZM17.0732 9.00003C17.4756 9.00003 17.5618 9.20123 17.4756 9.48866C17.3317 10.1827 16.0364 12.058 15.7363 12.4925C15.6967 12.5499 15.6744 12.5822 15.6744 12.5833C15.5307 12.8036 15.4732 12.9186 15.6744 13.1773C15.7429 13.2801 15.899 13.4328 16.0774 13.6075C16.2482 13.7748 16.4395 13.9622 16.5942 14.145C17.169 14.7965 17.6002 15.3426 17.7247 15.7162C17.8397 16.0899 17.6481 16.2815 17.2648 16.2815H15.9235C15.5677 16.2815 15.3859 16.0792 14.9957 15.6448C14.8292 15.4594 14.6246 15.2317 14.3523 14.9593C13.5571 14.1929 13.2217 14.0971 13.0205 14.0971C12.7427 14.0971 12.666 14.1737 12.666 14.5569V15.7641C12.666 16.0899 12.5606 16.2815 11.7079 16.2815C10.29 16.2815 8.7283 15.4192 7.61692 13.8288C5.94985 11.5006 5.49955 9.73776 5.49955 9.38327C5.49955 9.18207 5.57619 9.00003 5.95943 9.00003H7.30075C7.64566 9.00003 7.77021 9.15333 7.90434 9.50782C8.55584 11.424 9.66722 13.0911 10.1175 13.0911C10.29 13.0911 10.3666 13.0144 10.3666 12.5833V10.6096C10.3313 10.056 10.1367 9.81376 9.99194 9.6336C9.90122 9.52067 9.8301 9.43214 9.8301 9.30662C9.8301 9.16291 9.96423 9.00003 10.175 9.00003H12.2828C12.5702 9.00003 12.666 9.14375 12.666 9.48866V12.1521C12.666 12.4396 12.7906 12.5354 12.8768 12.5354C13.0493 12.5354 13.1834 12.4396 13.4996 12.1234C14.4672 11.0503 15.1475 9.38327 15.1475 9.38327C15.2337 9.18207 15.387 9.00003 15.7319 9.00003H17.0732Z" fill="#9B1616"/>
</svg>
