
<svg width="24" height="24" viewBox="0 0 24 24" fill="none" xmlns="http://www.w3.org/2000/svg">
<path fill-rule="evenodd" clip-rule="evenodd" d="M1.82797 10.5858L10.5853 1.82846C11.3664 1.04741 12.6327 1.04741 13.4138 1.82846L22.1711 10.5858C22.9522 11.3669 22.9522 12.6332 22.1711 13.4142L13.4138 22.1716C12.6327 22.9527 11.3664 22.9527 10.5853 22.1716L1.82797 13.4142C1.04693 12.6332 1.04693 11.3669 1.82797 10.5858ZM1.12087 14.1214C-0.0507053 12.9498 -0.0507062 11.0503 1.12087 9.87871L9.87823 1.12136C11.0498 -0.050217 12.9493 -0.0502179 14.1209 1.12135L22.8782 9.87871C24.0498 11.0503 24.0498 12.9498 22.8782 14.1214L14.1209 22.8787C12.9493 24.0503 11.0498 24.0503 9.87823 22.8787L1.12087 14.1214ZM12.5547 9.31877C10.7908 10.0538 5.70459 12.1412 5.70459 12.1412C4.49921 12.6116 5.20476 13.0526 5.20476 13.0526C5.20476 13.0526 6.23376 13.4054 7.11578 13.6699C7.99777 13.9345 8.46817 13.6406 8.46817 13.6406C8.46817 13.6406 10.5262 12.2882 12.6135 10.8476C14.0835 9.84798 13.7307 10.6712 13.3779 11.024C12.6135 11.7884 11.3494 12.9938 10.2909 13.964C9.82057 14.3756 10.0558 14.7283 10.2616 14.9047C10.8601 15.4112 12.2698 16.3323 12.9098 16.7505C13.0872 16.8663 13.2054 16.9436 13.231 16.9627C13.3779 17.0804 14.2011 17.6095 14.7009 17.4919C15.2007 17.3743 15.2595 16.6981 15.2595 16.6981C15.2595 16.6981 15.6417 14.2874 15.9945 12.0824C16.0599 11.6494 16.1252 11.2255 16.1862 10.8303C16.3445 9.80307 16.4731 8.96922 16.4943 8.67198C16.5825 7.6724 15.5241 8.08397 15.5241 8.08397C15.5241 8.08397 13.231 9.02479 12.5547 9.31877Z" fill="#9B1616"/>
</svg>
