<svg xmlns="http://www.w3.org/2000/svg" id="_&#x421;&#x43B;&#x43E;&#x439;_1" data-name="&#x421;&#x43B;&#x43E;&#x439; 1" viewBox="0 0 484 177"><defs><style> .cls-1 { fill: #dedfde; } .cls-1, .cls-2, .cls-3, .cls-4, .cls-5, .cls-6, .cls-7 { stroke-width: 0px; } .cls-1, .cls-4, .cls-5 { fill-rule: evenodd; } .cls-2 { fill: #f2f2f1; } .cls-3 { fill: #cd2e2d; } .cls-4 { fill: #fff; } .cls-5 { fill: #cd2e2e; } .cls-6 { fill: #c5c5c5; } .cls-7 { fill: #1d1d1b; } </style></defs><polygon class="cls-5" points="454.28 33.66 467.01 46.4 454.28 59.13 441.54 46.4 454.28 33.66 454.28 33.66"></polygon><polygon class="cls-4" points="454.28 39.57 461.11 46.4 454.28 53.23 447.44 46.4 454.28 39.57 454.28 39.57"></polygon><polygon class="cls-5" points="418.27 39.57 425.1 46.4 418.27 53.23 411.43 46.4 418.27 39.57 418.27 39.57"></polygon><g><polygon class="cls-6" points="15.71 154.91 82.36 89.04 148.24 154.8 15.71 154.91 15.71 154.91"></polygon><path class="cls-1" d="m148.4,83.07l-6.21,6.21-.07.07.07.07.29.29,5.92,5.92.14-.14v-12.27l-.14-.14h0Zm.14-23.12l-.14.14-12.85-12.85,5.33-5.33,7.66,7.66v-26.1l-.5.5-4.89,4.89-55.18,55.18-5.03,5.03-.2.2-.07.07.07.07.2.2,5.03,5.03,55.18,55.18,4.89,4.89.5.5v-26.1l-7.66,7.66-5.33-5.33,12.85-12.85.14.14v-11.06l-.14.14-18.47-18.47,18.47-18.47.14.14v-11.06h0Zm-40.06,29.46l.07-.07-.07-.07-7.48-7.48,5.21-5.21,12.76,12.76-12.76,12.76-5.21-5.21,7.48-7.48h0Zm21.68,36.64l12.85-12.85-18.56-18.56-12.85,12.85,4.9,4.9,7.58-7.58,8.88,8.88-7.58,7.58,4.78,4.78h0Zm0-73.42l12.85,12.85-18.56,18.56-12.85-12.85,4.9-4.9,7.58,7.58,8.88-8.88-7.58-7.58,4.78-4.78h0Z"></path><polygon class="cls-2" points="82.63 89.34 142.16 89.4 148.49 95.58 148.53 155.2 82.63 89.34 82.63 89.34"></polygon><polygon class="cls-5" points="48.11 78.96 35.38 91.69 48.11 104.43 60.85 91.69 48.11 78.96 48.11 78.96"></polygon><polygon class="cls-4" points="48.11 84.86 41.28 91.69 48.11 98.53 54.95 91.69 48.11 84.86 48.11 84.86"></polygon><polygon class="cls-5" points="84.13 84.86 77.29 91.69 84.13 98.53 90.96 91.69 84.13 84.86 84.13 84.86"></polygon></g><g><polygon class="cls-7" points="259.84 68.48 264.39 68.48 264.39 61.24 262.19 61.24 262.19 44.38 256.53 44.38 256.53 60.93 250.25 60.93 250.25 44.38 244.58 44.38 244.58 66.04 259.84 66.04 259.84 68.48"></polygon><path class="cls-7" d="m281.56,61.11h-8.29v-3.81h7.36v-4.92h-7.36v-3.06h8.01v-4.95h-13.52v21.66h13.8v-4.92Z"></path><path class="cls-7" d="m292.02,57.34h6.68v8.7h5.66v-21.66h-5.66v7.86h-6.68v-7.86h-5.66v21.66h5.66v-8.7Z"></path><path class="cls-7" d="m313.09,66.04h5.48v-16.71h5.29v-4.95h-16.09v4.95h5.32v16.71Z"></path><path class="cls-7" d="m332.84,60.5h3.99c10.37,0,10.37-16.09,0-16.12h-9.53v21.66h5.54v-5.54Zm0-11.17c1.27,0,2.66-.03,3.96,0,3.22.03,3.03,6.19,0,6.19h-3.96v-6.19Z"></path><path class="cls-7" d="m262.62,103.11v-21.66h-5.66v7.86h-6.68v-7.86h-5.66v21.66h5.66v-8.7h6.68v8.7h5.66Z"></path><path class="cls-7" d="m287.35,103.11v-.8l-9.78-21.13h-2.38l-9.75,21.13v.8h5.42l1.27-2.72h8.54l1.27,2.72h5.41Zm-13.43-7.46l2.45-5.69,2.51,5.69h-4.95Z"></path><path class="cls-7" d="m299.73,81.45h-9.53v21.66h5.54v-5.54h3.99c10.37,0,10.37-16.09,0-16.12Zm-.03,11.14h-3.96v-6.19c1.27,0,2.66-.03,3.96,0,3.22.03,3.03,6.19,0,6.19Z"></path><path class="cls-7" d="m310.34,92.31c0,15.01,22.22,15.01,22.22,0s-22.22-14.98-22.22,0Zm16.56,0c0,7.86-10.86,7.86-10.86,0s10.86-7.8,10.86,0Z"></path><path class="cls-7" d="m336.24,98.31h-2.2v7.24h4.58v-2.38h12.81v2.38h4.55v-7.24h-2.26l-7.67-17.14h-2.38l-7.43,17.14Zm11.73-.06h-6.13l3-7.83,3.13,7.83Z"></path><path class="cls-7" d="m364.46,94.41h6.68v8.7h5.66v-21.66h-5.66v7.86h-6.68v-7.86h-5.66v21.66h5.66v-8.7Z"></path><path class="cls-7" d="m403.23,92.31c0-14.98-22.22-14.98-22.22,0s22.22,15.01,22.22,0Zm-5.66,0c0,7.86-10.86,7.86-10.86,0s10.86-7.8,10.86,0Z"></path><path class="cls-7" d="m413.04,86.4h7.86v-4.95h-13.49v21.66h5.63v-16.71Z"></path><path class="cls-7" d="m445.01,92.31c0-14.98-22.22-14.98-22.22,0s22.22,15.01,22.22,0Zm-5.66,0c0,7.86-10.86,7.86-10.86,0s10.86-7.8,10.86,0Z"></path><path class="cls-7" d="m242.45,123.47h5.32v16.71h5.48v-16.71h5.29v-4.95h-16.09v4.95Z"></path><path class="cls-7" d="m276.27,128.91c1.05-.87,1.7-2.44,1.7-3.74,0-3.74-3-6.65-6.75-6.65h-9.25v21.66h10.15c4.43,0,6.72-3.06,6.75-6.84,0-1.92-.84-3.53-2.6-4.42Zm-8.94-5.45h3.47c2.23,0,2.23,3.5.03,3.5h-3.5v-3.5Zm4.43,11.79h-4.43v-3.68h4.39c2.23,0,2.26,3.68.03,3.68Z"></path><path class="cls-7" d="m281.87,129.38c0,15.01,22.22,15.01,22.22,0s-22.22-14.98-22.22,0Zm5.69,0c0-7.8,10.86-7.8,10.86,0s-10.86,7.86-10.86,0Z"></path><path class="cls-7" d="m317.8,118.52h-9.53v21.66h5.54v-5.54h3.99c10.37,0,10.37-16.09,0-16.12Zm-.03,11.14h-3.96v-6.19c1.27,0,2.66-.03,3.96,0,3.22.03,3.03,6.19,0,6.19Z"></path><path class="cls-7" d="m340.17,127.37h-1.08c-4.3,0-4.58-2.51-4.58-6.19v-2.66h-5.69v2.66c0,7.61,2.72,11.45,10.24,11.45h1.11v7.55h5.63v-21.66h-5.63v8.85Z"></path><path class="cls-7" d="m356.82,131.45h7.36v-4.92h-7.36v-3.06h8.01v-4.95h-13.52v21.66h13.8v-4.92h-8.29v-3.81Z"></path><path class="cls-7" d="m379.68,135.35c-3.28-.03-5.38-2.82-5.38-6,0-3.59,2.13-6.03,5.38-6.03,2.32,0,3.96.99,4.73,3.19h5.45c-.84-5.79-5.69-8.23-10.18-8.23-5.51,0-11.08,3.71-11.11,11.08.03,7.37,5.6,11.08,11.11,11.05,4.61,0,9.47-2.41,10.27-8.54h-5.45c-.59,2.32-2.48,3.5-4.83,3.5Z"></path><path class="cls-7" d="m392.06,123.47h5.32v16.71h5.48v-16.71h5.29v-4.95h-16.09v4.95Z"></path><path class="cls-7" d="m425.88,128.91c1.05-.87,1.7-2.44,1.7-3.74,0-3.74-3-6.65-6.75-6.65h-9.25v21.66h10.15c4.43,0,6.72-3.06,6.75-6.84,0-1.92-.84-3.53-2.6-4.42Zm-8.94-5.45h3.47c2.23,0,2.23,3.5.03,3.5h-3.5v-3.5Zm4.42,11.79h-4.42v-3.68h4.39c2.23,0,2.26,3.68.03,3.68Z"></path><path class="cls-7" d="m442.22,118.24h-2.38l-9.75,21.14v.8h5.42l1.27-2.72h8.54l1.27,2.72h5.42v-.8l-9.78-21.14Zm-3.65,14.48l2.44-5.69,2.51,5.69h-4.95Z"></path><path class="cls-3" d="m227.04,92.63l.45-.45-58.97-58.97-.09.08v23.21l.62.62,6.86-6.86,4.14,4.14-11.61,11.61v9.7l16.6,16.6-16.6,16.6v9.7l11.49,11.49-4.67,4.67-6.82-6.82v23.3l.3-.3,4.51-4.51,49.41-49.41,4.38-4.38Zm-53.8-21.77l11.63-11.63,4.33,4.33-6.86,6.86,7.96,7.95,6.86-6.86,4.33,4.33-11.63,11.63-16.62-16.62Zm23.85,42.07l-6.79-6.79-7.96,7.95,6.79,6.79-4.39,4.39-11.51-11.51,16.62-16.62,11.51,11.51-4.28,4.28Zm9.11-9.11l-11.51-11.51,11.63-11.63,4.4,4.4-6.86,6.86,7.11,7.11-4.77,4.77Z"></path><path class="cls-3" d="m178.65,37.72l48.48,48.49,4.3,4.3.44.44v-22.93l-6.73,6.73-4.68-4.68,11.29-11.29.12.12v-9.72l-.12.12-16.29-16.29h-9.52l-11.27,11.27-4.58-4.58,6.69-6.69h-22.86l.3.3,4.42,4.42Zm32.06,0l16.31,16.31-11.29,11.29-4.2-4.2,6.66-6.66-7.8-7.8-6.66,6.66-4.3-4.3,11.29-11.29Z"></path><path class="cls-3" d="m231.88,135.07v-9.72l-.12.12-11.29-11.29,4.68-4.68,6.73,6.73v-22.93l-.44.44-4.3,4.3-48.48,48.49-4.42,4.42-.3.3h22.86l-6.69-6.69,4.58-4.58,11.27,11.27h9.52l16.29-16.29.12.12Zm-21.17,11.45l-11.29-11.29,4.3-4.3,6.66,6.66,7.8-7.81-6.66-6.66,4.2-4.2,11.29,11.29-16.31,16.31Z"></path><rect class="cls-3" x="162.18" y="87.26" width="12.25" height="12.25" transform="translate(-16.74 146.35) rotate(-45)"></rect><polygon class="cls-3" points="231.92 30.13 223.24 30.13 231.75 38.63 240.41 29.97 231.92 21.48 231.92 30.13"></polygon><rect class="cls-3" x="225.62" y="147.88" width="12.25" height="12.25" transform="translate(-41.02 208.97) rotate(-45)"></rect><path class="cls-3" d="m171.27,25.11h-.94v-.62h2.35v-1.16h-3.66v5.09h2.24c2.43,0,2.43-3.31,0-3.31Zm-.94,2.14v-1h.93c.71,0,.72,1,0,1h-.93Z"></path><path class="cls-3" d="m177.31,27.26h-1.95v-.89h1.73v-1.15h-1.73v-.72h1.88v-1.16h-3.18v5.09h3.24v-1.16Z"></path><polygon class="cls-3" points="180.36 25.44 181.66 28.42 182.94 28.42 182.94 28.23 180.64 23.27 180.08 23.27 177.79 28.23 177.79 28.42 179.06 28.42 180.36 25.44"></polygon><path class="cls-3" d="m184.93,24.5h1.84v-1.16h-3.17v5.09h1.32v-3.92Z"></path><path class="cls-3" d="m192.43,25.88c0-3.52-5.22-3.52-5.22,0s5.22,3.53,5.22,0Zm-1.33,0c0,1.85-2.55,1.85-2.55,0s2.55-1.83,2.55,0Z"></path><path class="cls-3" d="m194.71,27.12h.94c2.43,0,2.43-3.78,0-3.79h-2.24v5.09h1.3v-1.3Zm0-2.62c.3,0,.62,0,.93,0,.76,0,.71,1.45,0,1.45h-.93v-1.45Z"></path><path class="cls-3" d="m203.36,25.88c0-3.52-5.22-3.52-5.22,0s5.22,3.53,5.22,0Zm-1.33,0c0,1.85-2.55,1.85-2.55,0s2.55-1.83,2.55,0Z"></path><path class="cls-3" d="m204.79,28.43h3.01v.56h1.07v-1.7h-.53l-1.8-4.03h-.56l-1.74,4.03h-.52v1.7h1.08v-.56Zm1.46-2.99l.73,1.84h-1.44l.7-1.84Z"></path><path class="cls-3" d="m211.82,28.47c1.08,0,2.22-.57,2.41-2.01h-1.28c-.14.55-.58.82-1.13.82-.77,0-1.26-.66-1.26-1.41,0-.84.5-1.42,1.26-1.42.55,0,.93.23,1.11.75h1.28c-.2-1.36-1.34-1.93-2.39-1.93-1.29,0-2.6.87-2.61,2.6,0,1.73,1.32,2.6,2.61,2.59Z"></path><path class="cls-3" d="m216.56,26.48c.17,0,.33,0,.5-.03l1.12,1.97h1.45v-.2l-1.38-2.24c1.01-.65.98-1.61.98-2.64h-1.34c0,.95.07,1.93-1.24,1.93h-.09v-1.93h-1.32v5.09h1.32v-1.94Z"></path><path class="cls-3" d="m223.41,25.92v2.5h1.34v-5.11h-.47l-2.57,2.51v-2.49h-1.33v5.09h.46l2.57-2.5Z"></path><path class="cls-3" d="m229.13,25.92v2.5h1.34v-5.11h-.47l-2.57,2.51v-2.49h-1.33v5.09h.47l2.56-2.5Z"></path><path class="cls-3" d="m228.47,23.06c.81,0,1.24-.43,1.27-1.24-.25-.03-.49-.06-.75-.07-.04.3-.24.4-.54.4s-.48-.13-.5-.4c-.25.01-.5.04-.75.07.02.81.48,1.24,1.26,1.24Z"></path></g></svg>