<?xml version="1.0" encoding="UTF-8"?>
<!DOCTYPE svg PUBLIC "-//W3C//DTD SVG 1.1//EN" "http://www.w3.org/Graphics/SVG/1.1/DTD/svg11.dtd">
<!-- Creator: CorelDRAW X8 -->
<svg xmlns="http://www.w3.org/2000/svg" xml:space="preserve" width="622px" height="660px" version="1.1" style="shape-rendering:geometricPrecision; text-rendering:geometricPrecision; image-rendering:optimizeQuality; fill-rule:evenodd; clip-rule:evenodd"
viewBox="0 0 622 660"
 xmlns:xlink="http://www.w3.org/1999/xlink">
 <defs>
  <style type="text/css">
   <![CDATA[
    .fil1 {fill:#252422;fill-rule:nonzero}
    .fil2 {fill:#343A7F;fill-rule:nonzero}
    .fil0 {fill:#39AAE1;fill-rule:nonzero}
   ]]>
  </style>
 </defs>
 <g id="Слой_x0020_1">
  <metadata id="CorelCorpID_0Corel-Layer"/>
  <g id="_1085452608">
   <path class="fil0" d="M505 450l-1 1c-11,28 -65,154 -194,153 -144,-2 -191,-143 -194,-152l0 0c2,-1 3,-1 4,-1 2,-1 4,-1 6,-1 1,0 2,-1 4,-1 10,-1 24,-3 34,0 1,0 1,0 2,0 2,1 4,1 6,2l0 0c1,1 3,3 5,4 4,3 9,6 13,9 1,0 2,1 3,1 1,1 2,1 3,2 3,1 6,2 8,3 7,3 12,3 20,3l0 0c2,0 4,0 6,-1 12,-1 21,-4 30,-8 7,-3 15,-6 22,-9 3,-1 5,-2 8,-2l0 0c44,-13 80,-7 117,-2 0,0 1,0 1,0 4,1 8,1 13,0 2,0 4,0 7,0 2,0 5,-1 7,0 14,0 25,0 35,0 23,0 33,-1 35,-1z"/>
   <path class="fil1" d="M524 402c-1,3 -4,6 -7,6 -5,0 -10,-8 -10,-17 0,-9 4,-16 10,-16 4,0 7,4 9,9 -4,0 -8,8 -2,18zm-54 0c-2,3 -4,6 -7,6 -6,0 -10,-8 -10,-17 0,-9 4,-16 10,-16 4,0 7,4 9,9 -5,0 -8,8 -2,18zm-61 0c-2,3 -5,6 -8,6 -5,0 -9,-8 -9,-17 0,-9 4,-16 9,-16 4,0 8,4 9,9 -4,0 -8,8 -1,18zm201 -12c-2,4 -6,18 -11,18 -4,0 -5,-4 -5,-8l0 -38c0,-2 -2,-3 -4,-3l-9 0c-2,0 -3,1 -3,3l0 31c-3,5 -6,15 -10,15 -4,0 -5,-4 -5,-8l0 -38c0,-2 -2,-3 -4,-3l-9 0c-2,0 -4,1 -4,3l0 38c-1,2 -3,2 -4,2 1,-4 1,-7 1,-11 0,-8 -2,-14 -5,-20 -7,-11 -20,-21 -26,-25 4,2 11,5 19,5 12,0 7,-17 6,-19 0,1 -1,2 -5,6 -6,7 -15,-1 -23,-4 -7,-4 -15,0 -15,0 -5,6 0,10 0,10 8,1 17,9 23,15 -15,0 -24,14 -24,32 0,3 0,5 0,8 -2,2 -4,3 -6,3 1,-4 2,-7 2,-11 0,-8 -2,-14 -5,-20 -7,-11 -21,-21 -27,-25 4,2 11,5 20,5 11,0 6,-17 6,-19 0,1 -1,2 -5,6 -6,7 -16,-1 -23,-4 -8,-4 -15,0 -15,0 -5,6 -1,10 -1,10 9,1 18,9 24,15 -15,0 -24,13 -25,30 0,0 -1,0 -1,1 -3,8 -7,12 -11,12 1,-4 1,-7 1,-11 0,-18 -10,-32 -26,-32 -15,0 -24,14 -24,32l0 2c-9,16 -18,14 -28,-6 -1,-1 -1,-3 -2,-4 12,-16 25,-30 28,-39 3,-8 -11,-10 -15,-6 -3,4 -12,15 -21,28 -6,-15 -13,-31 -13,-31 -1,-2 -3,-3 -5,-2l-12 4c-2,1 -3,4 -2,6 10,22 15,34 19,43 -6,8 -11,15 -13,19 -6,10 6,25 9,16 2,-6 6,-13 11,-20 7,15 17,22 24,22 9,0 17,-9 22,-17 4,10 12,17 22,17 9,0 16,-5 21,-12 6,1 13,-2 18,-9 3,12 11,21 23,21 8,0 16,-5 20,-12 5,1 9,-1 13,-3 4,9 12,15 21,15 9,0 16,-5 21,-12 3,0 6,0 9,-1 1,9 5,13 15,13 7,0 12,-6 16,-12 2,8 6,12 15,12 14,0 22,-25 24,-30 2,-5 -5,-8 -7,-3z"/>
   <path class="fil1" d="M73 335c0,-1 -2,-2 -3,-2l-15 0c-6,0 -12,2 -17,4l-18 5c-4,1 -8,0 -12,-2 -2,-1 -4,-1 -4,1l0 9c0,2 2,5 4,6 4,2 8,3 12,2l0 62c0,2 1,4 3,4l12 0c0,0 1,-1 2,-1 1,-1 1,-70 1,-70 5,-2 11,-4 17,-4l0 71c0,2 2,4 3,4l12 0c1,0 1,-1 2,-1 1,-1 1,-6 1,-12l0 -76z"/>
   <path class="fil1" d="M485 147l0 0c-1,2 -2,4 -3,6l0 0c-1,1 -2,3 -3,4l0 0 -50 75c-3,-3 -5,-5 -8,-8l49 -82c6,-10 17,-27 23,-27 1,0 2,0 3,1 4,4 -4,19 -11,31zm-86 59c13,-29 53,-109 67,-139 1,1 3,2 4,3l-68 139c-1,-1 -2,-2 -3,-3zm64 -155c0,-9 7,-16 16,-16 8,0 15,7 15,16 0,8 -7,16 -15,16 -9,0 -16,-8 -16,-16zm-80 143c8,-24 36,-118 47,-152 1,1 3,2 5,2l-48 153c-1,-1 -2,-2 -4,-3zm41 -169c0,-9 7,-16 16,-16 8,0 15,7 15,16 0,8 -7,15 -15,15 -9,0 -16,-7 -16,-15zm-61 156l-9 -5 15 -61c1,0 4,-1 4,0 -1,33 -10,66 -10,66zm135 -68c-1,-1 -3,-2 -5,-2 -5,0 -12,9 -18,16l-1 1c0,1 -1,2 -1,2l-1 1c-3,5 -5,9 -6,9l-48 82c-5,-4 -9,-8 -13,-11l69 -140 1 0c1,0 2,0 3,0 10,0 18,-7 19,-17 1,-5 0,-11 -3,-15 -3,-4 -8,-7 -13,-8 -11,-2 -21,6 -22,17 -1,6 1,12 4,16 -13,29 -53,110 -67,139 -2,-1 -4,-2 -6,-4l48 -154c1,0 1,0 2,0 10,0 19,-9 19,-20 0,-12 -9,-21 -19,-21 -11,0 -20,9 -20,21 0,6 3,11 7,15 -10,32 -38,125 -47,152 -3,-3 -7,-5 -12,-8 7,-34 8,-62 8,-69l0 0c17,-4 18,-36 15,-52 -4,-19 -11,-26 -11,-26 0,3 1,5 1,8 0,17 -11,31 -18,37 0,1 -1,1 -1,2 -5,4 -9,11 -8,18 2,5 4,8 9,11 -9,20 -17,39 -22,57 -10,-3 -20,-5 -28,-2 -20,6 -48,24 -46,48 0,7 6,13 9,19 2,6 3,13 3,20 0,18 -11,34 -25,43 -12,8 -35,9 -38,-9 -1,-10 3,-22 6,-31 2,-5 7,-15 4,-20 -3,-3 -16,4 -18,5 -30,14 -57,46 -74,75l-9 17 16 0 8 -17c11,-21 26,-41 44,-57 5,-5 11,-10 17,-14 0,0 0,1 0,3 -1,9 -6,19 -8,29 -2,8 -4,18 1,25 7,9 26,7 34,6 30,-6 56,-30 56,-64 0,-18 -15,-30 -8,-49 4,-9 13,-17 21,-22 6,-5 17,2 25,5 2,1 4,2 6,3 -4,11 -6,21 -8,31 -3,13 -7,39 -8,47 0,0 -1,9 -1,13 -1,15 -3,24 -2,30 -8,-6 -9,-16 -5,-40 -6,5 -11,14 -11,24 0,17 12,30 26,30 14,0 26,-13 26,-30 0,-6 -2,-12 -5,-17 -3,22 -12,34 -21,36 4,-7 9,-20 13,-33 7,-17 16,-46 20,-60 2,-7 3,-12 4,-16 31,20 57,48 79,77 9,12 18,25 25,39 0,-1 2,-2 4,-4 3,-4 5,-5 9,-5l0 1c1,-1 1,-1 2,-1 -14,-26 -32,-50 -52,-70l49 -75 1 -1c0,0 0,0 0,-1l0 0c1,-1 3,-3 4,-6l0 0c8,-11 20,-31 12,-39z"/>
   <path class="fil1" d="M490 125c1,-3 0,-3 -1,-2 -7,6 -28,40 -24,41 9,-4 25,-31 25,-39z"/>
   <path class="fil1" d="M275 394c0,6 -2,12 -6,12 -4,0 -7,-5 -7,-13 0,-8 2,-18 7,-18 5,0 6,8 6,15l0 4zm32 -4c-2,4 -6,18 -11,18 -4,0 -5,-4 -5,-8l0 -38c0,-2 -2,-3 -4,-3l-9 0c-2,0 -3,1 -3,3l0 4c-3,-4 -7,-7 -14,-7 -8,0 -16,14 -16,32 0,17 4,32 14,32 9,0 15,-5 17,-10 2,7 6,10 14,10 14,0 22,-25 24,-30 3,-5 -5,-8 -7,-3z"/>
   <path class="fil1" d="M207 440c-8,0 -12,-6 -11,-9 0,-2 2,-3 5,-3 2,0 4,1 6,2 2,2 5,6 9,9 -3,1 -6,1 -9,1zm-108 -47c0,-8 3,-18 7,-18 4,0 6,3 6,6 0,5 -6,11 -13,12l0 0zm157 36c0,1 0,7 -10,9 -2,1 -4,1 -8,1l0 0c1,-1 1,-2 1,-3 2,-4 2,-8 2,-13 0,-11 -8,-17 -16,-19 16,-14 15,-45 -5,-45 -17,0 -24,25 -27,32l0 1 0 0c-2,5 -6,16 -10,16 -4,0 -5,-3 -5,-7 0,-5 0,-20 0,-20 0,-1 0,-2 -1,-3l0 -17c0,-1 -1,-2 -3,-2l-9 0c-2,0 -3,1 -3,3l0 20 -1 0 1 0c0,0 0,4 0,8 -6,5 -13,1 -13,1 3,0 5,-3 3,-6 -1,-2 -4,-1 -5,0l0 -23c0,-2 -2,-3 -4,-3l-9 0c-2,0 -4,1 -4,3l0 28c-1,4 -9,23 -19,23 -6,0 -10,-3 -11,-10 8,-1 23,-5 23,-25 0,-8 -3,-19 -18,-19 -12,0 -23,14 -23,32 0,17 6,32 24,32 11,0 19,-7 24,-15l0 12c0,2 2,4 4,4l9 0c2,0 4,-2 4,-4l0 -24c7,5 12,1 15,-2l0 9c0,15 3,20 15,20 14,0 22,-25 24,-30l0 0 0 0c5,-9 8,-18 14,-18 9,0 8,15 -10,28l0 8c2,0 5,0 7,-1 6,0 14,2 14,11 0,4 -1,8 -2,11l-1 1c0,0 -1,-1 -2,-2 -5,-5 -10,-11 -19,-11 -10,0 -15,6 -15,13 -1,9 6,20 21,21 0,0 1,0 1,0 1,0 1,0 2,0 8,0 14,-2 18,-5 3,1 6,2 9,2 9,0 15,-3 18,-6 4,-5 3,-13 0,-16z"/>
   <path class="fil1" d="M320 551c8,-5 17,-6 29,-7 -3,3 -6,7 -9,10 -7,0 -14,-1 -20,-3zm-10 -2c-3,-1 -6,-2 -9,-4 17,-11 40,-17 60,-17 -2,2 -4,6 -6,8l0 0c-14,2 -31,5 -44,13l-1 0zm-25 -11c12,-17 62,-28 89,-30 -3,5 -5,8 -8,12 -24,1 -53,7 -73,22 -3,-1 -5,-3 -8,-4zm-13 -9c28,-28 73,-39 110,-36 -1,3 -4,8 -5,10 -30,2 -74,7 -97,32 -3,-2 -5,-4 -8,-6zm-13 -12l1 -1c34,-33 85,-45 131,-41l0 0c-2,5 -3,7 -6,12 -40,-3 -87,9 -118,38 -3,-3 -6,-6 -8,-8zm-14 -17c1,0 2,0 3,-1 40,-35 97,-51 149,-44l1 0c-2,5 -3,10 -5,14 -48,-3 -101,10 -138,43 -4,-3 -7,-7 -10,-12zm252 -49c-23,72 -72,110 -76,113 26,-30 52,-62 69,-113l-11 0c-16,52 -43,91 -76,124 -3,1 -12,6 -16,8 36,-34 69,-80 83,-132l-11 0c-14,53 -48,102 -85,137 -4,1 -13,5 -18,6 38,-35 78,-89 94,-143l-9 0c-16,55 -57,109 -95,145l0 0c-5,1 -13,3 -18,4 39,-37 86,-93 103,-149l-10 0 0 0c-15,58 -60,111 -100,149 -8,0 -11,0 -18,0 15,-14 30,-29 45,-46l0 0 0 0c26,-30 49,-65 60,-103 0,0 -1,0 -1,0l-2 0 -1 0c-2,0 -5,-1 -5,-1 -61,-7 -113,11 -156,46 -3,-4 -4,-4 -6,-9 0,0 14,-11 23,-17 5,-3 19,-11 30,-17 -3,0 -5,1 -8,2 -8,3 -15,6 -22,9 -5,3 -8,6 -10,7l0 0c-2,1 -13,9 -16,11 0,-2 -3,-7 -4,-10l0 0 0 0c-2,0 -4,1 -6,1l0 0c-2,0 -3,0 -5,0 21,47 61,84 119,84 -3,3 -6,6 -8,9 -46,-2 -92,-30 -115,-71 -4,-7 -8,-17 -11,-25 0,0 0,-1 0,-1 -1,0 -4,-1 -8,-2 -1,-1 -2,-1 -3,-2 -1,0 -2,-1 -3,-2l0 0 0 1c3,8 10,24 14,31 23,44 71,74 121,74 1,0 1,0 2,-1 -3,4 -6,7 -9,10 -45,-2 -96,-32 -119,-73 -9,-16 -17,-33 -22,-50 -1,-1 -1,-2 -1,-3 -2,0 -3,0 -4,-1l0 0c-3,0 -5,-1 -6,-2 -1,0 -2,-1 -2,-1l0 1c5,21 13,42 25,59 50,72 126,73 126,73 -2,3 -4,5 -7,7 -52,-3 -101,-35 -127,-72 -15,-21 -24,-43 -30,-68l-12 0c6,26 18,50 32,71 11,18 63,73 131,75 -1,1 -5,4 -5,4 -44,-3 -98,-27 -133,-75 -16,-22 -29,-48 -34,-74l-1 -1 0 0c-1,1 -2,1 -3,2 -2,0 -3,0 -6,1 -1,0 -2,0 -4,1l0 0c5,18 9,33 18,49 30,55 90,97 151,104 37,4 75,-3 107,-19l1 0c9,-4 18,-9 26,-15 1,0 2,-1 3,-2 38,-26 72,-72 86,-118l-11 0z"/>
   <polygon class="fil2" points="537,332 537,332 "/>
   <polygon class="fil2" points="483,332 483,332 "/>
   <path class="fil0" d="M475 127c-13,-13 -39,39 -39,39 0,0 25,-46 37,-37l2 -2z"/>
   <path class="fil0" d="M602 149c0,0 -37,-6 -69,52 -32,58 -50,74 -62,57 -7,-11 -2,-29 7,-62 10,-33 1,-58 1,-58l3 -4c0,0 12,31 0,63 -13,31 -11,53 -7,59 5,6 10,19 55,-56 0,0 32,-57 72,-51z"/>
   <polygon class="fil1" points="112,524 114,523 107,509 105,511 108,516 89,525 91,528 109,519 "/>
   <path class="fil1" d="M119 540c-3,2 -4,1 -5,-1l-2 -3 5 -3 2 3c2,2 2,3 0,4zm-9 6c-2,2 -4,2 -5,-1l-3 -3 7 -4 2 3c2,2 1,4 -1,5zm12 -11l-4 -7 -20 13 5 7c2,3 5,4 9,1 2,-1 3,-4 2,-6l0 0c2,1 4,1 7,0 3,-2 3,-5 1,-8z"/>
   <path class="fil1" d="M130 564c-5,3 -8,5 -11,2 -2,-3 0,-6 5,-9 5,-5 8,-5 10,-3 2,3 1,6 -4,10zm6 -12c-3,-4 -8,-3 -15,2 -7,6 -7,10 -4,14 3,4 8,4 15,-2 6,-4 8,-9 4,-14z"/>
   <path class="fil1" d="M148 582c-4,4 -8,6 -10,4 -3,-3 0,-7 3,-10 3,-3 7,-7 10,-4 3,3 -1,8 -3,10zm6 -11c-2,-2 -4,-2 -6,-1l0 -1 2 -1 -3 -3 -22 22 3 3 7 -8c0,3 0,4 1,6 5,4 10,1 15,-4 4,-4 7,-9 3,-13z"/>
   <path class="fil1" d="M173 588l-6 7c-1,0 -1,0 -3,-2 -2,-2 -2,-3 -1,-5l4 -5 -2 -2 -5 6c-2,2 -2,5 1,8 2,1 3,2 4,2l-6 9 2 2 15 -18 -3 -2z"/>
   <path class="fil1" d="M188 600c3,2 1,6 -1,9l-6 -5c1,-2 4,-6 7,-4zm1 13c3,-5 6,-12 1,-15 -6,-3 -10,1 -13,6 -5,8 -5,12 0,15 4,2 8,0 10,-4l-3 -1c-1,2 -3,4 -6,2 -3,-2 -2,-5 1,-9l10 6z"/>
   <path class="fil1" d="M210 609c-6,-3 -11,2 -13,8 -3,5 -5,11 2,14 4,2 8,-1 10,-5l-3 -1c-1,2 -3,5 -6,3 -4,-2 -2,-7 0,-10 2,-4 5,-8 8,-6 3,1 3,4 2,6l3 1c1,-4 1,-8 -3,-10z"/>
   <polygon class="fil1" points="234,620 222,627 226,617 223,616 215,637 218,638 221,631 224,629 226,641 230,643 228,627 238,621 "/>
   <path class="fil1" d="M253 637c-2,6 -3,9 -7,8 -4,-1 -4,-5 -3,-10 2,-7 4,-9 8,-8 3,1 4,4 2,10zm-2 -13c-5,-1 -9,2 -11,10 -2,9 0,12 5,14 5,1 9,-1 11,-10 2,-7 1,-12 -5,-14z"/>
   <path class="fil1" d="M274 632c4,0 3,4 3,8l-8 -2c1,-3 2,-7 5,-6zm6 11c1,-6 1,-13 -5,-14 -7,-1 -9,5 -10,11 -1,9 1,12 6,13 5,1 8,-3 8,-7l-3 -1c0,3 -1,6 -5,5 -3,0 -3,-4 -2,-9l11 2z"/>
   <path class="fil1" d="M311 653c-4,0 -5,-4 -5,-9 0,-7 1,-10 5,-10 3,0 5,3 5,10 0,5 -1,9 -5,9zm0 -22c-6,1 -9,5 -9,13 0,9 4,12 9,12 5,-1 8,-3 8,-13 0,-7 -3,-12 -8,-12z"/>
   <path class="fil1" d="M338 651c-4,1 -6,-2 -6,-9 -1,-4 0,-8 4,-8 3,0 5,3 5,7 1,6 0,10 -3,10zm7 -10c-1,-7 -4,-10 -9,-10 -3,0 -4,2 -5,4 -1,-4 1,-6 4,-8 4,-1 6,-2 6,-5l-2 0c0,1 -3,2 -5,3 -5,2 -7,6 -6,16 1,9 4,14 10,13 6,-1 8,-5 7,-13z"/>
   <path class="fil1" d="M365 646l-4 1 -1 -8 3 -1c3,-1 5,1 5,3 1,3 0,4 -3,5zm7 -6c-1,-3 -5,-6 -8,-5l-5 1 -2 -9 -8 2 1 2 4 -1 5 20 8 -2c3,-1 6,-4 5,-8z"/>
   <path class="fil1" d="M383 622c3,-1 5,2 6,6l-7 2c-1,-3 -2,-7 1,-8zm11 10l-3 1c1,3 2,5 -1,6 -4,2 -6,-1 -7,-6l11 -4c-3,-6 -6,-12 -12,-10 -6,2 -5,9 -3,14 3,9 7,11 12,9 4,-2 5,-6 3,-10z"/>
   <path class="fil1" d="M409 631c0,-4 0,-6 -2,-11l-3 -6 6 -2 7 15 -8 4zm13 -6l-2 1 -9 -18 -11 5 3 7c3,5 3,8 3,13l-2 0 4 9 3 -2 -3 -5 13 -6 3 5 2 -1 -4 -8z"/>
   <path class="fil1" d="M430 597l3 19c0,1 0,2 1,3l0 0c-1,-1 -1,-2 -2,-3l-9 -15 -3 2 13 20 3 -2 -3 -19c0,-1 -1,-2 -1,-3l0 0c1,1 1,2 1,3l10 14 3 -1 -13 -20 -3 2z"/>
   <polygon class="fil1" points="450,583 457,590 450,595 444,588 441,590 456,608 459,606 452,597 458,592 465,601 468,599 453,581 "/>
   <path class="fil1" d="M466 571c3,-2 6,1 8,3l-5 5c-2,-2 -5,-5 -3,-8zm15 5l-2 2c2,2 3,4 1,7 -3,2 -5,0 -9,-4l8 -7c-4,-5 -10,-9 -15,-5 -4,5 0,10 4,14 6,7 10,7 14,4 4,-4 2,-8 -1,-11z"/>
   <polygon class="fil1" points="483,550 491,556 486,562 478,556 476,559 494,573 496,571 488,564 493,558 502,565 504,562 486,547 "/>
   <path class="fil1" d="M498 530l10 16c1,1 2,2 2,2l0 0c0,0 -1,-1 -2,-1l-15 -10 -2 3 20 12 2 -3 -10 -16c-1,0 -2,-1 -2,-2l0 0c0,1 1,2 2,2l15 9 2 -2 -20 -13 -2 3z"/>
   <path class="fil1" d="M515 521c-3,-1 -7,-4 -5,-7 1,-3 5,-1 8,0l-3 7zm10 -7l-1 3c2,1 4,3 3,5 -2,4 -5,3 -10,0l5 -10c-5,-2 -12,-5 -15,1 -3,5 3,9 8,12 8,4 12,3 14,-1 3,-5 0,-8 -4,-10z"/>
  </g>
 </g>
</svg>
