<?xml version="1.0" encoding="utf-8"?>
<!-- Generator: Adobe Illustrator 19.0.1, SVG Export Plug-In . SVG Version: 6.00 Build 0)  -->
<svg version="1.1" id="svg-image-viem" xmlns="http://www.w3.org/2000/svg" xmlns:xlink="http://www.w3.org/1999/xlink" x="0px" y="0px"
	 viewBox="0 0 96.6 160.7" style="enable-background:new 0 0 96.6 160.7;" xml:space="preserve">
<style type="text/css">
	.st0{fill:#8a1734}
</style>
<g>
	<path class="st0" d="M39.9,6.9c-3.7,0-5.7-1-7.4-1.9c-1.6-0.8-2.9-1.5-5.8-1.5c-2.8,0-4.2,0.7-5.7,1.5c-1.7,0.9-3.7,1.9-7.4,1.9
		S7.8,5.9,6.1,5C4.6,4.3,3.2,3.6,0.4,3.6V0c3.7,0,5.7,1,7.4,1.9c1.6,0.8,2.9,1.5,5.7,1.5s4.2-0.7,5.7-1.5C21,1,23,0,26.7,0
		s5.7,1,7.4,1.9c1.6,0.8,2.9,1.5,5.8,1.5c2.9,0,4.2-0.7,5.8-1.5C47.4,1,49.3,0,53,0v3.6c-2.9,0-4.2,0.7-5.8,1.5
		C45.6,5.9,43.6,6.9,39.9,6.9"/>
	<path class="st0" d="M53,12.7v-1.3h-0.4h-7c-1.3,0-2.4,0.8-2.9,2l0,0c-1.1,3-2.2,6.1-3.2,9.1c-2,5.6-6.2,17.3-6.2,17.3
		c0-7.8,0-16.3,0-24.1c0-0.4,0-0.8,0.1-1.2c0.2-1.2,1.3-2,2.5-2v-1.3h-8.5v1.3c1.2,0,2.3,0.8,2.5,2c0.1,0.4,0.1,0.8,0.1,1.2
		c0,9.3,0,18.5,0,27.8c0,0.1,0,0.1,0,0.2c0,1.4-1.2,2.6-2.6,2.6v1.3h0.7h3.4c3.8,0,6.2-1,7.4-4c1.1-2.7,2-5.4,3-8.1
		c1.5-4.3,3.1-8.5,4.6-12.8c0.1-0.3,0.6-1.4,0.6-1.4c0,0.7,0,1.7,0,2.4c0,6.2,0,12.4,0,18.6c0,0.6,0,1.3,0,1.9l0,0
		c-0.2,1.2-1.3,2-2.5,2v1.3H53v-1.3c-1.2,0-2.3-0.8-2.5-2c0-0.1,0-0.2,0-0.2c0-0.1,0-0.3,0-0.4c0-9.3,0-18.6,0-27.9
		c0-0.4,0-0.9,0.1-1.3C50.9,13.4,51.9,12.7,53,12.7"/>
	<path class="st0" d="M64.9,55.6c0.1,0,0.2,0,0.3,0v-1.3h-0.4h-6.9c-1.3,0-2.4,0.8-2.8,2l0,0c-0.4,1.1-0.8,2.2-1.2,3.3
		C51,68,45.7,82.8,45.5,83.3C45.4,83,41.1,71,39,65.1c-1.1-3-2.1-6-3.2-9c-0.3-0.9-0.6-1.8-1.8-1.8h-8.5v1.3c1.2,0,2.3,0.8,2.5,2
		c0,0.2,0,0.4,0,0.6c0,9.4,0,18.8,0,28.2c0,0.1,0,0.6,0,0.6c-0.2,1.2-1.3,2-2.5,2v1.3H34V89c-1.2,0-2.2-0.8-2.5-1.9
		c0-0.4-0.1-0.8-0.1-1.3c0-4.3,0-8.7,0-13v-8.4h0.2c0.1,0.3,0.3,0.6,0.4,0.9c1.7,4.7,3.4,9.5,5.1,14.2c0.9,2.4,1.5,4.9,2.7,7.2
		c0.9,1.9,2.1,3.4,4.3,3.5h5.7H50v-1.3l0,0c-1.3,0-2.2-1.2-2-2.5c0.1-0.5,0.2-1,0.4-1.5c0.6-2.5,5.7-16.2,7.2-20.3
		c0,0,0,10-0.1,16.6l0,0c0,1.5,0,3.1,0,4.6c0,0.4,0,0.8-0.1,1.2c-0.2,1.2-1.3,2-2.5,2v1.3h3.8h4.7h3.8V89c-1.2,0-2.3-0.8-2.5-2
		c0-0.1,0-0.2,0-0.2c0-0.6-0.1-1.1-0.1-1.7c0-1.3,0-2.5,0-3.8l0,0c0-6.7,0-19.4,0-22.9C62.6,57,63.5,55.8,64.9,55.6"/>
	<path class="st0" d="M18.9,26.9L18.9,26.9L18.9,26.9c2.4-1.2,4.1-4.1,4.1-7.5c0-4.4-2.9-8-6.5-8c-0.1,0-0.5,0-0.7,0H0.3v1.3
		c0.7,0,1.4,0.3,1.8,1c0.5,0.9,0.4,2.2,0.4,3.4c0,6.2,0,12.5,0,18.7c0,2.7,0,5.4-0.1,8.2c0,0.7-0.2,1.3-0.5,1.8
		c-0.4,0.5-1,0.8-1.6,0.8v1.3h15.5c0,0,0.9,0,1.4-0.1c0,0,0,0,0.1,0c5-0.4,9-5,9-10.5C26.2,32.2,23.1,28.1,18.9,26.9 M9.6,13.1h3.2
		l0,0c2.1,0.1,3.8,3,3.8,6.6s-1.7,6.5-3.8,6.6l0,0H9.6V13.1z M13.9,46c-0.1,0-0.1,0-0.2,0l0,0H9.6V28.3h4.1l0,0c0.1,0,0.1,0,0.2,0
		c3,0,5.4,4,5.4,8.8C19.3,42,16.9,46,13.9,46"/>
	<path class="st0" d="M22.3,67.3c-0.1-7.3-0.9-13-5.9-13h-14c-0.9,0-1.3,0.1-0.9,1.1c1.7,4.8,1.2,6.7,1.2,6.7c3.1-0.5,4.8-3,5.9-4.9
		c1.7-3,5.4-1.7,6.5,1.6c0,0.1,0.1,0.3,0.1,0.4c0,0.2,0.1,0.3,0.1,0.5c0.1,1.6,0.2,4.8,0.3,7.6V69c-1,0-2.1,0-3.1,0
		c-0.4,0-0.8,0-1.1-0.1c-1.2-0.2-2-1.3-2-2.5H8V75h1.3c0-1.2,0.8-2.3,2-2.5c0.4-0.1,0.8-0.1,1.2-0.1c1,0,2,0,3.1,0
		c0,0.1,0,9.5-0.3,12.5c0,0.2,0,0.3-0.1,0.5c0,0.2-0.1,0.3-0.1,0.4c-1.1,3.3-5.6,4.6-7.4,1.6c-1.1-1.9-2.8-4.4-5.9-4.9
		c0,0,0.5,2-1.2,6.7c-0.4,1,0.1,1.1,0.9,1.1h14.9c4.9,0,5.8-5.5,5.9-12.6l0,0V67.3z"/>
	<path class="st0" d="M1.4,109.9h2.3c1.1,0,1.8,0.2,2.3,0.5s0.7,0.8,0.7,1.5c0,0.4-0.1,0.8-0.3,1.1c-0.2,0.3-0.6,0.5-1,0.6v0.1
		c0.5,0.1,0.9,0.3,1.2,0.6c0.3,0.3,0.4,0.7,0.4,1.2c0,0.7-0.2,1.2-0.7,1.6s-1.2,0.6-2,0.6H1.4V109.9z M2.7,113.1h1.2
		c0.5,0,0.9-0.1,1.2-0.3c0.2-0.2,0.4-0.5,0.4-0.9s-0.1-0.6-0.4-0.8C4.7,111,4.3,111,3.7,111h-1V113.1z M2.7,114.1v2.4H4
		c0.5,0,0.9-0.1,1.2-0.3c0.3-0.2,0.4-0.5,0.4-1c0-0.4-0.1-0.7-0.4-0.9c-0.3-0.2-0.7-0.3-1.3-0.3H2.7V114.1z"/>
	<path class="st0" d="M10.7,117.7c-0.9,0-1.6-0.3-2-0.8c-0.5-0.5-0.7-1.3-0.7-2.2c0-1,0.2-1.7,0.7-2.3c0.5-0.5,1.2-0.8,2.1-0.8
		c0.6,0,1.2,0.1,1.7,0.3l-0.4,1c-0.5-0.2-1-0.3-1.3-0.3c-1,0-1.5,0.7-1.5,2c0,0.7,0.1,1.1,0.4,1.5c0.3,0.3,0.6,0.5,1.1,0.5
		c0.6,0,1.1-0.1,1.6-0.4v1.1c-0.2,0.1-0.5,0.2-0.7,0.3C11.4,117.7,11.1,117.7,10.7,117.7"/>
	<path class="st0" d="M16.3,117.7c-0.9,0-1.6-0.3-2.1-0.8s-0.8-1.3-0.8-2.2c0-1,0.2-1.7,0.7-2.2s1.1-0.8,2-0.8
		c0.8,0,1.4,0.2,1.8,0.7s0.7,1.1,0.7,1.9v0.7h-3.9c0,0.6,0.2,1,0.5,1.3s0.7,0.5,1.2,0.5c0.3,0,0.7,0,1-0.1s0.6-0.2,1-0.3v1
		c-0.3,0.1-0.6,0.2-0.9,0.3C17,117.7,16.7,117.7,16.3,117.7 M16.1,112.6c-0.4,0-0.7,0.1-0.9,0.4c-0.2,0.2-0.4,0.6-0.4,1.1h2.6
		c0-0.5-0.1-0.8-0.3-1.1C16.8,112.7,16.5,112.6,16.1,112.6"/>
	<path class="st0" d="M22.9,117.7c-0.7,0-1.3-0.3-1.7-0.8h-0.1c0,0.5,0.1,0.8,0.1,0.9v2.4H20v-8.4h1c0,0.1,0.1,0.4,0.2,0.8h0.1
		c0.4-0.6,1-0.9,1.7-0.9s1.3,0.3,1.7,0.8c0.4,0.5,0.6,1.3,0.6,2.2c0,1-0.2,1.7-0.6,2.2C24.2,117.4,23.7,117.7,22.9,117.7
		 M22.6,112.7c-0.5,0-0.9,0.1-1.1,0.4s-0.3,0.7-0.3,1.4v0.2c0,0.7,0.1,1.2,0.3,1.5c0.2,0.3,0.6,0.5,1.1,0.5c0.4,0,0.8-0.2,1-0.5
		c0.2-0.4,0.4-0.9,0.4-1.5c0-0.7-0.1-1.1-0.3-1.5C23.4,112.9,23.1,112.7,22.6,112.7"/>
	<path class="st0" d="M31.9,114.7c0,1-0.2,1.7-0.7,2.2s-1.2,0.8-2,0.8c-0.5,0-1-0.1-1.4-0.4c-0.4-0.2-0.7-0.6-1-1.1
		c-0.2-0.5-0.3-1-0.3-1.6c0-0.9,0.2-1.7,0.7-2.2s1.2-0.8,2.1-0.8c0.8,0,1.5,0.3,2,0.8C31.6,113,31.9,113.8,31.9,114.7 M27.6,114.7
		c0,1.3,0.5,2,1.5,2s1.5-0.7,1.5-2s-0.5-2-1.5-2c-0.5,0-0.9,0.2-1.1,0.5C27.7,113.5,27.6,114,27.6,114.7"/>
	<path class="st0" d="M35.6,117.7c-0.9,0-1.6-0.3-2-0.8c-0.5-0.5-0.7-1.3-0.7-2.2c0-1,0.2-1.7,0.7-2.3c0.5-0.5,1.2-0.8,2.1-0.8
		c0.6,0,1.2,0.1,1.7,0.3l-0.4,1c-0.5-0.2-1-0.3-1.3-0.3c-1,0-1.5,0.7-1.5,2c0,0.7,0.1,1.1,0.4,1.5c0.3,0.3,0.6,0.5,1.1,0.5
		c0.6,0,1.1-0.1,1.6-0.4v1.1c-0.2,0.1-0.5,0.2-0.7,0.3C36.3,117.7,36,117.7,35.6,117.7"/>
	<path class="st0" d="M41,117.7c-0.9,0-1.6-0.3-2-0.8c-0.5-0.5-0.7-1.3-0.7-2.2c0-1,0.2-1.7,0.7-2.3c0.5-0.5,1.2-0.8,2.1-0.8
		c0.6,0,1.2,0.1,1.7,0.3l-0.4,1c-0.5-0.2-1-0.3-1.3-0.3c-1,0-1.5,0.7-1.5,2c0,0.7,0.1,1.1,0.4,1.5c0.3,0.3,0.6,0.5,1.1,0.5
		c0.6,0,1.1-0.1,1.6-0.4v1.1c-0.2,0.1-0.5,0.2-0.7,0.3C41.7,117.7,41.4,117.7,41,117.7"/>
	<path class="st0" d="M45.2,111.8v3c0,0.3,0,0.9-0.1,1.5l2.9-4.5h1.5v5.8h-1.2v-2.9c0-0.2,0-0.4,0-0.8s0-0.6,0.1-0.8l-2.9,4.5H44
		v-5.8C44,111.8,45.2,111.8,45.2,111.8z"/>
	<path class="st0" d="M52.5,111.8v3c0,0.3,0,0.9-0.1,1.5l2.9-4.5h1.5v5.8h-1.2v-2.9c0-0.2,0-0.4,0-0.8s0-0.6,0.1-0.8l-2.9,4.5h-1.5
		v-5.8C51.3,111.8,52.5,111.8,52.5,111.8z M54,111.1c-0.7,0-1.3-0.1-1.6-0.4s-0.5-0.7-0.6-1.3h1.1c0,0.3,0.1,0.4,0.1,0.6
		c0.1,0.1,0.2,0.2,0.3,0.3c0.1,0.1,0.4,0.1,0.7,0.1s0.6-0.1,0.8-0.2c0.2-0.2,0.3-0.4,0.3-0.8h1.1c-0.1,0.6-0.3,1-0.6,1.3
		C55.3,110.9,54.8,111.1,54,111.1"/>
	<path class="st0" d="M61,117.7c-0.9,0-1.6-0.3-2-0.8c-0.5-0.5-0.7-1.3-0.7-2.2c0-1,0.2-1.7,0.7-2.3c0.5-0.5,1.2-0.8,2.1-0.8
		c0.6,0,1.2,0.1,1.7,0.3l-0.4,1c-0.5-0.2-1-0.3-1.3-0.3c-1,0-1.5,0.7-1.5,2c0,0.7,0.1,1.1,0.4,1.5c0.3,0.3,0.6,0.5,1.1,0.5
		c0.6,0,1.1-0.1,1.6-0.4v1.1c-0.2,0.1-0.5,0.2-0.7,0.3C61.6,117.7,61.3,117.7,61,117.7"/>
	<polygon class="st0" points="67.6,111.8 68.9,111.8 66.5,114.6 69.1,117.6 67.7,117.6 65.2,114.7 65.2,117.6 64,117.6 64,111.8 
		65.2,111.8 65.2,114.6 	"/>
	<path class="st0" d="M71.3,111.8v3c0,0.3,0,0.9-0.1,1.5l2.9-4.5h1.5v5.8h-1.2v-2.9c0-0.2,0-0.4,0-0.8s0-0.6,0.1-0.8l-2.9,4.5h-1.5
		v-5.8C70.1,111.8,71.3,111.8,71.3,111.8z"/>
	<path class="st0" d="M78.6,111.8v3c0,0.3,0,0.9-0.1,1.5l2.9-4.5H83v5.8h-1.2v-2.9c0-0.2,0-0.4,0-0.8s0-0.6,0.1-0.8l-2.9,4.5h-1.5
		v-5.8C77.5,111.8,78.6,111.8,78.6,111.8z M80.1,111.1c-0.7,0-1.3-0.1-1.6-0.4c-0.3-0.3-0.5-0.7-0.6-1.3H79c0,0.3,0.1,0.4,0.1,0.6
		c0.1,0.1,0.2,0.2,0.3,0.3c0.1,0.1,0.4,0.1,0.7,0.1c0.3,0,0.6-0.1,0.8-0.2c0.2-0.2,0.3-0.4,0.3-0.8h1.1c-0.1,0.6-0.3,1-0.6,1.3
		C81.4,110.9,80.9,111.1,80.1,111.1"/>
	<path class="st0" d="M2.4,125.3v3c0,0.3,0,0.9-0.1,1.5l2.9-4.5h1.5v5.8H5.6v-2.9c0-0.2,0-0.4,0-0.8s0-0.6,0.1-0.8l-2.9,4.5H1.3
		v-5.8H2.4z"/>
	<path class="st0" d="M10.9,131.2c-0.9,0-1.6-0.3-2-0.8c-0.5-0.5-0.7-1.3-0.7-2.2c0-1,0.2-1.7,0.7-2.3c0.5-0.5,1.2-0.8,2.1-0.8
		c0.6,0,1.2,0.1,1.7,0.3l-0.4,1c-0.5-0.2-1-0.3-1.3-0.3c-1,0-1.5,0.7-1.5,2c0,0.7,0.1,1.1,0.4,1.5c0.3,0.3,0.6,0.5,1.1,0.5
		c0.6,0,1.1-0.1,1.6-0.4v1.1c-0.2,0.1-0.5,0.2-0.7,0.3C11.6,131.2,11.3,131.2,10.9,131.2"/>
	<polygon class="st0" points="18.3,125.3 18.3,126.3 16.4,126.3 16.4,131.1 15.2,131.1 15.2,126.3 13.3,126.3 13.3,125.3 	"/>
	<path class="st0" d="M24.6,128.2c0,1-0.2,1.7-0.7,2.2s-1.2,0.8-2,0.8c-0.5,0-1-0.1-1.4-0.4c-0.4-0.2-0.7-0.6-1-1.1
		c-0.2-0.5-0.3-1-0.3-1.6c0-0.9,0.2-1.7,0.7-2.2s1.2-0.8,2.1-0.8c0.8,0,1.5,0.3,2,0.8C24.4,126.5,24.6,127.3,24.6,128.2 M20.4,128.2
		c0,1.3,0.5,2,1.5,2s1.5-0.7,1.5-2s-0.5-2-1.5-2c-0.5,0-0.9,0.2-1.1,0.5C20.5,127,20.4,127.5,20.4,128.2"/>
	<path class="st0" d="M29,131.2c-0.7,0-1.3-0.3-1.7-0.8h-0.1c0,0.5,0.1,0.8,0.1,0.9v2.4H26v-8.4h1c0,0.1,0.1,0.4,0.2,0.8h0.1
		c0.4-0.6,1-0.9,1.7-0.9s1.3,0.3,1.7,0.8c0.4,0.5,0.6,1.3,0.6,2.2c0,1-0.2,1.7-0.6,2.2C30.3,131,29.7,131.2,29,131.2 M28.7,126.2
		c-0.5,0-0.9,0.1-1.1,0.4s-0.3,0.7-0.3,1.4v0.2c0,0.7,0.1,1.2,0.3,1.5c0.2,0.3,0.6,0.5,1.1,0.5c0.4,0,0.8-0.2,1-0.5
		c0.2-0.4,0.4-0.9,0.4-1.5c0-0.7-0.1-1.1-0.3-1.5C29.5,126.4,29.1,126.2,28.7,126.2"/>
	<path class="st0" d="M33.9,125.3v3c0,0.3,0,0.9-0.1,1.5l2.9-4.5h1.5v5.8H37v-2.9c0-0.2,0-0.4,0-0.8s0-0.6,0.1-0.8l-2.9,4.5h-1.5
		v-5.8H33.9z"/>
	<polygon class="st0" points="43.7,125.3 45,125.3 42.6,128.1 45.3,131.1 43.8,131.1 41.3,128.2 41.3,131.1 40.1,131.1 40.1,125.3 
		41.3,125.3 41.3,128.1 	"/>
	<path class="st0" d="M51.4,128.2c0,1-0.2,1.7-0.7,2.2s-1.2,0.8-2,0.8c-0.5,0-1-0.1-1.4-0.4c-0.4-0.2-0.7-0.6-1-1.1
		c-0.2-0.5-0.3-1-0.3-1.6c0-0.9,0.2-1.7,0.7-2.2s1.2-0.8,2.1-0.8c0.8,0,1.5,0.3,2,0.8C51.1,126.5,51.4,127.3,51.4,128.2 M47.1,128.2
		c0,1.3,0.5,2,1.5,2s1.5-0.7,1.5-2s-0.5-2-1.5-2c-0.5,0-0.9,0.2-1.1,0.5C47.3,127,47.1,127.5,47.1,128.2"/>
	<rect x="52.3" y="127.7" class="st0" width="2.7" height="1.1"/>
	<path class="st0" d="M2.4,144.7c-0.7,0-1.2-0.1-1.7-0.3v-1c0.6,0.2,1.1,0.4,1.6,0.4c1,0,1.5-0.6,1.6-1.7H1.4v-0.9H4
		c0-0.5-0.2-0.9-0.4-1.2c-0.2-0.2-0.6-0.4-1.1-0.4c-0.3,0-0.8,0.1-1.4,0.3L0.8,139c0.2-0.1,0.5-0.2,0.8-0.3s0.6-0.1,0.9-0.1
		c0.9,0,1.6,0.3,2.1,0.8s0.7,1.3,0.7,2.2c0,1-0.2,1.7-0.7,2.3C4,144.5,3.3,144.7,2.4,144.7"/>
	<polygon class="st0" points="11.1,138.8 11.1,139.8 9.2,139.8 9.2,144.6 7.9,144.6 7.9,139.8 6,139.8 6,138.8 	"/>
	<polygon class="st0" points="13.4,138.8 13.4,141.1 16.2,141.1 16.2,138.8 17.4,138.8 17.4,144.6 16.2,144.6 16.2,142.1 
		13.4,142.1 13.4,144.6 12.2,144.6 12.2,138.8 	"/>
	<path class="st0" d="M24.4,141.7c0,1-0.2,1.7-0.7,2.2s-1.2,0.8-2,0.8c-0.5,0-1-0.1-1.4-0.4c-0.4-0.2-0.7-0.6-1-1.1
		c-0.2-0.5-0.3-1-0.3-1.6c0-0.9,0.2-1.7,0.7-2.2s1.2-0.8,2.1-0.8c0.8,0,1.5,0.3,2,0.8C24.1,140,24.4,140.8,24.4,141.7 M20.1,141.7
		c0,1.3,0.5,2,1.5,2s1.5-0.7,1.5-2s-0.5-2-1.5-2c-0.5,0-0.9,0.2-1.1,0.5C20.2,140.6,20.1,141,20.1,141.7"/>
	<polygon class="st0" points="29.6,138.8 29.6,139.8 27,139.8 27,144.6 25.8,144.6 25.8,138.8 	"/>
	<path class="st0" d="M33.6,144.7c-0.7,0-1.3-0.3-1.7-0.8h-0.1c0,0.5,0.1,0.8,0.1,0.9v2.4h-1.2v-8.4h1c0,0.1,0.1,0.4,0.2,0.8H32
		c0.4-0.6,1-0.9,1.7-0.9c0.7,0,1.3,0.3,1.7,0.8s0.6,1.3,0.6,2.2c0,1-0.2,1.7-0.6,2.2C34.9,144.5,34.4,144.7,33.6,144.7 M33.3,139.7
		c-0.5,0-0.9,0.1-1.1,0.4c-0.2,0.3-0.3,0.7-0.3,1.4v0.2c0,0.7,0.1,1.2,0.3,1.5s0.6,0.5,1.1,0.5c0.4,0,0.8-0.2,1-0.5
		c0.2-0.4,0.4-0.9,0.4-1.5c0-0.7-0.1-1.1-0.3-1.5C34.1,139.9,33.8,139.7,33.3,139.7"/>
	<path class="st0" d="M41.1,144.6l-0.2-0.8l0,0c-0.3,0.4-0.6,0.6-0.9,0.7c-0.3,0.1-0.6,0.2-1.1,0.2c-0.6,0-1-0.2-1.3-0.5
		s-0.5-0.7-0.5-1.3s0.2-1.1,0.7-1.4c0.4-0.3,1.1-0.5,2-0.5h1v-0.3c0-0.4-0.1-0.7-0.3-0.8c-0.2-0.2-0.4-0.3-0.8-0.3
		c-0.3,0-0.6,0-0.9,0.1c-0.3,0.1-0.5,0.2-0.8,0.3l-0.4-0.9c0.3-0.2,0.7-0.3,1-0.4c0.4-0.1,0.7-0.1,1.1-0.1c0.7,0,1.3,0.2,1.7,0.5
		s0.6,0.8,0.6,1.5v3.9h-0.9V144.6z M39.2,143.8c0.4,0,0.8-0.1,1.1-0.4c0.3-0.3,0.4-0.6,0.4-1.1v-0.5h-0.8c-0.6,0-1,0.1-1.3,0.3
		s-0.4,0.4-0.4,0.8c0,0.3,0.1,0.5,0.2,0.6C38.7,143.7,38.9,143.8,39.2,143.8"/>
	<path class="st0" d="M50.5,141.7c0,0.9-0.3,1.6-0.8,2.1s-1.3,0.8-2.2,0.9v2.5h-1.2v-2.5c-0.9-0.1-1.7-0.4-2.2-0.9s-0.8-1.2-0.8-2.1
		c0-0.9,0.3-1.6,0.8-2.1s1.3-0.8,2.2-0.9v-2.3h1.2v2.3c0.9,0.1,1.7,0.4,2.2,0.9C50.2,140.2,50.5,140.8,50.5,141.7 M44.6,141.7
		c0,0.6,0.1,1,0.4,1.4c0.3,0.4,0.7,0.6,1.3,0.6v-4c-0.6,0.1-1,0.3-1.3,0.6C44.8,140.7,44.6,141.1,44.6,141.7 M49.2,141.7
		c0-0.6-0.1-1-0.4-1.4c-0.3-0.3-0.7-0.6-1.3-0.6v4c0.6-0.1,1-0.3,1.3-0.6C49.1,142.7,49.2,142.3,49.2,141.7"/>
	<path class="st0" d="M53.1,138.8v3c0,0.3,0,0.9-0.1,1.5l2.9-4.5h1.5v5.8h-1.2v-2.9c0-0.2,0-0.4,0-0.8c0-0.4,0-0.6,0.1-0.8l-2.9,4.5
		h-1.5v-5.8H53.1z"/>
	<path class="st0" d="M60.3,138.8v2.1c0,0.6,0.3,0.9,0.9,0.9c0.3,0,0.6,0,0.9-0.1c0.3-0.1,0.6-0.2,0.9-0.4v-2.5h1.2v5.8H63v-2.5
		c-0.3,0.2-0.7,0.4-1,0.5s-0.7,0.2-1,0.2c-0.6,0-1.1-0.2-1.4-0.5c-0.3-0.3-0.5-0.8-0.5-1.3v-2.2H60.3z"/>
	<path class="st0" d="M68.6,144.7c-0.9,0-1.6-0.3-2.1-0.8s-0.8-1.3-0.8-2.2c0-1,0.2-1.7,0.7-2.2s1.1-0.8,2-0.8
		c0.8,0,1.4,0.2,1.8,0.7s0.7,1.1,0.7,1.9v0.7H67c0,0.6,0.2,1,0.5,1.3s0.7,0.5,1.2,0.5c0.3,0,0.7,0,1-0.1s0.6-0.2,1-0.3v1
		c-0.3,0.1-0.6,0.2-0.9,0.3C69.4,144.7,69,144.7,68.6,144.7 M68.4,139.6c-0.4,0-0.7,0.1-0.9,0.4c-0.2,0.2-0.4,0.6-0.4,1.1h2.6
		c0-0.5-0.1-0.8-0.3-1.1C69.1,139.7,68.8,139.6,68.4,139.6"/>
	<path class="st0" d="M74.6,144.7c-0.9,0-1.6-0.3-2-0.8c-0.5-0.5-0.7-1.3-0.7-2.2c0-1,0.2-1.7,0.7-2.3c0.5-0.5,1.2-0.8,2.1-0.8
		c0.6,0,1.2,0.1,1.7,0.3l-0.4,1c-0.5-0.2-1-0.3-1.3-0.3c-1,0-1.5,0.7-1.5,2c0,0.7,0.1,1.1,0.4,1.5c0.3,0.3,0.6,0.5,1.1,0.5
		c0.6,0,1.1-0.1,1.6-0.4v1.1c-0.2,0.1-0.5,0.2-0.7,0.3C75.3,144.7,75,144.7,74.6,144.7"/>
	<polygon class="st0" points="81.3,138.8 82.6,138.8 80.2,141.6 82.8,144.6 81.4,144.6 78.9,141.7 78.9,144.6 77.6,144.6 
		77.6,138.8 78.9,138.8 78.9,141.6 	"/>
	<path class="st0" d="M85,138.8v3c0,0.3,0,0.9-0.1,1.5l2.9-4.5h1.5v5.8h-1.2v-2.9c0-0.2,0-0.4,0-0.8c0-0.4,0-0.6,0.1-0.8l-2.9,4.5
		h-1.5v-5.8H85z"/>
	<path class="st0" d="M92.3,138.8v3c0,0.3,0,0.9-0.1,1.5l2.9-4.5h1.5v5.8h-1.2v-2.9c0-0.2,0-0.4,0-0.8c0-0.4,0-0.6,0.1-0.8l-2.9,4.5
		h-1.5v-5.8H92.3z M93.8,138.1c-0.7,0-1.3-0.1-1.6-0.4c-0.3-0.3-0.5-0.7-0.6-1.3h1.1c0,0.3,0.1,0.4,0.1,0.6c0.1,0.1,0.2,0.2,0.3,0.3
		c0.1,0.1,0.4,0.1,0.7,0.1c0.3,0,0.6-0.1,0.8-0.2c0.2-0.2,0.3-0.4,0.3-0.8H96c-0.1,0.6-0.3,1-0.6,1.3
		C95.1,137.9,94.6,138.1,93.8,138.1"/>
	<path class="st0" d="M4.6,156.9l0.1-0.3c0.1-0.5,0.3-0.9,0.4-1.2l1.3-3.2H8v5.8H6.9v-4.7l-0.1,0.3c-0.2,0.6-0.3,1-0.4,1.2l-1.3,3.1
		H4.2L2.9,155c-0.2-0.5-0.3-1-0.5-1.5v4.7H1.3v-5.8h1.6l1.3,3.1C4.3,155.7,4.4,156.2,4.6,156.9"/>
	<path class="st0" d="M8.9,152.3h1.3l1.2,3.3c0.2,0.5,0.3,0.9,0.4,1.3l0,0c0-0.2,0.1-0.4,0.2-0.7c0.1-0.3,0.5-1.6,1.3-3.9h1.3
		l-2.5,6.6c-0.5,1.2-1.2,1.8-2.3,1.8c-0.3,0-0.5,0-0.8-0.1v-1c0.2,0,0.4,0.1,0.6,0.1c0.6,0,1-0.3,1.3-1l0.2-0.5L8.9,152.3z"/>
	<path class="st0" d="M16.9,154.6c0.6,0,1-0.1,1.3-0.2c0.3-0.1,0.4-0.3,0.4-0.6c0-0.5-0.4-0.7-1.3-0.7c-0.6,0-1.1,0.1-1.7,0.4
		l-0.4-0.9c0.7-0.3,1.4-0.4,2.2-0.4c0.7,0,1.3,0.1,1.7,0.4c0.4,0.3,0.6,0.6,0.6,1.1c0,0.7-0.4,1.1-1.1,1.3l0,0
		c0.5,0.1,0.8,0.3,1,0.5s0.3,0.5,0.3,0.9c0,0.5-0.2,1-0.7,1.3s-1.1,0.5-2,0.5s-1.6-0.1-2.1-0.4v-1.1c0.6,0.3,1.3,0.5,2,0.5
		c0.5,0,0.9-0.1,1.1-0.2c0.3-0.1,0.4-0.4,0.4-0.6c0-0.3-0.1-0.5-0.4-0.6s-0.7-0.2-1.3-0.2h-0.7v-0.9h0.7V154.6z"/>
	<path class="st0" d="M23.7,158.2c-0.9,0-1.6-0.3-2.1-0.8s-0.8-1.3-0.8-2.2c0-1,0.2-1.7,0.7-2.2s1.1-0.8,2-0.8
		c0.8,0,1.4,0.2,1.8,0.7s0.7,1.1,0.7,1.9v0.7h-3.9c0,0.6,0.2,1,0.5,1.3s0.7,0.5,1.2,0.5c0.3,0,0.7,0,1-0.1s0.6-0.2,1-0.3v1
		c-0.3,0.1-0.6,0.2-0.9,0.3C24.5,158.2,24.1,158.2,23.7,158.2 M23.5,153.1c-0.4,0-0.7,0.1-0.9,0.4c-0.2,0.2-0.4,0.6-0.4,1.1h2.6
		c0-0.5-0.1-0.8-0.3-1.1C24.2,153.2,23.9,153.1,23.5,153.1"/>
	<path class="st0" d="M28.6,152.3v3c0,0.3,0,0.9-0.1,1.5l2.9-4.5H33v5.8h-1.2v-2.9c0-0.2,0-0.4,0-0.8c0-0.4,0-0.6,0.1-0.8l-2.9,4.5
		h-1.5v-5.8H28.6z M30.1,151.6c-0.7,0-1.3-0.1-1.6-0.4c-0.3-0.3-0.5-0.7-0.6-1.3H29c0,0.3,0.1,0.5,0.1,0.6c0.1,0.1,0.2,0.2,0.3,0.3
		c0.1,0.1,0.4,0.1,0.7,0.1c0.3,0,0.6-0.1,0.8-0.2c0.2-0.2,0.3-0.4,0.3-0.8h1.1c-0.1,0.6-0.3,1-0.6,1.3
		C31.4,151.4,30.9,151.6,30.1,151.6"/>
	<rect y="94.8" class="st0" width="64.8" height="3.5"/>
</g>
</svg>
