<svg id="Слой_1" data-name="Слой 1" xmlns="http://www.w3.org/2000/svg" viewBox="0 0 70.01 74.45"><defs><style>.cls-1{fill:#e30613;fill-rule:evenodd;}</style></defs><title>logo</title><path class="cls-1" d="M2.92,59.6a8.93,8.93,0,0,1,1-3.88,9,9,0,0,1,.69-1.48A5,5,0,0,1,5.46,53c0.46,2,.69,3.59,1.25,5.63a17.42,17.42,0,0,1,.48,1.88c-0.83,0-1.69,0-2.54,0s-1.73.06-1.73-.89h0ZM3.1,49.49v0.57c1,0,2.44-.19,1.79,1.6a3.46,3.46,0,0,1-.26.65c-0.1.23-.2,0.36-0.32,0.61a5.7,5.7,0,0,1-.36.59A21.89,21.89,0,0,0,2.72,56a31.71,31.71,0,0,0-1,4.07,0.7,0.7,0,0,1-.12.13,1.41,1.41,0,0,1-1,.11c-1.15,0-.4.93-0.1,2.26,0.08,0.36.12,0.63,0.18,1,0.12,0.93.83,1,1.05,0,0.3-1.29.58-2,1.73-2.17a22.78,22.78,0,0,1,3.41-.13c1.39,0,2.22.27,2.62,1.46C9.73,63.27,9.65,64,10,64.2c0.65,0.32.75-.82,0.79-1.14,0.14-1,.63-1.77.63-2.28,0-.91-1.29-0.32-1.31-0.3a2.13,2.13,0,0,1-.54-1,62.1,62.1,0,0,1-1.67-8c-0.06-.46-0.12-1-0.2-1.39h1c0-1,0-.7-0.26-0.7H3.36C3.2,49.37,3.1,49.24,3.1,49.49Z" transform="translate(0)"/><path class="cls-1" d="M50.34,71.2c0-.51.08-0.86,0.08-1.41a2.57,2.57,0,0,1,1.55.55l0,0,0.18,0.15a2.58,2.58,0,0,1,.65.89c0.28,0.55.54,1.79-.62,1.86l-1.79.06c0-.78-0.08-1.37-0.08-2.11h0Zm0.08-2.11,0.12-2.53c1,0,2.5-.06,1.73,1.41a2.05,2.05,0,0,1-1.85,1.12h0Zm-1.69,4.79h5.58a1,1,0,0,0,1.25-1.24,2.66,2.66,0,0,0-1.43-2.11A3.8,3.8,0,0,0,53,69.94l-1-.32c-0.32-.06-0.18.06-0.34-0.15a8.82,8.82,0,0,0,2.24-1,1.72,1.72,0,0,0,.79-1.56C54.69,66.1,54,66,53.14,66H49.05c-1.09,0-.67,2.64-0.75,3.84,0,0.36-.06.63-0.06,1.05s0.06,0.65.06,1.12S48.24,73.88,48.74,73.88Z" transform="translate(0)"/><path class="cls-1" d="M18.36,73.31H17.54V69.79a2.48,2.48,0,0,1,1.81.74c0.89,0.68,1.25,2.43.34,2.7a8.85,8.85,0,0,1-1.33.08h0Zm-0.81-4.22,0.14-2.53c0.48,0,1.9-.11,1.9.61a1.92,1.92,0,0,1-2,1.92h0Zm-2.1-.25c0,1.6,0,2.78.06,4.35a0.59,0.59,0,0,0,.5.7h5.58c1.73,0,1.27-2,.46-2.81a6.28,6.28,0,0,0-1.41-.95,9.85,9.85,0,0,0-1.83-.59c0.62-.44,1.55-0.27,2.64-1.46a1.53,1.53,0,0,0,.38-1.5C21.63,66,21,66,20.34,66H16.19a1,1,0,0,0-.69,1.12C15.48,67.74,15.44,68.18,15.44,68.84Z" transform="translate(0)"/><path class="cls-1" d="M22.07,58.18a4.89,4.89,0,0,1,.08-0.57c1.51,0,2.66.72,2.66,2.24v0.74H22.07V58.18h0Zm-2,.42a9.67,9.67,0,0,0,.14,2.55c0.63,0.15,5.34.06,6.37,0.06,1.27,0,.36-2.24-0.26-3a4.91,4.91,0,0,0-3.83-1.39c-0.63,0-.3-0.23-0.3-1.05l0.08-1.39c0.08-.61-0.2-0.53,1.09-0.53a6.87,6.87,0,0,1,1.53.15c0.85,0.25.67,1.41,0.52,2.09h0.87c0-.17.18-0.46,0.24-0.63L27,54.34c0.4-.7.24-0.8,0.06-1.08-2.06,0-4,.08-6.15.06-1.19,0-.63.36-0.85,2.26Z" transform="translate(0)"/><path class="cls-1" d="M36.65,57.19c0,1.24.1,2.68,1.17,3.54a4.38,4.38,0,0,0,1.29.76,5,5,0,0,0,3.55-.11,4.26,4.26,0,0,0,1.23-.91,1.11,1.11,0,0,0-.3-0.38,9.31,9.31,0,0,1-1.35.7c-1.87.61-3.17-.72-3.17-2.81a1.45,1.45,0,0,1,1.29-.51c0.46,0,1.27.76,1.63,0.76a1.54,1.54,0,0,0,1.35-.51A3,3,0,0,0,44,57c-0.1-.15-0.22-0.27-0.32-0.44-1.13.76-1-.36-2.36-0.36a5.8,5.8,0,0,0-2.28.86,9.19,9.19,0,0,1,.18-2,1.91,1.91,0,0,1,.56-1.12c0.63-.46,1,0,1.63.68a0.31,0.31,0,0,1,.08.08,0.08,0.08,0,0,1,0,0l0,0a1.69,1.69,0,0,0,2.18.21l0.52-.3c-0.44-.65-0.4-0.53-0.71-0.49-0.91.13-.89-1.05-3.55-1.05a2.71,2.71,0,0,0-1.45.42,4.29,4.29,0,0,0-1.63,2.09A4.75,4.75,0,0,0,36.65,57.19Z" transform="translate(0)"/><path class="cls-1" d="M34.85,69.6c0-4,1-3.61-.87-3.61-1.09,0-1.23-.21-1.23,3l0.12,4.28c0.18,0.74.44,0.57,1.75,0.57A0.71,0.71,0,0,0,35,73.69L34.89,72a10.58,10.58,0,0,1,0-1.77,3.15,3.15,0,0,1,1.23.76c1,1.05,1,2.68,1.15,2.83s0.42,0,1.29.06c0.48,0.06,1.05.11,1.05-.3a2.6,2.6,0,0,0-.52-1.41,6.14,6.14,0,0,0-3.51-2.43,0.46,0.46,0,0,1,.18-0.32l0.4-.59a2.49,2.49,0,0,1,1.65-1.16,0.74,0.74,0,0,1,.75.51c0.85,0,.34-0.17.54-1a1.93,1.93,0,0,1,.2-0.55c0.06-.15.75-0.87-0.5-0.87a2.29,2.29,0,0,0-1.37.55,10.21,10.21,0,0,0-1.77,2.09c-0.14.21-.22,0.38-0.36,0.59A1.17,1.17,0,0,1,34.85,69.6Z" transform="translate(0)"/><path class="cls-1" d="M24.13,69.47c0,1.39-.12,2.89,1.13,3.95a4.07,4.07,0,0,0,2.78,1h0.48A3.68,3.68,0,0,0,30.14,74a4.57,4.57,0,0,0,1.17-.87,1.2,1.2,0,0,0-.24-0.42c-0.24,0-1.69,1.43-3.29.61a1.22,1.22,0,0,1-.5-0.38,1,1,0,0,0-.14-0.17,3.37,3.37,0,0,1-.62-2.11,1.24,1.24,0,0,1,1.19-.57,1.67,1.67,0,0,1,.91.4c0.79,0.44,1,.7,2.08-0.06a1.74,1.74,0,0,0,.71-0.82,0.79,0.79,0,0,1-.24-0.44c-1,.51-0.56.38-1.43-0.06a2.34,2.34,0,0,0-2.32.11,3.72,3.72,0,0,0-.5.25,1.8,1.8,0,0,1-.48.27c0-1.84.58-4.68,2.1-2.85a1.88,1.88,0,0,0,2.42.8l0.34-.19a0.55,0.55,0,0,1,.36-0.19,1.85,1.85,0,0,0-.38-0.57,1,1,0,0,1-1.11-.23c-1.37-1-3.73-1.14-4.74.08l-0.63.74A4.26,4.26,0,0,0,24.13,69.47Z" transform="translate(0)"/><path class="cls-1" d="M51.53,53.71c0,0.51.63,1,1.07,2.09a6.55,6.55,0,0,0,.3.76,3.23,3.23,0,0,1,.85-0.19c0-.34-1-2.47,1.75-2.47h0.3c0,0.32-.06.46-0.06,0.87v2.85c0,1-.2,2.91.14,3.61a8.08,8.08,0,0,0,1.61.06c0.67,0,.36-0.84.38-1.43,0-.4-0.06-0.55-0.08-0.86V55.31c0-.55.08-0.87,0.08-1.41,1,0,2.22.19,2.22,1.24a3.5,3.5,0,0,1-.18,1.22,3.23,3.23,0,0,1,.85.19c0.06-.13.08-0.21,0.14-0.36,0.48-1.24,1.17-1.81,1.17-2.55s-1.37-.36-2.22-0.38c-0.56,0-1.05.06-1.69,0.06-1.53,0-3.12.06-4.64-.06C53.08,53.25,51.53,52.78,51.53,53.71Z" transform="translate(0)"/><path class="cls-1" d="M65.17,58.73c0-1.1-.22-1.29.81-0.93a2.28,2.28,0,0,1,1.43,2.11v0.74H65.23c0-.72-0.06-1.2-0.06-1.92h0Zm-2.1-.93v2.72a0.66,0.66,0,0,0,.75.76c0.85,0,5.16.06,5.69-.06A2.85,2.85,0,0,0,70,61V59.72c-0.3-.13,0-0.23-0.62-1.12-1-1.39-2.48-1.73-4.17-1.73a15.64,15.64,0,0,1,.1-2.15,9.88,9.88,0,0,0,.16-1.39,8.76,8.76,0,0,0-1.67-.06c-0.73,0-.69,1.16-0.69,1.94,0,0.49-.06.8-0.06,1.22V57.8Z" transform="translate(0)"/><path class="cls-1" d="M14.07,54.64a3.78,3.78,0,0,1,1.49.63A4,4,0,0,1,17,58c0,0.34,0,1.62-.4,1.62a2.51,2.51,0,0,1-2.24-1.1c-1.47-1.88-.77-3.92-0.3-3.92h0Zm1.31,7.13c0.81,0,1.59-1.16,2-1.77a6.14,6.14,0,0,0,1-2.74,5.12,5.12,0,0,0-.1-1.65c-0.32-1.39-1.9-2.89-2.82-2.89A2.26,2.26,0,0,0,13.59,54a5.66,5.66,0,0,0-1.33,3.46,3.86,3.86,0,0,0,.91,2.78A3.44,3.44,0,0,0,15.38,61.77Z" transform="translate(0)"/><path class="cls-1" d="M41.73,68.73a2.76,2.76,0,0,1,.5-1.43,4.63,4.63,0,0,1,1.19.4,3.87,3.87,0,0,1,1.85,3.08A2.84,2.84,0,0,1,45,72.24c-0.28.4-2.14,0-2.92-1.86a4.73,4.73,0,0,1-.4-1.65h0ZM40.5,70.4a5,5,0,0,0,1.83,3.44,2,2,0,0,0,1.51.59l0.6-.27,0.87-1c0.16-.19.26-0.4,0.4-0.59a6.21,6.21,0,0,0,.65-1.27,4.65,4.65,0,0,0-.62-4.62c-0.73-.8-1.94-1.88-3-0.95l-0.38.36a5.72,5.72,0,0,0-.91,1.16A6.1,6.1,0,0,0,40.5,70.4Z" transform="translate(0)"/><path class="cls-1" d="M28.28,60.65c0,0.84.54,0.63,2.22,0.63,1,0-.24-1-0.24-1.69a5.51,5.51,0,0,1,.56-2.85c0.14-.32.26-0.61,0.42-0.95a3.82,3.82,0,0,1,.46-1,5,5,0,0,0,.18.95l0.69,2.76a9.1,9.1,0,0,0,.89,2.57,1.74,1.74,0,0,0,1.15.11c0.3,0,1.11.17,1.11-.13A13.94,13.94,0,0,0,35,59.22a35.44,35.44,0,0,1-1.41-4.92c-0.18-1.14.44-1-2.26-1-0.46,0-.1.61-0.14,0.93a9.33,9.33,0,0,1-1.41,2.62A7.44,7.44,0,0,0,28.28,60.65Z" transform="translate(0)"/><path class="cls-1" d="M45.14,56.81a5,5,0,0,0,.81,3,5.76,5.76,0,0,0,1.51,1.77c0.87,0.55,1.55-.27,2-0.76a6.55,6.55,0,0,0,1.29-2c-0.26-.06-0.32-0.3-0.62-0.38l-0.87,1.24a1.13,1.13,0,0,1-.52-0.21,3.6,3.6,0,0,1-1.17-1.24,4.06,4.06,0,0,1-.54-3.92c0.18,0.08.54,0.15,0.75,0.23a7.61,7.61,0,0,1,1.61,1.43,4.22,4.22,0,0,1,.75-1c0.6-.59.52-0.76,0.22-1.08a6.38,6.38,0,0,0-1.85-1,1.11,1.11,0,0,0-1.35.11,4.48,4.48,0,0,0-.48.4,7.39,7.39,0,0,0-1.27,2A3.63,3.63,0,0,0,45.14,56.81Z" transform="translate(0)"/><path class="cls-1" d="M34.13,11.46a3.6,3.6,0,0,1-2.29-2.2A4.31,4.31,0,0,1,31.59,8H38.8a3.68,3.68,0,0,1-2.6,3.49l0.12,2.44c0,0.38,0,.85,0,1.23a12.2,12.2,0,0,1,.06,1.25l0.12,2.44c0,0.4,0,.83,0,1.21,0.17,1.27-.48.87,1.47,1l1.22,0.06,3.3,0.4c0.74,0.11,2.83.59,3.18,0.59,0-4,.25-6.88-1-10.65A13.6,13.6,0,0,0,43.3,8.51a13.38,13.38,0,0,0-1.55-2,26.3,26.3,0,0,0-3.3-2.82L37,2.56A17.75,17.75,0,0,1,35.78,1.1,6,6,0,0,1,35.1,0H35A7.6,7.6,0,0,1,33.6,1.95a3.69,3.69,0,0,0-.37.42L30,5a14.58,14.58,0,0,0-4.36,5.68,19.06,19.06,0,0,0-.8,2.54c-0.1.47-.17,0.91-0.25,1.42-0.43,2.58-.1,5.38-0.25,6.54-0.19,1.46-.14,1.06,1.77.68a39.4,39.4,0,0,1,5-.72L33.53,21c0.58,0,.17-0.34.33-1.36L34,14.76c0-.32.06-0.38,0.06-0.74V13.13c0-.36.06-0.44,0.06-0.8S34.13,11.75,34.13,11.46Z" transform="translate(0)"/><path class="cls-1" d="M24.31,24.29c0,2.41.39,5.36-.7,6.86a1.67,1.67,0,0,1-.35.4l-0.31.3a5.12,5.12,0,0,1-1.07.66,17.29,17.29,0,0,1-2.68,1,16.81,16.81,0,0,0-2.64,1.21,4.73,4.73,0,0,0-2.39,3.73A11.09,11.09,0,0,1,17.1,39l1.26,0.44a11.16,11.16,0,0,1,2.27,1.16,14.17,14.17,0,0,1,1.88,1.55c0.16,0.13.29,0.25,0.47,0.38L24.91,44a23.76,23.76,0,0,0,2.72,1.59,1.88,1.88,0,0,1,.29.15c0.48,0.28,1.61.64,2.13,0.85a13.57,13.57,0,0,0,2.06.51c0.27,0,.62.21,0.62-0.08V22.92a42,42,0,0,0-4.91.55c-0.21,0-.29.08-0.48,0.13A27.35,27.35,0,0,0,24.31,24.29Z" transform="translate(0)"/><path class="cls-1" d="M37.66,46.89c0,0.32.7,0,1.22-.11a20,20,0,0,0,3.65-1.5L43.09,45l1.77-1.12a0,0,0,0,0,0,0L45,43.76c0.33-.28.74-0.49,1.12-0.83l1-.76a13,13,0,0,1,4.44-2.84,10.61,10.61,0,0,1,3.06-.78c0.48,0,1.07-.13,1.57-0.13a5.67,5.67,0,0,0-1.22-3,6.54,6.54,0,0,0-.81-0.68c-1.3-1-4.11-1.44-5.08-2-0.33-.19-0.6-0.3-0.91-0.51l-0.56-.42c-1.57-1.38-2-3.56-2-6,0-.64.06-1,0.06-1.67l-2.85-.61a32.93,32.93,0,0,0-5.2-.64v24Z" transform="translate(0)"/></svg>