<svg width="189" height="42" viewBox="0 0 189 42" fill="none" xmlns="http://www.w3.org/2000/svg">
<g id="Logo">
<g id="Logo History">
<g id="Vector">
<path d="M150.761 39.4393L151.942 37.4449H152.644V37.5092L151.401 39.4393H150.761ZM150.761 35.489H151.401L152.644 37.4191V37.4835H151.942L150.761 35.489ZM152.336 39.4393L153.517 37.4449H154.219V37.5092L152.976 39.4393H152.336ZM152.336 35.489H152.976L154.219 37.4191V37.4835H153.517L152.336 35.489Z" fill="white"/>
<path d="M147.356 40.2629C147.056 40.2629 146.785 40.2039 146.541 40.0859C146.297 39.9658 146.103 39.7932 145.959 39.568C145.816 39.3407 145.744 39.0662 145.744 38.7445C145.744 38.4614 145.797 38.2319 145.904 38.0561C146.01 37.8781 146.153 37.7387 146.331 37.6379C146.51 37.5371 146.707 37.462 146.922 37.4127C147.14 37.3612 147.358 37.3205 147.577 37.2904C147.865 37.2518 148.097 37.2229 148.276 37.2036C148.456 37.1821 148.588 37.1468 148.67 37.0974C148.754 37.0481 148.796 36.9623 148.796 36.8401V36.8143C148.796 36.4969 148.713 36.2503 148.547 36.0744C148.382 35.8986 148.133 35.8107 147.799 35.8107C147.452 35.8107 147.181 35.89 146.984 36.0487C146.787 36.2074 146.648 36.3768 146.568 36.557L145.879 36.2996C146.002 35.9994 146.166 35.7656 146.371 35.5983C146.579 35.4289 146.804 35.311 147.048 35.2445C147.294 35.1759 147.536 35.1415 147.774 35.1415C147.926 35.1415 148.1 35.1608 148.297 35.1994C148.496 35.2359 148.688 35.312 148.873 35.4278C149.059 35.5437 149.214 35.7184 149.337 35.9522C149.46 36.186 149.522 36.4991 149.522 36.8915V40.1471H148.796V39.4779H148.759C148.71 39.5852 148.628 39.6999 148.513 39.8222C148.398 39.9444 148.245 40.0484 148.054 40.1342C147.864 40.22 147.631 40.2629 147.356 40.2629ZM147.467 39.5809C147.754 39.5809 147.996 39.5219 148.193 39.404C148.392 39.286 148.541 39.1337 148.642 38.9472C148.744 38.7606 148.796 38.5643 148.796 38.3585V37.6636C148.765 37.7022 148.697 37.7376 148.593 37.7698C148.49 37.7998 148.371 37.8266 148.236 37.8502C148.102 37.8716 147.972 37.8909 147.845 37.9081C147.72 37.9231 147.618 37.936 147.54 37.9467C147.352 37.9724 147.175 38.0142 147.011 38.0722C146.849 38.1279 146.718 38.2126 146.618 38.3263C146.519 38.4378 146.47 38.5901 146.47 38.7831C146.47 39.0469 146.563 39.2463 146.75 39.3814C146.939 39.5144 147.177 39.5809 147.467 39.5809Z" fill="white"/>
<path d="M141.312 40.1471V35.2059H142.038V37.3548H142.518L144.216 35.2059H145.152L143.244 37.5864L145.176 40.1471H144.241L142.69 38.0625H142.038V40.1471H141.312Z" fill="white"/>
<path d="M136.869 39.0276L139.146 35.2059H139.982V40.1471H139.256V36.3254L136.992 40.1471H136.143V35.2059H136.869V39.0276Z" fill="white"/>
<path d="M132.23 39.1176L133.879 35.2059H134.568L132.525 40.1471H131.934L129.928 35.2059H130.605L132.23 39.1176ZM130.371 35.2059V40.1471H129.645V35.2059H130.371ZM134.088 40.1471V35.2059H134.814V40.1471H134.088Z" fill="white"/>
<path d="M126.396 40.25C125.969 40.25 125.595 40.1438 125.273 39.9315C124.953 39.7192 124.703 39.4222 124.522 39.0404C124.344 38.6587 124.255 38.2126 124.255 37.7022C124.255 37.1875 124.344 36.7382 124.522 36.3543C124.703 35.9704 124.953 35.6723 125.273 35.46C125.595 35.2477 125.969 35.1415 126.396 35.1415C126.823 35.1415 127.196 35.2477 127.516 35.46C127.838 35.6723 128.088 35.9704 128.266 36.3543C128.447 36.7382 128.537 37.1875 128.537 37.7022C128.537 38.2126 128.447 38.6587 128.266 39.0404C128.088 39.4222 127.838 39.7192 127.516 39.9315C127.196 40.1438 126.823 40.25 126.396 40.25ZM126.396 39.568C126.72 39.568 126.987 39.4812 127.196 39.3074C127.405 39.1337 127.56 38.9053 127.66 38.6222C127.761 38.3392 127.811 38.0325 127.811 37.7022C127.811 37.3719 127.761 37.0642 127.66 36.779C127.56 36.4937 127.405 36.2632 127.196 36.0873C126.987 35.9115 126.72 35.8235 126.396 35.8235C126.072 35.8235 125.805 35.9115 125.596 36.0873C125.387 36.2632 125.232 36.4937 125.131 36.779C125.031 37.0642 124.981 37.3719 124.981 37.7022C124.981 38.0325 125.031 38.3392 125.131 38.6222C125.232 38.9053 125.387 39.1337 125.596 39.3074C125.805 39.4812 126.072 39.568 126.396 39.568Z" fill="white"/>
<path d="M122.596 37.329V38.0368H119.988V37.329H122.596ZM120.16 35.2059V40.1471H119.434V35.2059H120.16ZM123.15 35.2059V40.1471H122.424V35.2059H123.15Z" fill="white"/>
<path d="M116.184 40.25C115.758 40.25 115.383 40.1438 115.061 39.9315C114.741 39.7192 114.491 39.4222 114.311 39.0404C114.132 38.6587 114.043 38.2126 114.043 37.7022C114.043 37.1875 114.132 36.7382 114.311 36.3543C114.491 35.9704 114.741 35.6723 115.061 35.46C115.383 35.2477 115.758 35.1415 116.184 35.1415C116.611 35.1415 116.984 35.2477 117.304 35.46C117.626 35.6723 117.876 35.9704 118.055 36.3543C118.235 36.7382 118.326 37.1875 118.326 37.7022C118.326 38.2126 118.235 38.6587 118.055 39.0404C117.876 39.4222 117.626 39.7192 117.304 39.9315C116.984 40.1438 116.611 40.25 116.184 40.25ZM116.184 39.568C116.508 39.568 116.775 39.4812 116.984 39.3074C117.193 39.1337 117.348 38.9053 117.449 38.6222C117.549 38.3392 117.599 38.0325 117.599 37.7022C117.599 37.3719 117.549 37.0642 117.449 36.779C117.348 36.4937 117.193 36.2632 116.984 36.0873C116.775 35.9115 116.508 35.8235 116.184 35.8235C115.86 35.8235 115.594 35.9115 115.384 36.0873C115.175 36.2632 115.02 36.4937 114.92 36.779C114.819 37.0642 114.769 37.3719 114.769 37.7022C114.769 38.0325 114.819 38.3392 114.92 38.6222C115.02 38.9053 115.175 39.1337 115.384 39.3074C115.594 39.4812 115.86 39.568 116.184 39.568Z" fill="white"/>
<path d="M111.204 40.25C110.748 40.25 110.355 40.1449 110.025 39.9347C109.697 39.7224 109.444 39.4265 109.265 39.0469C109.089 38.6651 109.001 38.2212 109.001 37.7151C109.001 37.2089 109.089 36.7629 109.265 36.3768C109.444 35.9887 109.692 35.6863 110.01 35.4697C110.33 35.2509 110.703 35.1415 111.13 35.1415C111.376 35.1415 111.619 35.1844 111.859 35.2702C112.099 35.356 112.317 35.4954 112.514 35.6884C112.711 35.8793 112.868 36.1324 112.985 36.4476C113.102 36.7629 113.16 37.151 113.16 37.6121V37.9338H109.518V37.2776H112.422C112.422 36.9988 112.368 36.75 112.262 36.5313C112.157 36.3125 112.007 36.1399 111.813 36.0133C111.62 35.8868 111.392 35.8235 111.13 35.8235C110.84 35.8235 110.59 35.8986 110.379 36.0487C110.17 36.1967 110.009 36.3897 109.896 36.6278C109.783 36.8658 109.727 37.121 109.727 37.3934V37.8309C109.727 38.204 109.788 38.5204 109.911 38.7799C110.036 39.0372 110.21 39.2335 110.431 39.3686C110.653 39.5015 110.91 39.568 111.204 39.568C111.394 39.568 111.567 39.5401 111.72 39.4844C111.876 39.4265 112.011 39.3407 112.123 39.227C112.236 39.1112 112.323 38.9675 112.385 38.796L113.086 39.0018C113.012 39.2506 112.888 39.4694 112.714 39.6581C112.54 39.8447 112.324 39.9905 112.068 40.0956C111.812 40.1985 111.523 40.25 111.204 40.25Z" fill="white"/>
<path d="M105.28 35.2059L106.412 37.2261L107.544 35.2059H108.381L106.855 37.6765L108.381 40.1471H107.544L106.412 38.2298L105.28 40.1471H104.443L105.944 37.6765L104.443 35.2059H105.28Z" fill="white"/>
<path d="M99.6537 42V35.2059H100.355V35.9908H100.441C100.495 35.905 100.568 35.7956 100.663 35.6627C100.759 35.5276 100.897 35.4075 101.075 35.3024C101.255 35.1952 101.5 35.1415 101.807 35.1415C102.205 35.1415 102.556 35.2456 102.859 35.4536C103.163 35.6616 103.4 35.9565 103.57 36.3382C103.74 36.72 103.825 37.1703 103.825 37.6893C103.825 38.2126 103.74 38.6662 103.57 39.0501C103.4 39.4318 103.164 39.7278 102.862 39.938C102.561 40.146 102.213 40.25 101.82 40.25C101.516 40.25 101.273 40.1975 101.09 40.0924C100.908 39.9851 100.767 39.864 100.669 39.7289C100.57 39.5916 100.495 39.4779 100.441 39.3879H100.38V42H99.6537ZM100.367 37.6765C100.367 38.0496 100.42 38.3788 100.524 38.6641C100.629 38.9472 100.782 39.1691 100.983 39.33C101.184 39.4887 101.43 39.568 101.721 39.568C102.025 39.568 102.278 39.4844 102.481 39.3171C102.686 39.1477 102.84 38.9203 102.942 38.6351C103.047 38.3477 103.099 38.0282 103.099 37.6765C103.099 37.329 103.048 37.0159 102.946 36.7371C102.845 36.4562 102.692 36.2342 102.487 36.0712C102.284 35.9061 102.029 35.8235 101.721 35.8235C101.426 35.8235 101.178 35.9018 100.977 36.0584C100.776 36.2128 100.624 36.4294 100.521 36.7082C100.419 36.9848 100.367 37.3076 100.367 37.6765Z" fill="white"/>
<path d="M94.156 40.1471H93.3561L95.6696 33.5588H96.4572L98.7707 40.1471H97.9708L96.088 34.6011H96.0388L94.156 40.1471ZM94.4514 37.5735H97.6755V38.2812H94.4514V37.5735Z" fill="white"/>
<path d="M91.2134 39.4393H90.5735L89.3306 37.5092V37.4449H90.032L91.2134 39.4393ZM91.2134 35.489L90.032 37.4835H89.3306V37.4191L90.5735 35.489H91.2134ZM92.7885 39.4393H92.1486L90.9057 37.5092V37.4449H91.6072L92.7885 39.4393ZM92.7885 35.489L91.6072 37.4835H90.9057V37.4191L92.1486 35.489H92.7885Z" fill="white"/>
<path d="M83.4891 40.2629C83.1897 40.2629 82.9179 40.2039 82.6739 40.0859C82.4298 39.9658 82.236 39.7932 82.0924 39.568C81.9488 39.3407 81.877 39.0662 81.877 38.7445C81.877 38.4614 81.9304 38.2319 82.037 38.0561C82.1437 37.8781 82.2862 37.7387 82.4647 37.6379C82.6431 37.5371 82.84 37.462 83.0553 37.4127C83.2727 37.3612 83.4912 37.3205 83.7106 37.2904C83.9978 37.2518 84.2305 37.2229 84.409 37.2036C84.5895 37.1821 84.7207 37.1468 84.8028 37.0974C84.8869 37.0481 84.9289 36.9623 84.9289 36.8401V36.8143C84.9289 36.4969 84.8458 36.2503 84.6797 36.0744C84.5156 35.8986 84.2664 35.8107 83.9321 35.8107C83.5855 35.8107 83.3138 35.89 83.1169 36.0487C82.92 36.2074 82.7815 36.3768 82.7015 36.557L82.0124 36.2996C82.1355 35.9994 82.2995 35.7656 82.5046 35.5983C82.7118 35.4289 82.9374 35.311 83.1815 35.2445C83.4276 35.1759 83.6696 35.1415 83.9075 35.1415C84.0593 35.1415 84.2336 35.1608 84.4305 35.1994C84.6295 35.2359 84.8212 35.312 85.0058 35.4278C85.1925 35.5437 85.3473 35.7184 85.4704 35.9522C85.5934 36.186 85.655 36.4991 85.655 36.8915V40.1471H84.9289V39.4779H84.892C84.8428 39.5852 84.7607 39.6999 84.6459 39.8222C84.531 39.9444 84.3782 40.0484 84.1875 40.1342C83.9967 40.22 83.7639 40.2629 83.4891 40.2629ZM83.5999 39.5809C83.887 39.5809 84.129 39.5219 84.3259 39.404C84.5249 39.286 84.6746 39.1337 84.7751 38.9472C84.8776 38.7606 84.9289 38.5643 84.9289 38.3585V37.6636C84.8981 37.7022 84.8305 37.7376 84.7259 37.7698C84.6233 37.7998 84.5044 37.8266 84.369 37.8502C84.2357 37.8716 84.1054 37.8909 83.9783 37.9081C83.8532 37.9231 83.7516 37.936 83.6737 37.9467C83.485 37.9724 83.3086 38.0142 83.1446 38.0722C82.9825 38.1279 82.8513 38.2126 82.7508 38.3263C82.6523 38.4378 82.6031 38.5901 82.6031 38.7831C82.6031 39.0469 82.6964 39.2463 82.883 39.3814C83.0717 39.5144 83.3107 39.5809 83.5999 39.5809Z" fill="white"/>
<path d="M77.4454 35.9136V35.2059H81.2848V35.9136H79.7343V40.1471H79.0082V35.9136H77.4454Z" fill="white"/>
<path d="M73.0629 40.1471V35.2059H73.789V37.3548H74.2689L75.9671 35.2059H76.9024L74.995 37.5864L76.927 40.1471H75.9917L74.4412 38.0625H73.789V40.1471H73.0629Z" fill="white"/>
<path d="M70.0019 40.25C69.5465 40.25 69.1538 40.1449 68.8236 39.9347C68.4954 39.7224 68.2421 39.4265 68.0637 39.0469C67.8873 38.6651 67.7991 38.2212 67.7991 37.7151C67.7991 37.2089 67.8873 36.7629 68.0637 36.3768C68.2421 35.9887 68.4903 35.6863 68.8082 35.4697C69.1281 35.2509 69.5014 35.1415 69.928 35.1415C70.1741 35.1415 70.4172 35.1844 70.6571 35.2702C70.8971 35.356 71.1155 35.4954 71.3124 35.6884C71.5093 35.8793 71.6662 36.1324 71.7831 36.4476C71.9 36.7629 71.9585 37.151 71.9585 37.6121V37.9338H68.316V37.2776H71.2201C71.2201 36.9988 71.1668 36.75 71.0602 36.5313C70.9556 36.3125 70.8058 36.1399 70.611 36.0133C70.4182 35.8868 70.1906 35.8235 69.928 35.8235C69.6388 35.8235 69.3886 35.8986 69.1774 36.0487C68.9682 36.1967 68.8072 36.3897 68.6944 36.6278C68.5816 36.8658 68.5252 37.121 68.5252 37.3934V37.8309C68.5252 38.204 68.5867 38.5204 68.7097 38.7799C68.8349 39.0372 69.0082 39.2335 69.2297 39.3686C69.4512 39.5015 69.7086 39.568 70.0019 39.568C70.1926 39.568 70.3649 39.5401 70.5187 39.4844C70.6746 39.4265 70.8089 39.3407 70.9217 39.227C71.0345 39.1112 71.1217 38.9675 71.1832 38.796L71.8847 39.0018C71.8108 39.2506 71.6867 39.4694 71.5124 39.6581C71.3381 39.8447 71.1227 39.9905 70.8663 40.0956C70.61 40.1985 70.3218 40.25 70.0019 40.25Z" fill="white"/>
<path d="M64.7711 40.25C64.3445 40.25 63.9702 40.1438 63.6482 39.9315C63.3282 39.7192 63.078 39.4222 62.8975 39.0404C62.7191 38.6587 62.6299 38.2126 62.6299 37.7022C62.6299 37.1875 62.7191 36.7382 62.8975 36.3543C63.078 35.9704 63.3282 35.6723 63.6482 35.46C63.9702 35.2477 64.3445 35.1415 64.7711 35.1415C65.1977 35.1415 65.571 35.2477 65.8909 35.46C66.2129 35.6723 66.4631 35.9704 66.6416 36.3543C66.8221 36.7382 66.9123 37.1875 66.9123 37.7022C66.9123 38.2126 66.8221 38.6587 66.6416 39.0404C66.4631 39.4222 66.2129 39.7192 65.8909 39.9315C65.571 40.1438 65.1977 40.25 64.7711 40.25ZM64.7711 39.568C65.0951 39.568 65.3618 39.4812 65.571 39.3074C65.7802 39.1337 65.935 38.9053 66.0355 38.6222C66.136 38.3392 66.1863 38.0325 66.1863 37.7022C66.1863 37.3719 66.136 37.0642 66.0355 36.779C65.935 36.4937 65.7802 36.2632 65.571 36.0873C65.3618 35.9115 65.0951 35.8235 64.7711 35.8235C64.447 35.8235 64.1804 35.9115 63.9712 36.0873C63.762 36.2632 63.6072 36.4937 63.5067 36.779C63.4062 37.0642 63.3559 37.3719 63.3559 37.7022C63.3559 38.0325 63.4062 38.3392 63.5067 38.6222C63.6072 38.9053 63.762 39.1337 63.9712 39.3074C64.1804 39.4812 64.447 39.568 64.7711 39.568Z" fill="white"/>
<path d="M57.5721 42V35.2059H58.2736V35.9908H58.3597C58.413 35.905 58.4869 35.7956 58.5812 35.6627C58.6776 35.5276 58.815 35.4075 58.9935 35.3024C59.174 35.1952 59.418 35.1415 59.7257 35.1415C60.1236 35.1415 60.4743 35.2456 60.7778 35.4536C61.0814 35.6616 61.3183 35.9565 61.4885 36.3382C61.6587 36.72 61.7438 37.1703 61.7438 37.6893C61.7438 38.2126 61.6587 38.6662 61.4885 39.0501C61.3183 39.4318 61.0824 39.7278 60.7809 39.938C60.4794 40.146 60.1318 40.25 59.738 40.25C59.4344 40.25 59.1914 40.1975 59.0089 40.0924C58.8263 39.9851 58.6858 39.864 58.5874 39.7289C58.4889 39.5916 58.413 39.4779 58.3597 39.3879H58.2982V42H57.5721ZM58.2859 37.6765C58.2859 38.0496 58.3382 38.3788 58.4428 38.6641C58.5474 38.9472 58.7002 39.1691 58.9012 39.33C59.1022 39.4887 59.3483 39.568 59.6395 39.568C59.9431 39.568 60.1964 39.4844 60.3994 39.3171C60.6045 39.1477 60.7583 38.9203 60.8609 38.6351C60.9655 38.3477 61.0178 38.0282 61.0178 37.6765C61.0178 37.329 60.9665 37.0159 60.864 36.7371C60.7635 36.4562 60.6107 36.2342 60.4056 36.0712C60.2025 35.9061 59.9472 35.8235 59.6395 35.8235C59.3442 35.8235 59.096 35.9018 58.895 36.0584C58.694 36.2128 58.5423 36.4294 58.4397 36.7082C58.3372 36.9848 58.2859 37.3076 58.2859 37.6765Z" fill="white"/>
<path d="M52.5298 40.1471V35.2059H56.2462V40.1471H55.5201V35.9136H53.2558V40.1471H52.5298Z" fill="white"/>
<path d="M45.1947 35.9136V35.2059H49.0342V35.9136H47.4836V40.1471H46.7576V35.9136H45.1947Z" fill="white"/>
<path d="M44.281 36.8529C44.281 37.5478 44.161 38.1483 43.9211 38.6544C43.6811 39.1605 43.3519 39.5509 42.9335 39.8254C42.5151 40.0999 42.0372 40.2371 41.4999 40.2371C40.9625 40.2371 40.4846 40.0999 40.0662 39.8254C39.6478 39.5509 39.3187 39.1605 39.0787 38.6544C38.8387 38.1483 38.7188 37.5478 38.7188 36.8529C38.7188 36.1581 38.8387 35.5576 39.0787 35.0515C39.3187 34.5453 39.6478 34.155 40.0662 33.8805C40.4846 33.606 40.9625 33.4688 41.4999 33.4688C42.0372 33.4688 42.5151 33.606 42.9335 33.8805C43.3519 34.155 43.6811 34.5453 43.9211 35.0515C44.161 35.5576 44.281 36.1581 44.281 36.8529ZM43.5427 36.8529C43.5427 36.2825 43.4514 35.801 43.2689 35.4085C43.0884 35.0161 42.8433 34.7191 42.5336 34.5175C42.2259 34.3159 41.8814 34.2151 41.4999 34.2151C41.1184 34.2151 40.7728 34.3159 40.4631 34.5175C40.1555 34.7191 39.9104 35.0161 39.7278 35.4085C39.5473 35.801 39.4571 36.2825 39.4571 36.8529C39.4571 37.4234 39.5473 37.9049 39.7278 38.2973C39.9104 38.6898 40.1555 38.9868 40.4631 39.1884C40.7728 39.39 41.1184 39.4908 41.4999 39.4908C41.8814 39.4908 42.2259 39.39 42.5336 39.1884C42.8433 38.9868 43.0884 38.6898 43.2689 38.2973C43.4514 37.9049 43.5427 37.4234 43.5427 36.8529Z" fill="white"/>
</g>
<path id="Vector_2" d="M62.4225 25.2853C62.4225 25.3247 62.4225 25.3575 62.3503 25.6856C62.3175 25.8628 62.2716 26.0991 62.2125 26.3812C62.16 26.6503 62.1009 26.9456 62.0353 27.2672C61.9763 27.5756 61.9172 27.8709 61.8581 28.14C61.8056 28.4025 61.7597 28.6256 61.7138 28.8094L61.635 29.1506C61.5563 29.3147 61.3922 29.4066 61.1888 29.4066C61.0116 29.4066 60.8738 29.3541 60.7753 29.2491C60.69 29.1572 60.6441 29.0259 60.6572 28.8881C60.6637 28.7897 60.6703 28.6913 60.6703 28.5928C60.6703 28.3631 60.6572 28.1138 60.6309 27.8578C60.6178 27.6084 60.5719 27.3853 60.4931 27.1819C60.4275 27.0047 60.3291 26.8603 60.1847 26.7422C60.06 26.6372 59.8828 26.5847 59.6466 26.5847L50.4066 26.5584C50.1375 26.5584 49.9472 26.6175 49.8225 26.7422C49.6781 26.8931 49.5731 27.0834 49.5075 27.3066C49.4419 27.5559 49.3959 27.8316 49.3894 28.1269V28.9734C49.3894 29.1966 49.2122 29.3672 48.9825 29.3672C48.9628 29.3738 48.9037 29.3803 48.8644 29.3803C48.6609 29.3803 48.4969 29.2884 48.4181 29.1244L48.3919 29.0522L48.3263 28.7831C48.2869 28.5928 48.2409 28.3762 48.1819 28.1138C48.1294 27.8381 48.0703 27.5494 48.0047 27.2409C47.9456 26.9194 47.8866 26.6241 47.8275 26.355C47.775 26.0794 47.7291 25.8497 47.6897 25.6659C47.6438 25.4166 47.6306 25.2919 47.6306 25.2591C47.6306 25.0753 47.7487 24.9178 47.9325 24.8784C47.9719 24.8587 48.0441 24.8456 48.1163 24.8456C48.3131 24.8456 48.4772 24.9375 48.5691 25.1016C48.615 25.1737 48.6478 25.2656 48.6872 25.3641L48.8053 25.5741L49.0941 25.5544C49.1597 25.5413 49.245 25.5216 49.3237 25.4888C49.3697 25.4691 49.4091 25.4297 49.4419 25.3772C49.4616 25.3444 49.5009 25.2853 49.5009 25.1081V18.7359C49.5009 18.585 49.4747 18.5194 49.455 18.4931C49.4156 18.4275 49.3828 18.3947 49.3369 18.375C49.2712 18.3422 49.2056 18.3225 49.14 18.3159C49.0153 18.2963 48.9103 18.2831 48.8184 18.2766C48.6806 18.2569 48.5822 18.2372 48.51 18.2175C48.3 18.1584 48.1753 17.9878 48.1753 17.7712C48.1753 17.6925 48.195 17.6203 48.2344 17.535C48.3066 17.3906 48.4509 17.2987 48.6084 17.2987H52.2966C52.3688 17.2987 52.5131 17.325 52.6378 17.4825C52.71 17.5744 52.7428 17.6728 52.7428 17.7712C52.7428 17.9812 52.6116 18.2306 52.2309 18.2503C52.1062 18.2569 51.975 18.2766 51.8306 18.3094C51.7125 18.3291 51.6206 18.375 51.5222 18.4406C51.4894 18.4669 51.45 18.5391 51.45 18.7294V25.1016C51.45 25.2591 51.4762 25.3378 51.5025 25.3772C51.5287 25.41 51.5878 25.4625 51.6666 25.5019C51.7387 25.5281 51.8438 25.5544 51.9553 25.5741C52.08 25.5741 52.2244 25.5872 52.3622 25.5872H57.7566C57.8944 25.5872 58.0322 25.5872 58.1766 25.5741C58.275 25.5609 58.38 25.5347 58.4522 25.5019C58.5112 25.4691 58.5637 25.4297 58.5966 25.3772C58.6359 25.3181 58.6556 25.2262 58.6556 25.1081V18.7359C58.6556 18.5456 58.6163 18.4734 58.59 18.4537C58.485 18.375 58.3866 18.3356 58.2684 18.3159C58.1044 18.2831 57.9731 18.2634 57.8484 18.2569C57.4678 18.2306 57.3366 17.9812 57.3366 17.7778C57.3366 17.6991 57.3562 17.6269 57.3956 17.5416C57.4678 17.3972 57.6122 17.3053 57.7697 17.3053H61.4578C61.6153 17.3053 61.7531 17.3906 61.8253 17.535C61.8647 17.6137 61.8844 17.6925 61.8844 17.7712C61.8844 17.9812 61.7531 18.2175 61.3922 18.2634C61.2544 18.2766 61.1166 18.2897 60.9656 18.3159C60.8541 18.3356 60.7556 18.375 60.6638 18.4472C60.6441 18.4603 60.6047 18.5391 60.6047 18.7359V25.1081C60.6047 25.2787 60.6441 25.3444 60.6572 25.3575C60.7031 25.4166 60.7556 25.4625 60.8081 25.4888C60.8606 25.5084 60.9459 25.5281 61.0312 25.5347C61.1166 25.5347 61.2019 25.5478 61.2806 25.5609C61.3266 25.4953 61.3463 25.4428 61.3659 25.3838C61.4184 25.2656 61.4578 25.1869 61.4906 25.1213C61.6153 24.9047 61.8778 24.7931 62.1469 24.9112C62.3175 24.9637 62.4291 25.1081 62.4291 25.2853H62.4225ZM97.6237 18.4734C97.7156 18.4012 97.8141 18.3619 97.9453 18.3422C98.0897 18.3094 98.2209 18.2897 98.3522 18.2831C98.7131 18.2372 98.8444 18.0009 98.8444 17.7909C98.8444 17.7253 98.8312 17.6531 98.7919 17.5678C98.7262 17.4038 98.5753 17.2987 98.4113 17.2987H94.6444C94.4738 17.2987 94.3294 17.4038 94.2637 17.5678C94.2309 17.6531 94.2113 17.7253 94.2113 17.7909C94.2113 17.9878 94.3162 18.1584 94.5459 18.2503C94.6312 18.27 94.7297 18.2897 94.8412 18.2962C94.9397 18.3028 95.0381 18.3159 95.1628 18.3356C95.235 18.3356 95.3006 18.3553 95.3597 18.3947C95.4056 18.4144 95.4384 18.4472 95.4844 18.5259C95.4844 18.5259 95.5238 18.585 95.5238 18.7556V25.1278C95.5238 25.3116 95.4844 25.4034 95.4647 25.4231C95.3662 25.4953 95.2547 25.5412 95.1366 25.5609C94.9856 25.5872 94.8478 25.6003 94.7166 25.6069C94.3359 25.6331 94.2047 25.8825 94.2047 26.0859C94.2047 26.1647 94.2244 26.2434 94.2637 26.3222C94.3359 26.4666 94.4737 26.5519 94.6312 26.5519H98.3981C98.5556 26.5519 98.6934 26.4666 98.7722 26.3156C98.8116 26.2369 98.8312 26.1581 98.8312 26.0794C98.8312 25.8694 98.7 25.62 98.3194 25.6003C98.2012 25.5938 98.0634 25.5741 97.9322 25.5544C97.8141 25.5281 97.7025 25.4822 97.6172 25.4297C97.5844 25.4034 97.545 25.3116 97.545 25.1213V18.7491C97.545 18.5653 97.5844 18.4866 97.6041 18.4734H97.6237ZM48.2278 10.2834L48.3066 9.94219C48.3525 9.75844 48.3984 9.53531 48.4509 9.27281C48.51 9.00375 48.5691 8.70844 48.6281 8.4C48.6938 8.07844 48.7594 7.78313 48.8053 7.51406C48.8644 7.23844 48.9169 7.00219 48.9497 6.81844C49.0153 6.51 49.0219 6.4575 49.0219 6.41813C49.0219 6.24094 48.9103 6.09656 48.7397 6.04406C48.4706 5.92594 48.2081 6.0375 48.0834 6.25406C48.0441 6.31969 48.0047 6.39844 47.9522 6.51656C47.9325 6.57563 47.9062 6.63469 47.8603 6.70688C47.7684 6.73969 47.6766 6.75938 47.5978 6.76594H38.4891C38.3316 6.76594 38.1938 6.85125 38.1216 6.99563C38.0822 7.07438 38.0625 7.15313 38.0625 7.23187C38.0625 7.44187 38.1937 7.69125 38.5613 7.71094C38.6859 7.7175 38.8172 7.73719 38.9812 7.77C39.0862 7.78969 39.1781 7.82906 39.2831 7.90781C39.3094 7.92094 39.3487 7.99969 39.3487 8.19V14.5622C39.3487 14.7525 39.3094 14.8313 39.2766 14.8509C39.1847 14.9166 39.0862 14.9625 38.9812 14.9822C38.8237 15.0084 38.6794 15.0281 38.5613 15.0413C38.1937 15.0675 38.0625 15.3169 38.0625 15.5203C38.0625 15.5925 38.0756 15.6647 38.1084 15.7434C38.1741 15.9075 38.3184 16.0125 38.4891 16.0125H42.3216C42.4922 16.0125 42.6366 15.9075 42.7022 15.7434C42.735 15.6581 42.7481 15.5859 42.7481 15.5203C42.7481 15.2972 42.6037 15.12 42.42 15.0872C42.3216 15.0478 42.2034 15.0281 42.0656 15.015L41.7113 14.9888C41.6194 14.9888 41.5275 14.9625 41.475 14.9428C41.4159 14.9166 41.37 14.8706 41.3306 14.8247C41.3175 14.805 41.2847 14.7394 41.2847 14.5556V8.20312C41.2847 8.04562 41.3109 7.96687 41.3306 7.94062C41.37 7.88156 41.4225 7.83563 41.4881 7.80938C41.5734 7.77656 41.6653 7.75031 41.79 7.74375C41.9344 7.73062 42.0722 7.7175 42.2166 7.7175H46.2394C46.4756 7.7175 46.6528 7.77 46.7775 7.875C46.9219 7.99312 47.0203 8.1375 47.0859 8.31469C47.1581 8.51156 47.2041 8.73469 47.2238 8.99062C47.25 9.25312 47.2631 9.5025 47.2631 9.72562C47.2631 9.83062 47.2631 9.92906 47.25 10.0341C47.2369 10.1653 47.2762 10.29 47.3616 10.3819C47.565 10.605 48.0703 10.5919 48.2278 10.2834ZM75.9281 22.9622L75.4884 22.7456L75.0619 22.8703L74.9634 23.205L74.9766 23.2772C75.0159 23.4872 75.0291 23.7431 75.0094 24.045C75.0028 24.3141 74.9503 24.5766 74.865 24.8259C74.7797 25.0491 74.655 25.2459 74.4844 25.41C74.3466 25.5413 74.1694 25.6003 73.9397 25.6003H68.5191C68.3681 25.6003 68.2238 25.6003 68.0991 25.5872C67.9875 25.5741 67.8825 25.5478 67.7906 25.5084C67.725 25.4822 67.6725 25.4362 67.6463 25.41C67.6266 25.3772 67.5938 25.2984 67.5938 25.1213V18.7491C67.5938 18.5325 67.6659 18.48 67.6922 18.4603C67.8103 18.3684 67.9547 18.3159 68.1384 18.2897C68.3353 18.2503 68.5453 18.2372 68.7553 18.2437C69.3525 18.2634 69.6872 18.2306 70.0678 18.4012C70.2844 18.4866 70.4747 18.6112 70.6453 18.7753C70.8094 18.9263 70.9538 19.11 71.0653 19.3331C71.1834 19.5497 71.2688 19.7794 71.3147 20.0156L71.3344 20.1206L71.4066 20.1928C71.4459 20.2322 71.4919 20.265 71.5575 20.3044C71.6888 20.3831 71.8462 20.4488 72.1284 20.3044C72.2269 20.2322 72.2925 20.1272 72.3188 20.0025L72.3319 19.9303L72.3122 19.8581C72.1416 19.1625 72.0497 18.4406 72.0497 17.7188V17.5678L71.7413 17.2987H64.785C64.6144 17.2987 64.47 17.4038 64.4044 17.5678C64.3716 17.6531 64.3519 17.7253 64.3519 17.7909C64.3519 17.9878 64.4766 18.2372 64.8506 18.2831C64.9753 18.2897 65.1066 18.3094 65.2706 18.3422C65.3756 18.3619 65.4675 18.4012 65.5725 18.48C65.5988 18.4997 65.6381 18.585 65.6381 18.7491V25.1213C65.6381 25.305 65.5987 25.3969 65.5659 25.4231C65.4806 25.4888 65.3822 25.5281 65.2706 25.5413C65.1131 25.5675 64.9688 25.5872 64.8506 25.6003C64.4831 25.6266 64.3519 25.8759 64.3519 26.0794C64.3519 26.1581 64.3716 26.2369 64.4109 26.3156C64.4831 26.46 64.6209 26.5453 64.7784 26.5453H75.2128C75.3112 26.5453 75.4097 26.5584 75.5081 26.5912L75.5672 26.6306C75.6 26.6831 75.6263 26.7356 75.6525 26.8013L75.7641 27.0572C75.8559 27.2213 76.0266 27.3131 76.23 27.3131C76.3219 27.3131 76.4072 27.2934 76.4663 27.2606C76.6631 27.1819 76.755 26.9784 76.7025 26.775L75.915 22.9556L75.9281 22.9622ZM159.167 14.8312C159.134 14.8772 159.101 14.91 159.055 14.9362C158.996 14.9691 158.931 14.9887 158.878 15.0019C158.753 15.0084 158.642 15.0281 158.563 15.0413C158.438 15.0544 158.327 15.0741 158.261 15.1069C158.058 15.1659 157.933 15.3366 157.933 15.5531C157.933 15.6253 157.946 15.6975 157.992 15.8025C158.064 15.9469 158.202 16.0387 158.36 16.0387H162.127C162.205 16.0387 162.35 16.0125 162.481 15.8287C162.54 15.7303 162.566 15.645 162.566 15.5597C162.566 15.3562 162.448 15.1856 162.264 15.1134C162.173 15.0741 162.061 15.0478 161.917 15.0347L161.621 15.015C161.536 15.0019 161.457 14.9822 161.398 14.9559C161.346 14.9297 161.306 14.8903 161.28 14.8509C161.267 14.8247 161.234 14.7525 161.234 14.5819V8.21625C161.234 8.02594 161.273 7.95375 161.306 7.9275C161.398 7.85531 161.497 7.81594 161.608 7.79625C161.766 7.77 161.91 7.75687 162.061 7.74375C162.435 7.69781 162.566 7.46156 162.566 7.25156C162.566 7.16625 162.547 7.08094 162.52 7.02844C162.455 6.86437 162.304 6.75937 162.127 6.75937H158.36C158.189 6.75937 158.045 6.86437 157.979 7.02844C157.946 7.11375 157.927 7.18594 157.927 7.25156C157.927 7.48125 158.084 7.72406 158.425 7.74375C158.55 7.75031 158.694 7.77 158.845 7.78969C158.95 7.80938 159.042 7.84875 159.147 7.9275C159.173 7.94062 159.213 8.01938 159.213 8.20969V14.5687C159.213 14.7328 159.18 14.7984 159.16 14.8312H159.167ZM97.6237 7.94062C97.7156 7.86844 97.8141 7.82906 97.9453 7.80938C98.0897 7.77656 98.2209 7.75687 98.3522 7.75031C98.7131 7.70437 98.8444 7.46812 98.8444 7.25812C98.8444 7.1925 98.8312 7.12031 98.7919 7.035C98.7262 6.87094 98.5753 6.76594 98.4113 6.76594H96.6066C96.4162 6.76594 96.2325 6.81187 96.0619 6.90375C95.8847 6.99563 95.7403 7.12688 95.6419 7.30406L91.6519 14.4703C91.5469 14.6606 91.4681 14.7459 91.4353 14.7722C91.3631 14.8247 91.2909 14.8641 91.2253 14.8837C91.1269 14.91 91.0153 14.9297 90.8972 14.9428C90.7462 14.9625 90.5822 15.0084 90.3919 15.0741C90.195 15.1462 90.0769 15.3234 90.0769 15.5466C90.0769 15.6187 90.09 15.6909 90.1359 15.7959C90.2081 15.9403 90.3459 16.0322 90.51 16.0322H93.3056C93.3844 16.0322 93.5287 16.0059 93.6666 15.8222C93.7256 15.7238 93.7519 15.6384 93.7519 15.5531C93.7519 15.3759 93.6469 15.1528 93.3581 15.0806C93.2597 15.0544 93.1481 15.0281 93.0234 15.0019C92.9447 14.9822 92.8659 14.9559 92.8266 14.9362C92.8266 14.9297 92.8462 14.8312 93.0169 14.4769C93.1612 14.175 93.3384 13.8141 93.5616 13.4006C93.7847 12.9806 94.0275 12.5278 94.29 12.0487C94.5656 11.5631 94.8216 11.1037 95.0709 10.6706C95.2416 10.3687 95.4056 10.0931 95.55 9.83719V14.5819C95.55 14.7722 95.5106 14.8706 95.4844 14.8903C95.3859 14.9559 95.2809 14.9953 95.1562 15.015C95.0053 15.0413 94.8675 15.0544 94.7363 15.0609C94.3556 15.0872 94.2244 15.3431 94.2244 15.5531C94.2244 15.6253 94.2375 15.6975 94.2834 15.8025C94.3556 15.9469 94.4934 16.0387 94.6575 16.0387H98.4244C98.5819 16.0387 98.7197 15.9534 98.805 15.7828C98.8378 15.6975 98.8509 15.6253 98.8509 15.5597C98.8509 15.3497 98.7197 15.0872 98.3587 15.0675C98.2341 15.0478 98.0897 15.0281 97.9322 15.0019C97.8206 14.9822 97.7156 14.9428 97.6369 14.8903C97.6041 14.8641 97.5647 14.7656 97.5647 14.5819V8.21625C97.5647 8.0325 97.6041 7.95375 97.6237 7.94062ZM86.1 14.8312C86.0672 14.8772 86.0344 14.91 85.9884 14.9362C85.9294 14.9691 85.8637 14.9887 85.8112 15.0019C85.6866 15.0084 85.575 15.0281 85.4963 15.0413C85.3716 15.0544 85.2666 15.0741 85.1944 15.1069C84.9909 15.1659 84.8662 15.3366 84.8662 15.5531C84.8662 15.6253 84.8794 15.6975 84.9253 15.8025C84.9975 15.9469 85.1353 16.0387 85.2994 16.0387H89.0662C89.145 16.0387 89.2894 16.0125 89.4272 15.8287C89.4862 15.7303 89.5125 15.645 89.5125 15.5597C89.5125 15.3562 89.3944 15.1856 89.2106 15.12C89.1187 15.0806 89.0072 15.0544 88.8628 15.0413L88.5675 15.0216C88.4822 15.0084 88.4034 14.9888 88.3444 14.9625C88.2919 14.9362 88.2525 14.8969 88.2262 14.8575C88.2131 14.8312 88.1803 14.7591 88.1803 14.5884V8.21625C88.1803 8.02594 88.2197 7.95375 88.2525 7.9275C88.3444 7.85531 88.4428 7.81594 88.5544 7.79625C88.7119 7.77 88.8562 7.75687 89.0072 7.74375C89.3812 7.69781 89.5125 7.46156 89.5125 7.25156C89.5125 7.16625 89.4928 7.08094 89.46 7.02844C89.3944 6.86437 89.2434 6.75937 89.0662 6.75937H85.2994C85.1287 6.75937 84.9844 6.86437 84.9188 7.02844C84.8859 7.11375 84.8662 7.18594 84.8662 7.25156C84.8662 7.48125 85.0237 7.72406 85.365 7.74375C85.4897 7.75031 85.6341 7.77 85.785 7.78969C85.89 7.80938 85.9819 7.84875 86.0869 7.9275C86.1131 7.94062 86.1525 8.01938 86.1525 8.20969V14.5687C86.1525 14.7328 86.1197 14.7984 86.1 14.8312ZM177.516 13.6041C177.22 13.0003 177.069 12.2587 177.069 11.3925C177.069 11.0184 177.096 10.6509 177.148 10.29C177.201 9.9225 177.299 9.57469 177.443 9.24656C177.581 8.91187 177.778 8.59687 178.027 8.32125C178.27 8.03906 178.592 7.79625 178.973 7.60594C179.576 7.30406 180.219 7.08094 180.889 6.94969C181.545 6.81844 182.214 6.75281 182.877 6.75281H188.455C188.626 6.75281 188.77 6.85781 188.836 7.02188C188.869 7.10719 188.882 7.17937 188.882 7.245C188.882 7.46156 188.744 7.7175 188.37 7.73719C188.258 7.74375 188.127 7.76344 187.983 7.79625C187.858 7.81594 187.76 7.86187 187.668 7.9275C187.642 7.94719 187.609 8.01938 187.609 8.20312V14.5622C187.609 14.7394 187.642 14.8116 187.655 14.8312C187.674 14.8575 187.72 14.8969 187.773 14.9297C187.832 14.9625 187.898 14.9822 187.97 14.9953L188.272 15.0216C188.403 15.0347 188.508 15.0609 188.6 15.1003C188.783 15.1659 188.902 15.3366 188.902 15.54C188.902 15.6056 188.888 15.6778 188.856 15.7631C188.77 15.9337 188.633 16.0191 188.475 16.0191H182.693C181.945 16.0191 181.237 15.9469 180.574 15.8091C179.891 15.6516 179.288 15.3956 178.776 15.0413C178.257 14.6803 177.837 14.1947 177.529 13.6041H177.516ZM184.715 7.72406H182.871C182.129 7.72406 181.499 7.78312 180.994 7.89469C180.521 7.99969 180.141 8.19 179.852 8.45906C179.576 8.715 179.36 9.0825 179.228 9.54187C179.091 10.0209 179.025 10.6444 179.025 11.3991C179.025 12.1013 179.091 12.705 179.222 13.1841C179.34 13.6303 179.537 13.9978 179.806 14.2734C180.068 14.5425 180.429 14.7459 180.876 14.8641C181.348 14.9953 181.952 15.0544 182.661 15.0544H184.688C184.839 15.0544 184.984 15.0544 185.128 15.0413C185.233 15.0281 185.338 15.0019 185.43 14.9625C185.509 14.9297 185.561 14.8903 185.607 14.8378C185.633 14.7919 185.66 14.7 185.66 14.5753V8.21625C185.66 8.09812 185.64 8.00625 185.601 7.95375C185.561 7.89469 185.509 7.84875 185.443 7.8225C185.345 7.77656 185.253 7.75031 185.141 7.74375C184.99 7.72406 184.859 7.7175 184.721 7.7175L184.715 7.72406ZM48.5822 15.0806C48.2344 15.2053 48.1884 15.4219 48.1884 15.5466C48.1884 15.6122 48.2016 15.6844 48.2475 15.7959C48.3197 15.9403 48.4575 16.0256 48.615 16.0256H52.3687C52.5262 16.0256 52.6641 15.9403 52.7297 15.8156C52.7888 15.7172 52.815 15.6319 52.815 15.5466C52.815 15.3431 52.6838 15.1134 52.3425 15.0675C52.2113 15.0413 52.0603 15.015 51.9028 14.9822C51.7781 14.9559 51.6666 14.91 51.5616 14.8444C51.5484 14.8378 51.5091 14.8116 51.5091 14.6869C51.5091 14.2997 51.5353 13.8797 51.5813 13.44C51.6337 12.9937 51.7059 12.5409 51.7913 12.1012C51.8897 11.655 52.0144 11.2153 52.1522 10.7887C52.29 10.3687 52.4475 9.98156 52.6181 9.64031C52.8609 9.16781 53.1562 8.80031 53.4975 8.55094C53.8584 8.28844 54.2522 8.09156 54.6787 7.97344C55.1184 7.84219 55.5909 7.77 56.0766 7.75687C56.5819 7.73062 57.0938 7.7175 57.5991 7.7175C57.7434 7.7175 57.8813 7.72406 58.0387 7.74375C58.1569 7.75031 58.2553 7.77 58.3472 7.80938C58.4128 7.83563 58.4653 7.875 58.5178 7.94719C58.5572 7.99969 58.5769 8.09156 58.5769 8.20969V14.5687C58.5769 14.8444 58.4784 14.9034 58.4456 14.9297C58.3078 15.0084 58.1306 15.0478 57.9206 15.0478C57.8419 15.0478 57.7566 15.0478 57.7172 15.0609C57.5138 15.0609 57.2972 15.2119 57.2972 15.54C57.2972 15.6056 57.3103 15.6778 57.3562 15.7894C57.4284 15.9337 57.5662 16.0191 57.7237 16.0191H61.3791C61.5366 16.0191 61.6744 15.9337 61.7597 15.7631C61.7925 15.6778 61.8122 15.6056 61.8122 15.54C61.8122 15.3234 61.6744 15.1462 61.5103 15.1134C61.4184 15.0741 61.3069 15.0478 61.2084 15.0413C61.1034 15.0216 60.9919 15.0084 60.8934 15.0019C60.8213 14.9887 60.7556 14.9691 60.6966 14.9362C60.6441 14.91 60.5981 14.8706 60.5784 14.8444C60.5653 14.8181 60.5325 14.7459 60.5325 14.5753V8.21625C60.5325 8.0325 60.5719 7.95375 60.5916 7.94062C60.6834 7.86844 60.7819 7.82906 60.9131 7.80938C61.0575 7.77656 61.1887 7.75687 61.3003 7.75031C61.6809 7.72406 61.8122 7.46812 61.8122 7.25812C61.8122 7.1925 61.7991 7.11375 61.7663 7.035C61.7006 6.87094 61.5563 6.76594 61.3856 6.76594H56.6147C55.3612 6.76594 54.3047 6.9825 53.4647 7.41562C52.6378 7.84219 51.9488 8.42625 51.4172 9.15469C50.8922 9.86344 50.4787 10.6969 50.1769 11.6353C49.8947 12.5475 49.6519 13.5253 49.4484 14.5359C49.4288 14.6213 49.3894 14.6803 49.3172 14.7394C49.2056 14.8181 49.0875 14.8903 48.9628 14.9428C48.825 15.0019 48.6938 15.0478 48.5822 15.0938V15.0806ZM41.3306 18.4866C41.37 18.4275 41.4159 18.3881 41.4684 18.3684C41.5406 18.3356 41.6194 18.3159 41.7113 18.3094C41.8294 18.3028 41.9409 18.2962 42.0591 18.2962C42.1903 18.2831 42.3019 18.27 42.4069 18.2437C42.6169 18.1716 42.7481 17.9944 42.7481 17.7778C42.7481 17.6991 42.7284 17.6269 42.6956 17.5678C42.63 17.4038 42.4791 17.2987 42.315 17.2987H38.4891C38.3184 17.2987 38.1741 17.4037 38.1216 17.5416C38.0822 17.6203 38.0625 17.6991 38.0625 17.7778C38.0625 18.0469 38.2528 18.2438 38.5613 18.2831C38.6859 18.2897 38.8303 18.3094 38.9812 18.3291C39.0862 18.3488 39.1781 18.3881 39.2831 18.4669C39.3094 18.48 39.3487 18.5588 39.3487 18.7491V25.1081C39.3487 25.2984 39.3094 25.3706 39.2766 25.3969C39.1847 25.4625 39.0862 25.5084 38.9812 25.5281C38.8237 25.5544 38.6794 25.5741 38.5613 25.5872C38.1937 25.6134 38.0625 25.8628 38.0625 26.0662C38.0625 26.1384 38.0756 26.2106 38.115 26.2894C38.1806 26.4534 38.325 26.5584 38.4956 26.5584H42.3281C42.4856 26.5584 42.6234 26.4731 42.7087 26.3025C42.7416 26.2172 42.7547 26.145 42.7547 26.0794C42.7547 25.8563 42.6103 25.6791 42.4266 25.6462C42.3281 25.6069 42.21 25.5872 42.0722 25.5741C41.9672 25.5675 41.8491 25.5544 41.7178 25.5478C41.6194 25.5478 41.5341 25.5216 41.4816 25.5019C41.4225 25.4756 41.3766 25.4297 41.3438 25.3903C41.3241 25.3575 41.2912 25.2787 41.2912 25.1016V18.7425C41.2912 18.5587 41.3306 18.4931 41.3372 18.48L41.3306 18.4866ZM65.5725 14.8706C65.4872 14.9362 65.3888 14.9756 65.2772 14.9888C65.1197 15.015 64.9753 15.0347 64.8572 15.0478C64.5159 15.0741 64.3584 15.3103 64.3584 15.54C64.3584 15.6122 64.3716 15.6844 64.4175 15.7894C64.4897 15.9337 64.6275 16.0256 64.7916 16.0256H71.7478L72.0628 15.75V15.5925C72.0366 15.2381 72.0563 14.8837 72.1022 14.5359C72.1547 14.175 72.2203 13.8141 72.3122 13.4728L72.3384 13.3809L72.24 13.0791L72.1153 13.02C72.0759 13.0003 72.03 12.9872 71.9972 12.9806L71.8331 12.9544C71.7084 12.9544 71.5247 13.0069 71.3606 13.2891C71.3081 13.3941 71.2425 13.5384 71.1769 13.7025C71.1113 13.8534 71.0325 14.0109 70.9406 14.1816C70.8553 14.3391 70.7569 14.4966 70.6322 14.6344C70.5338 14.7525 70.4025 14.8575 70.2516 14.9428C70.1138 15.0216 69.9497 15.0544 69.7528 15.0544H68.5191C68.3681 15.0544 68.2238 15.0544 68.0925 15.0413C67.9809 15.0281 67.8759 15.0019 67.7841 14.9625C67.7184 14.9362 67.6659 14.8903 67.6397 14.8575C67.62 14.8247 67.5872 14.7459 67.5872 14.5687V8.21625C67.5872 8.09156 67.6069 7.99312 67.6331 7.95375C67.6856 7.88813 67.7447 7.84219 67.8038 7.81594C67.8956 7.77656 68.0072 7.75687 68.1384 7.75031C68.2828 7.73719 68.4206 7.72406 68.565 7.72406H73.2178C73.4475 7.72406 73.6116 7.77656 73.7297 7.89469C73.8675 8.01938 73.9659 8.17687 74.0381 8.38687C74.1103 8.60344 74.1562 8.84625 74.1759 9.09562C74.1891 9.37125 74.2022 9.62063 74.2022 9.84375C74.2022 9.87 74.1956 9.90937 74.1759 9.98812L74.1497 10.2703C74.1497 10.3819 74.1628 10.4803 74.1891 10.5656C74.2481 10.7625 74.4122 10.8937 74.6222 10.8937C74.6878 10.8937 74.7534 10.8938 74.8716 10.8544C75.0159 10.7953 75.1209 10.6772 75.1472 10.5262L75.9675 6.43781L75.8953 6.18844L75.8363 6.12937C75.8363 6.12937 75.7772 6.07688 75.7181 6.03094C75.6525 5.97844 75.5475 5.90625 75.4097 5.90625C75.2325 5.90625 75.0816 6.01125 75.0159 6.17531C74.9897 6.23438 74.9766 6.28688 74.97 6.31969C74.9175 6.49031 74.8519 6.62156 74.7797 6.70031C74.7337 6.74625 74.6222 6.7725 74.4713 6.7725H64.7784C64.6078 6.7725 64.4634 6.8775 64.3978 7.04156C64.365 7.12688 64.3453 7.19906 64.3453 7.26469C64.3453 7.46156 64.47 7.71094 64.8441 7.75687C64.9688 7.76344 65.1 7.78313 65.2641 7.81594C65.3691 7.83563 65.4609 7.875 65.5659 7.95375C65.5922 7.97344 65.6316 8.05875 65.6316 8.22281V14.5819C65.6316 14.7656 65.5922 14.8575 65.5594 14.8837L65.5725 14.8706ZM93.2072 17.2922H90.4116C90.2344 17.2922 90.0834 17.3972 90.0178 17.5612C89.985 17.6466 89.9719 17.7188 89.9719 17.7844V17.8828L90.2278 18.2634H90.405C90.4509 18.2634 90.51 18.27 90.5756 18.2831C90.6478 18.2963 90.72 18.3159 90.7922 18.3487C90.8381 18.3684 90.8775 18.3881 90.9103 18.3619C90.9103 18.3684 90.8906 18.4669 90.72 18.8212C90.5756 19.1231 90.3919 19.4906 90.1753 19.9106C89.9522 20.3241 89.7094 20.7769 89.4338 21.2625C89.1581 21.7481 88.8956 22.2206 88.6528 22.6734C88.4822 22.9753 88.3247 23.2509 88.1803 23.5134V18.7425C88.1803 18.5522 88.2197 18.48 88.2525 18.4537C88.3444 18.3816 88.4428 18.3422 88.5544 18.3225C88.7119 18.2963 88.8562 18.2831 89.0072 18.27C89.3812 18.2241 89.5125 17.9878 89.5125 17.7778C89.5125 17.6925 89.4928 17.6072 89.46 17.5547C89.3944 17.3906 89.2434 17.2856 89.0662 17.2856H85.2994C85.1287 17.2856 84.9844 17.3906 84.9188 17.5547C84.8859 17.64 84.8662 17.7122 84.8662 17.7778C84.8662 18.0075 85.0237 18.2503 85.365 18.27C85.4897 18.2766 85.6341 18.2963 85.785 18.3159C85.89 18.3356 85.9819 18.375 86.0869 18.4537C86.1131 18.4669 86.1525 18.5456 86.1525 18.7359V25.1081C86.1525 25.2919 86.1131 25.3837 86.0803 25.41C85.9884 25.4756 85.89 25.5216 85.785 25.5413C85.6341 25.5675 85.4962 25.5806 85.365 25.5872C84.9975 25.6134 84.8662 25.8628 84.8662 26.0662C84.8662 26.145 84.8859 26.2237 84.9253 26.3025C84.9975 26.4469 85.1353 26.5322 85.2928 26.5322H87.0975C87.2878 26.5322 87.465 26.4994 87.6422 26.4206C87.8259 26.3288 87.9637 26.1909 88.0622 26.0072L92.0456 18.8475C92.1506 18.6637 92.2294 18.5916 92.2753 18.5522C92.3409 18.4931 92.4131 18.4537 92.4787 18.4341C92.5837 18.4012 92.6953 18.3816 92.8003 18.3684C92.9644 18.3488 93.135 18.3028 93.2991 18.2372C93.3909 18.2044 93.4697 18.1453 93.5353 18.06C93.6075 17.9681 93.6403 17.8697 93.6403 17.7712C93.6403 17.6859 93.6206 17.6006 93.5878 17.5481C93.5222 17.3841 93.3712 17.2791 93.1941 17.2791L93.2072 17.2922ZM171.878 18.4734C171.97 18.4012 172.075 18.3619 172.2 18.3422C172.344 18.3094 172.476 18.2897 172.607 18.2831C172.968 18.2372 173.099 18.0009 173.099 17.7909C173.099 17.7188 173.086 17.6466 173.047 17.5678C172.981 17.4038 172.837 17.2987 172.666 17.2987H168.899C168.728 17.2987 168.584 17.4038 168.518 17.5678C168.486 17.6531 168.473 17.7253 168.473 17.7909C168.473 17.9944 168.584 18.1584 168.807 18.2503C168.893 18.27 168.991 18.2897 169.102 18.2962C169.201 18.3028 169.299 18.3159 169.424 18.3356C169.496 18.3356 169.555 18.3553 169.621 18.3947C169.667 18.4144 169.7 18.4472 169.746 18.5259C169.752 18.5325 169.785 18.5916 169.785 18.7556V25.1278C169.785 25.3116 169.746 25.4034 169.719 25.4231C169.621 25.4888 169.503 25.5412 169.391 25.5609C169.24 25.5872 169.102 25.6003 168.971 25.6069C168.591 25.6331 168.459 25.8825 168.459 26.0859C168.459 26.1647 168.479 26.2369 168.518 26.3222C168.591 26.4666 168.728 26.5519 168.886 26.5519H172.653C172.81 26.5519 172.948 26.4666 173.02 26.3222C173.06 26.2434 173.079 26.1647 173.079 26.0859C173.079 25.8759 172.942 25.6266 172.567 25.6069C172.449 25.6003 172.312 25.5806 172.18 25.5609C172.062 25.5347 171.951 25.4888 171.865 25.4363C171.833 25.41 171.793 25.3116 171.793 25.1278V18.7556C171.793 18.5719 171.833 18.4931 171.852 18.48L171.878 18.4734ZM166.274 17.2922H163.478C163.301 17.2922 163.15 17.3972 163.085 17.5612C163.052 17.6466 163.032 17.7188 163.032 17.7844V17.8828L163.288 18.2634H163.465C163.511 18.2634 163.57 18.27 163.636 18.2831C163.708 18.2963 163.78 18.3159 163.853 18.3487C163.898 18.3684 163.938 18.3881 163.971 18.3619C163.971 18.3684 163.951 18.4669 163.78 18.8212C163.636 19.1231 163.452 19.4906 163.236 19.9106C163.013 20.3241 162.77 20.7769 162.494 21.2625C162.218 21.7481 161.956 22.2206 161.713 22.6734C161.542 22.9753 161.385 23.2509 161.241 23.5134V18.7491C161.241 18.5588 161.28 18.4866 161.313 18.4603C161.405 18.3881 161.503 18.3488 161.615 18.3291C161.772 18.3028 161.917 18.2897 162.068 18.2766C162.442 18.2306 162.573 17.9944 162.573 17.7844C162.573 17.6991 162.553 17.6138 162.527 17.5612C162.461 17.3972 162.31 17.2922 162.133 17.2922H158.366C158.196 17.2922 158.051 17.3972 157.986 17.5612C157.953 17.6466 157.933 17.7188 157.933 17.7844C157.933 18.0141 158.091 18.2569 158.432 18.2766C158.557 18.2831 158.701 18.3028 158.852 18.3225C158.957 18.3422 159.049 18.3816 159.154 18.4603C159.18 18.4734 159.219 18.5522 159.219 18.7425V25.1147C159.219 25.2984 159.18 25.3903 159.147 25.4166C159.055 25.4822 158.957 25.5281 158.852 25.5478C158.701 25.5741 158.563 25.5872 158.432 25.5938C158.064 25.62 157.933 25.8694 157.933 26.0728C157.933 26.1516 157.953 26.2303 157.992 26.3091C158.064 26.4534 158.202 26.5387 158.36 26.5387H160.164C160.355 26.5387 160.532 26.5059 160.709 26.4272C160.893 26.3353 161.031 26.1975 161.129 26.0138L165.113 18.8541C165.218 18.6703 165.296 18.5981 165.342 18.5588C165.408 18.4997 165.48 18.4603 165.546 18.4406C165.651 18.4078 165.756 18.3881 165.867 18.375C166.031 18.3553 166.202 18.3094 166.366 18.2437C166.458 18.2175 166.537 18.1519 166.602 18.0666C166.674 17.9747 166.707 17.8763 166.707 17.7778C166.707 17.6925 166.688 17.6072 166.661 17.5547C166.596 17.3906 166.445 17.2856 166.268 17.2856L166.274 17.2922ZM155.761 9.66C155.971 10.2047 156.076 10.7887 156.076 11.3925C156.076 11.9962 155.971 12.5803 155.761 13.1381C155.551 13.6894 155.249 14.1816 154.868 14.6147C154.488 15.0412 154.028 15.3825 153.497 15.6384C152.972 15.9009 152.381 16.0322 151.751 16.0322H144.703C144.546 16.0322 144.408 15.9469 144.336 15.7959C144.29 15.6909 144.277 15.6187 144.277 15.5466C144.277 15.33 144.401 15.1594 144.605 15.1003C144.677 15.0741 144.782 15.0478 144.907 15.0347C144.985 15.0216 145.097 15.0084 145.222 14.9953C145.268 14.9887 145.333 14.9625 145.399 14.9297C145.445 14.9034 145.478 14.8706 145.51 14.8247C145.53 14.7984 145.563 14.7262 145.563 14.5622V8.21625C145.563 8.05219 145.53 7.96687 145.497 7.94719C145.392 7.86844 145.3 7.8225 145.195 7.80938C145.031 7.77656 144.9 7.75687 144.775 7.75031C144.427 7.73062 144.277 7.48781 144.277 7.25812C144.277 7.1925 144.29 7.12031 144.323 7.035C144.388 6.86437 144.533 6.76594 144.703 6.76594H151.751C152.381 6.76594 152.965 6.89719 153.497 7.15969C154.028 7.41562 154.488 7.76344 154.868 8.19656C155.249 8.61656 155.551 9.10875 155.761 9.66656V9.66ZM148.037 15.0413C148.188 15.0478 148.332 15.0544 148.483 15.0544H151.751C152.27 15.0544 152.69 14.9494 152.992 14.7525C153.307 14.5425 153.536 14.2866 153.7 13.9584C153.871 13.6172 153.983 13.2234 154.042 12.7969C154.101 12.3309 154.127 11.865 154.127 11.4056C154.127 10.9462 154.101 10.4869 154.042 10.0209C153.989 9.58125 153.871 9.1875 153.7 8.84625C153.536 8.51156 153.307 8.2425 152.992 8.03906C152.69 7.83563 152.27 7.73719 151.751 7.73719H148.431C148.299 7.73719 148.162 7.74375 148.017 7.76344C147.899 7.77 147.807 7.79625 147.728 7.83563C147.65 7.86844 147.597 7.91438 147.558 7.97344C147.518 8.02594 147.499 8.11781 147.499 8.23594V14.595C147.499 14.7197 147.518 14.8181 147.558 14.8706C147.597 14.9231 147.656 14.9691 147.722 15.0019C147.807 15.0347 147.919 15.0609 148.03 15.0675L148.037 15.0413ZM187.642 18.4734C187.733 18.4012 187.832 18.3619 187.963 18.3422C188.107 18.3094 188.239 18.2897 188.37 18.2831C188.731 18.2372 188.862 18.0009 188.862 17.7909C188.862 17.7056 188.842 17.6203 188.816 17.5678C188.751 17.4038 188.6 17.2987 188.423 17.2987H180.81C180.639 17.2987 180.495 17.4038 180.429 17.5678C180.397 17.6531 180.383 17.7253 180.383 17.7909C180.383 17.9025 180.429 18.1781 180.889 18.2831C181.04 18.3094 181.204 18.3356 181.394 18.375C181.525 18.3947 181.657 18.4275 181.801 18.48C181.768 18.5391 181.709 18.6309 181.617 18.7753C181.427 19.0444 181.191 19.3791 180.902 19.7794C180.62 20.1731 180.305 20.5931 179.957 21.0591C179.616 21.5184 179.288 21.9581 178.973 22.3781L178.133 23.4872C177.877 23.8088 177.712 24.0319 177.627 24.1434C177.292 24.5831 176.905 24.9441 176.466 25.2131C176.039 25.4691 175.547 25.6003 174.996 25.6003C174.917 25.6003 174.773 25.6266 174.648 25.7906C174.595 25.8694 174.562 25.9612 174.562 26.0531C174.562 26.1319 174.582 26.2106 174.622 26.3156C174.694 26.46 174.838 26.5453 175.002 26.5453C175.291 26.5453 175.573 26.5387 175.855 26.5191C176.144 26.4928 176.42 26.4338 176.676 26.355C176.951 26.2697 177.214 26.145 177.457 25.9809C177.699 25.8169 177.923 25.5938 178.126 25.3181L182.844 18.9459C182.976 18.7753 183.133 18.6047 183.317 18.4603C183.625 18.2241 183.921 18.2766 184.472 18.2569C184.695 18.2437 184.905 18.2503 185.102 18.2766C185.273 18.3028 185.404 18.3553 185.522 18.4472C185.555 18.4669 185.633 18.5259 185.633 18.7491V25.1213C185.633 25.2722 185.607 25.3378 185.574 25.3772C185.548 25.4231 185.515 25.4559 185.469 25.4822C185.397 25.515 185.325 25.5413 185.273 25.5478L184.951 25.5741C184.82 25.5872 184.702 25.6069 184.59 25.6528C184.406 25.7316 184.301 25.8891 184.301 26.0859C184.301 26.1647 184.321 26.2369 184.36 26.3222C184.433 26.4666 184.57 26.5519 184.728 26.5519H188.416C188.495 26.5519 188.639 26.5256 188.757 26.3681C188.823 26.2763 188.862 26.1778 188.862 26.0859C188.862 25.8759 188.731 25.6266 188.35 25.6069C188.232 25.6003 188.094 25.5806 187.963 25.5609C187.838 25.5347 187.733 25.4888 187.648 25.4363C187.615 25.41 187.576 25.3116 187.576 25.1278V18.7556C187.576 18.5719 187.615 18.4931 187.635 18.48L187.642 18.4734ZM147.571 18.4603C147.663 18.3881 147.761 18.3488 147.873 18.3291C148.024 18.3028 148.162 18.2897 148.293 18.2831C148.673 18.2569 148.805 18.0009 148.805 17.7909C148.805 17.7253 148.792 17.6531 148.759 17.5678C148.693 17.4038 148.549 17.2987 148.378 17.2987H144.697C144.526 17.2987 144.382 17.4038 144.316 17.5678C144.283 17.6531 144.27 17.7253 144.27 17.7909C144.27 17.9878 144.395 18.2372 144.769 18.2831C144.893 18.2897 145.025 18.3094 145.189 18.3422C145.294 18.3619 145.386 18.4012 145.491 18.48C145.517 18.4997 145.556 18.585 145.556 18.7491V25.1213C145.556 25.305 145.517 25.3969 145.484 25.4231C145.392 25.4888 145.294 25.5347 145.189 25.5544C145.038 25.5806 144.9 25.5938 144.769 25.6003C144.401 25.6266 144.27 25.8759 144.27 26.0794C144.27 26.1581 144.29 26.2303 144.329 26.3156C144.401 26.46 144.539 26.5453 144.697 26.5453H148.378C148.536 26.5453 148.673 26.46 148.752 26.3091C148.792 26.2303 148.811 26.1516 148.811 26.0728C148.811 25.8628 148.68 25.6134 148.299 25.5938C148.168 25.5872 148.03 25.5675 147.879 25.5478C147.768 25.5281 147.663 25.4888 147.577 25.4297C147.545 25.4034 147.505 25.305 147.505 25.1147V18.7425C147.505 18.5522 147.545 18.48 147.577 18.4537L147.571 18.4603ZM171.878 7.94062C171.97 7.86844 172.075 7.82906 172.2 7.80938C172.344 7.77656 172.476 7.75687 172.607 7.75031C172.968 7.70437 173.099 7.46812 173.099 7.25812C173.099 7.18594 173.086 7.11375 173.047 7.035C172.981 6.87094 172.837 6.76594 172.666 6.76594H170.861C170.671 6.76594 170.487 6.81187 170.317 6.90375C170.139 6.99563 169.995 7.12688 169.897 7.30406L165.907 14.4703C165.802 14.6606 165.723 14.7459 165.69 14.7722C165.618 14.8247 165.546 14.8641 165.48 14.8837C165.382 14.91 165.27 14.9297 165.152 14.9428C165.001 14.9625 164.83 15.0084 164.647 15.0741C164.45 15.1462 164.332 15.3234 164.332 15.5466C164.332 15.6122 164.345 15.6844 164.391 15.7959C164.463 15.9403 164.601 16.0322 164.765 16.0322H167.56C167.639 16.0322 167.783 16.0059 167.915 15.8222C167.974 15.7238 168 15.6384 168 15.5466C168 15.3694 167.895 15.1462 167.606 15.0741C167.508 15.0478 167.396 15.0216 167.272 14.9953C167.193 14.9756 167.114 14.9494 167.075 14.9297C167.075 14.9231 167.094 14.8247 167.265 14.4703C167.409 14.1684 167.587 13.8075 167.81 13.3941C168.033 12.9741 168.276 12.5212 168.538 12.0422C168.814 11.5566 169.07 11.0972 169.319 10.6641C169.49 10.3622 169.654 10.0866 169.798 9.83062V14.5753C169.798 14.7656 169.759 14.8641 169.732 14.8837C169.634 14.9494 169.529 14.9887 169.404 15.0084C169.253 15.0347 169.116 15.0478 168.984 15.0544C168.604 15.0806 168.473 15.3366 168.473 15.5466C168.473 15.6122 168.486 15.6844 168.532 15.7959C168.604 15.9403 168.742 16.0322 168.906 16.0322H172.673C172.83 16.0322 172.968 15.9469 173.053 15.7762C173.086 15.6909 173.106 15.6187 173.106 15.5466C173.106 15.3366 172.974 15.0741 172.613 15.0544C172.489 15.0347 172.344 15.015 172.187 14.9888C172.075 14.9691 171.97 14.9297 171.892 14.8772C171.859 14.8509 171.819 14.7525 171.819 14.5687V8.21625C171.819 8.0325 171.859 7.95375 171.878 7.94062ZM127.424 6.01781C127.345 6.00469 127.28 6.00469 127.227 6.00469C127.024 6.00469 126.86 6.12937 126.788 6.34594C126.768 6.41156 126.735 6.48375 126.696 6.5625C126.669 6.615 126.623 6.6675 126.558 6.71344C126.545 6.72656 126.479 6.76594 126.295 6.76594H114.89C114.745 6.76594 114.64 6.73312 114.568 6.6675C114.489 6.59531 114.43 6.49031 114.404 6.3525L114.371 6.18188L114.037 6.0375L113.905 6.01125C113.84 6.01125 113.774 6.02437 113.669 6.06375C113.479 6.1425 113.38 6.32625 113.42 6.52312L114.227 10.5328C114.253 10.6772 114.338 10.7888 114.463 10.8544L114.542 10.8806C114.89 10.9462 115.218 10.7691 115.218 10.4278C115.218 10.1653 115.211 9.86344 115.192 9.52219C115.185 9.19406 115.205 8.88562 115.264 8.59687C115.323 8.33437 115.421 8.11781 115.572 7.94062C115.69 7.79625 115.881 7.73063 116.163 7.73063H118.65C118.781 7.73063 118.912 7.73719 119.07 7.75687C119.182 7.75687 119.273 7.78313 119.378 7.83563C119.444 7.86188 119.497 7.90125 119.536 7.96031C119.575 8.01281 119.595 8.10469 119.595 8.22281V14.5819C119.595 14.7656 119.556 14.8575 119.523 14.8837C119.438 14.9494 119.339 14.9887 119.228 15.0019C119.07 15.0281 118.926 15.0478 118.808 15.0609C118.466 15.0872 118.309 15.3234 118.309 15.5531C118.309 15.6384 118.335 15.7303 118.414 15.855C118.532 16.0125 118.676 16.0387 118.755 16.0387H122.482C122.555 16.0387 122.699 16.0125 122.843 15.8287C122.903 15.7303 122.929 15.645 122.929 15.5597C122.929 15.3562 122.811 15.1856 122.614 15.1134C122.515 15.0741 122.404 15.0544 122.266 15.0413L121.931 15.015C121.852 15.015 121.787 14.9888 121.721 14.9625C121.669 14.9362 121.629 14.8969 121.59 14.8444C121.577 14.8247 121.544 14.7525 121.544 14.5884V8.21625C121.544 8.09156 121.564 7.99312 121.59 7.95375C121.643 7.88813 121.702 7.84219 121.761 7.81594C121.859 7.77656 121.964 7.75687 122.095 7.75031C122.246 7.73719 122.391 7.72406 122.535 7.72406H125.048C125.278 7.72406 125.442 7.77656 125.56 7.89469C125.698 8.01938 125.797 8.17687 125.869 8.38687C125.948 8.60344 125.993 8.84625 126.007 9.09562C126.02 9.37125 126.033 9.62063 126.033 9.84375C126.033 10.0341 126.02 10.2047 125.987 10.3556L125.974 10.4344L126.052 10.71L126.44 10.9856L126.577 10.9594C126.722 10.9331 126.833 10.8478 126.866 10.7691C126.919 10.6969 126.958 10.6116 126.978 10.5197L127.778 6.53625C127.818 6.41156 127.798 6.29344 127.739 6.195C127.673 6.09656 127.575 6.03094 127.444 6.01781H127.424ZM122.725 25.6397C122.614 25.6003 122.483 25.5806 122.364 25.5872C122.246 25.5806 122.108 25.5741 121.99 25.5741C121.885 25.5675 121.793 25.5478 121.734 25.5281C121.675 25.5019 121.623 25.4559 121.583 25.41C121.564 25.3772 121.524 25.2984 121.524 25.1213V18.7491C121.524 18.5784 121.557 18.4931 121.603 18.4669C121.708 18.3947 121.813 18.3488 121.938 18.3291C122.102 18.3028 122.246 18.2897 122.384 18.2831C122.771 18.2634 122.909 18.0009 122.909 17.7909C122.909 17.7056 122.883 17.6138 122.824 17.5153C122.706 17.325 122.548 17.2922 122.469 17.2922H118.742C118.565 17.2922 118.414 17.3972 118.355 17.5416C118.315 17.6203 118.296 17.7056 118.296 17.7909C118.296 17.9878 118.42 18.2372 118.794 18.2831C118.919 18.2897 119.05 18.3094 119.214 18.3422C119.319 18.3619 119.411 18.4012 119.516 18.48C119.542 18.4997 119.582 18.585 119.582 18.7491V25.1213C119.582 25.305 119.543 25.3969 119.51 25.4231C119.418 25.4888 119.319 25.5347 119.214 25.5544C119.063 25.5806 118.926 25.5938 118.794 25.6003C118.427 25.6266 118.296 25.8759 118.296 26.0794C118.296 26.1778 118.328 26.2697 118.401 26.3681C118.519 26.5256 118.663 26.5519 118.742 26.5519H122.64C122.798 26.5519 122.935 26.4666 123.007 26.3222C123.047 26.2434 123.073 26.1581 123.073 26.0794C123.073 25.8563 122.929 25.6791 122.732 25.6397H122.725ZM142.196 15.0938C142.085 15.0478 141.96 15.0281 141.835 15.0413C141.743 15.0413 141.638 15.0412 141.514 15.0544C141.448 15.0544 141.382 15.0544 141.343 15.0413C141.284 15.015 141.232 14.9756 141.199 14.9428C141.179 14.9166 141.127 14.8312 141.094 14.6147C141.015 14.1159 140.903 13.5712 140.766 12.9872C140.628 12.3966 140.444 11.7928 140.234 11.1956C140.024 10.5919 139.762 10.0012 139.46 9.44344C139.158 8.8725 138.797 8.36063 138.39 7.91438C137.983 7.46156 137.504 7.0875 136.979 6.81844C135.89 6.25406 134.407 6.26062 133.33 6.81844C132.805 7.09406 132.326 7.46156 131.906 7.91438C131.506 8.35406 131.145 8.86594 130.83 9.44344C130.535 10.0012 130.272 10.5853 130.056 11.1956C129.846 11.7928 129.668 12.3966 129.531 12.9872C129.393 13.5778 129.281 14.1225 129.209 14.6081C129.176 14.7984 129.13 14.8837 129.091 14.9231C129.052 14.9756 129.006 15.015 128.979 15.0281C128.914 15.0478 128.842 15.0609 128.789 15.0609C128.671 15.0544 128.559 15.0478 128.487 15.0478C128.356 15.0347 128.251 15.0478 128.146 15.0741C127.988 15.12 127.818 15.2644 127.818 15.54C127.818 15.6122 127.831 15.6844 127.877 15.7894C127.949 15.9337 128.087 16.0256 128.251 16.0256H132.234C132.405 16.0256 132.549 15.9206 132.615 15.7566C132.635 15.7041 132.648 15.6647 132.661 15.6319L132.687 15.5531L132.674 15.4744C132.641 15.2644 132.471 15.0478 132.129 15.0478C131.998 15.0412 131.854 15.0281 131.709 15.015C131.598 14.9953 131.499 14.9559 131.414 14.8903C131.414 14.8903 131.342 14.8247 131.342 14.5294C131.342 14.1225 131.368 13.6566 131.421 13.1381C131.473 12.6262 131.552 12.0881 131.67 11.55C131.795 11.0119 131.959 10.4803 132.156 9.96844C132.346 9.46969 132.595 9.01688 132.884 8.62312C133.166 8.2425 133.501 7.93406 133.882 7.71094C134.603 7.27125 135.686 7.25812 136.408 7.71094C136.789 7.94062 137.123 8.25562 137.406 8.64281C137.694 9.02344 137.937 9.47625 138.134 9.98812C138.331 10.5 138.488 11.0316 138.607 11.5697C138.731 12.1078 138.817 12.6394 138.869 13.1578C138.928 13.6762 138.954 14.1422 138.954 14.5294C138.954 14.7656 138.869 14.8706 138.803 14.9231C138.705 15.015 138.567 15.0544 138.383 15.0544C138.364 15.0544 138.338 15.0544 138.305 15.0478C138.213 15.0347 138.128 15.0347 138.114 15.0478C138.003 15.0478 137.891 15.0872 137.799 15.1528C137.734 15.2053 137.616 15.3234 137.616 15.5466C137.616 15.6122 137.629 15.6844 137.662 15.7697L137.701 15.8419C137.786 15.96 137.918 16.0256 138.055 16.0256H142.039C142.196 16.0256 142.334 15.9403 142.419 15.7697C142.452 15.6844 142.465 15.6122 142.465 15.5466C142.465 15.2709 142.295 15.1266 142.177 15.0938H142.196ZM112.645 6.62813V10.2178C112.645 10.4016 112.54 10.5591 112.376 10.6247C112.133 10.6837 112.081 10.6772 111.904 10.6181C111.799 10.5787 111.733 10.5394 111.687 10.4869C111.556 10.3228 111.457 10.1653 111.359 9.98812C111.28 9.8175 111.208 9.67969 111.123 9.56156C110.932 9.27281 110.723 8.99719 110.486 8.73469C110.257 8.47219 109.994 8.23594 109.718 8.03906C109.449 7.82906 109.154 7.67156 108.846 7.55344C108.55 7.44187 108.229 7.38281 107.888 7.38281C107.395 7.38281 106.982 7.49437 106.608 7.7175C106.227 7.94719 105.893 8.24906 105.61 8.62969C105.322 9.02344 105.079 9.47625 104.882 9.975C104.685 10.4869 104.521 11.0184 104.396 11.5566C104.278 12.1012 104.193 12.6328 104.147 13.1447C104.094 13.6631 104.075 14.1291 104.075 14.5359C104.075 14.7066 104.107 14.7984 104.134 14.8444C104.167 14.8969 104.213 14.9428 104.272 14.9756C104.331 15.0019 104.429 15.0281 104.541 15.0413C104.665 15.0544 104.803 15.0609 104.948 15.0544H105.033L105.322 15.1922L105.413 15.5728L105.151 16.0322H100.977C100.82 16.0322 100.682 15.9469 100.603 15.7959C100.557 15.6909 100.544 15.6187 100.544 15.5466C100.544 15.2709 100.715 15.12 100.872 15.0806C101.043 15.0347 101.253 15.0347 101.515 15.0544C101.568 15.0544 101.64 15.0412 101.706 15.0216C101.738 15.0084 101.784 14.9691 101.824 14.9231C101.85 14.8903 101.902 14.805 101.935 14.6147C102.014 14.1225 102.119 13.5778 102.257 12.9938C102.395 12.4031 102.572 11.7994 102.782 11.2022C102.998 10.5984 103.261 10.0078 103.556 9.45C103.858 8.8725 104.219 8.35406 104.632 7.92094C105.046 7.46812 105.525 7.10062 106.057 6.83156C106.595 6.54937 107.212 6.41156 107.888 6.41156C108.327 6.41156 108.734 6.48375 109.088 6.62813C109.417 6.75938 109.725 6.91031 109.994 7.07438L110.723 7.49437C110.893 7.59281 111.057 7.64531 111.228 7.64531C111.28 7.64531 111.405 7.64531 111.431 7.59281C111.49 7.48125 111.536 7.35 111.556 7.21219C111.589 7.02188 111.615 6.85781 111.635 6.72C111.694 6.18844 112.094 6.12937 112.389 6.2475C112.527 6.27375 112.658 6.43781 112.658 6.64125L112.645 6.62813ZM142.052 17.2922H138.068C137.904 17.2922 137.76 17.3775 137.681 17.5284C137.642 17.6072 137.622 17.6991 137.622 17.7909C137.622 18.0075 137.76 18.1847 137.97 18.2372C138.055 18.2569 138.154 18.2766 138.265 18.2831C138.364 18.2897 138.462 18.3028 138.587 18.3225C138.659 18.3225 138.725 18.3422 138.784 18.3816C138.83 18.4078 138.869 18.4472 138.908 18.5062C138.928 18.5391 138.961 18.6244 138.961 18.795C138.961 19.215 138.935 19.6875 138.882 20.2191C138.843 20.7375 138.764 21.2691 138.646 21.8006C138.528 22.3322 138.37 22.8572 138.173 23.3691C137.99 23.8678 137.747 24.3141 137.465 24.6947C137.183 25.0688 136.848 25.3772 136.461 25.6069C135.726 26.04 134.577 26.04 133.829 25.6069C133.442 25.3838 133.107 25.0819 132.825 24.7078C132.536 24.3141 132.287 23.8612 132.097 23.3756C131.906 22.8637 131.749 22.3322 131.637 21.8072C131.519 21.2625 131.434 20.7244 131.388 20.2059C131.348 19.6875 131.322 19.2084 131.322 18.7819C131.322 18.4997 131.421 18.4341 131.46 18.4012C131.585 18.3094 131.736 18.2634 131.939 18.2634C131.998 18.2634 132.07 18.2634 132.182 18.2766C132.464 18.2766 132.661 18.0731 132.661 17.7844C132.661 17.6728 132.615 17.5744 132.576 17.5153C132.458 17.3184 132.3 17.2922 132.215 17.2922H128.231C128.061 17.2922 127.916 17.3972 127.851 17.5612C127.818 17.6466 127.798 17.7188 127.798 17.7844C127.798 17.9944 127.903 18.165 128.126 18.2503C128.212 18.2766 128.303 18.2897 128.395 18.2897H128.802C128.901 18.2897 128.953 18.3094 129.012 18.3356C129.019 18.3356 129.038 18.3487 129.078 18.4078C129.098 18.4406 129.143 18.5325 129.189 18.7228C129.294 19.215 129.413 19.7531 129.55 20.3438C129.688 20.9344 129.865 21.5381 130.075 22.1353C130.285 22.7259 130.528 23.31 130.81 23.8678C131.106 24.4387 131.453 24.9506 131.86 25.4034C132.267 25.8497 132.746 26.2106 133.271 26.4862C133.823 26.7619 134.446 26.9062 135.135 26.9062C135.824 26.9062 136.434 26.7619 136.973 26.4862C137.511 26.2106 137.99 25.8497 138.397 25.4034C138.81 24.9572 139.164 24.4387 139.46 23.8678C139.748 23.3034 139.998 22.7194 140.195 22.1222C140.405 21.5316 140.575 20.9278 140.72 20.3306C140.858 19.7466 140.976 19.2084 141.068 18.7097C141.107 18.4734 141.173 18.3816 141.205 18.3487C141.225 18.3291 141.291 18.2766 141.514 18.2766C141.547 18.2766 141.586 18.2766 141.638 18.2897C141.737 18.3028 141.829 18.3028 141.927 18.2897C142.026 18.2766 142.104 18.2569 142.203 18.2175C142.367 18.1388 142.459 17.9747 142.459 17.7844C142.459 17.7188 142.446 17.6466 142.406 17.5612C142.341 17.3972 142.19 17.2922 142.026 17.2922H142.052ZM112.363 22.785C112.252 22.6997 112.12 22.6734 111.93 22.7194L111.7 22.8113L111.641 22.9097C111.425 23.2772 111.182 23.6578 110.926 24.0319C110.677 24.3862 110.388 24.7144 110.073 25.0031C109.771 25.2787 109.43 25.5084 109.062 25.6922C108.314 26.0466 107.257 26.0203 106.562 25.6134C106.175 25.3903 105.84 25.0884 105.558 24.7144C105.269 24.3206 105.026 23.8678 104.829 23.3822C104.639 22.8637 104.482 22.3387 104.37 21.8138C104.252 21.2756 104.167 20.7309 104.121 20.2191C104.081 19.6875 104.055 19.2084 104.055 18.795C104.055 18.6178 104.088 18.5391 104.114 18.4931C104.16 18.4144 104.206 18.3881 104.245 18.3684C104.324 18.3291 104.416 18.3028 104.534 18.2962C104.678 18.2831 104.816 18.27 104.961 18.27H105.039L105.282 18.1453L105.335 18.0469C105.374 17.9681 105.394 17.8894 105.394 17.8106C105.394 17.745 105.381 17.6794 105.361 17.64C105.328 17.43 105.164 17.2922 104.961 17.2922H100.977C100.807 17.2922 100.662 17.3972 100.597 17.5612C100.564 17.6466 100.551 17.7188 100.551 17.7844C100.551 17.9944 100.656 18.165 100.879 18.2503C100.964 18.2766 101.056 18.2897 101.148 18.2897H101.555C101.647 18.2897 101.699 18.3028 101.765 18.3356C101.771 18.3356 101.798 18.3487 101.83 18.4078C101.85 18.4406 101.896 18.5325 101.942 18.7228C102.053 19.2347 102.158 19.74 102.263 20.2322C102.368 20.7244 102.493 21.2166 102.631 21.7022C102.782 22.1747 102.959 22.6472 103.169 23.1131C103.379 23.5856 103.648 24.0516 103.97 24.5109C104.193 24.8325 104.436 25.1344 104.711 25.4231C104.993 25.7119 105.295 25.9678 105.61 26.1844C105.938 26.4009 106.299 26.5781 106.673 26.7094C107.061 26.8406 107.467 26.9062 107.894 26.9062C108.465 26.9062 108.99 26.7947 109.449 26.5716C109.915 26.3616 110.342 26.0794 110.716 25.7316C111.097 25.3903 111.438 24.9966 111.727 24.57C112.015 24.15 112.278 23.73 112.514 23.3166L112.553 23.205C112.58 23.0212 112.501 22.8506 112.376 22.7719L112.363 22.785Z" fill="white"/>
<g id="Glyph">
<path id="Union" fill-rule="evenodd" clip-rule="evenodd" d="M16.4058 11.0878L20.8081 6.68555L16.4058 2.28327L12.0036 6.68555L16.4058 11.0878ZM10.6585 6.01303C10.2871 6.38445 10.2871 6.98665 10.6585 7.35807L15.7333 12.4329C16.1048 12.8043 16.7069 12.8043 17.0784 12.4329L22.1532 7.35807C22.5246 6.98665 22.5246 6.38445 22.1532 6.01303L17.0784 0.938235C16.7069 0.566813 16.1048 0.566812 15.7333 0.938234L10.6585 6.01303ZM16.4058 31.0607L20.8081 26.6584L16.4058 22.2561L12.0036 26.6584L16.4058 31.0607ZM10.6585 25.9859C10.2871 26.3573 10.2871 26.9595 10.6585 27.3309L15.7333 32.4057C16.1048 32.7771 16.7069 32.7771 17.0784 32.4057L22.1532 27.3309C22.5246 26.9595 22.5246 26.3573 22.1532 25.9859L17.0784 20.9111C16.7069 20.5396 16.1048 20.5396 15.7333 20.9111L10.6585 25.9859ZM26.3923 21.0742L21.99 16.672L26.3923 12.2697L30.7945 16.672L26.3923 21.0742ZM25.7197 10.9246C26.0912 10.5532 26.6934 10.5532 27.0648 10.9246L32.1396 15.9994C32.511 16.3709 32.511 16.9731 32.1396 17.3445L27.0648 22.4193C26.6934 22.7907 26.0912 22.7907 25.7197 22.4193L20.6449 17.3445C20.2735 16.9731 20.2735 16.3709 20.6449 15.9994L25.7197 10.9246ZM2.01716 16.672L6.41944 21.0742L10.8217 16.672L6.41944 12.2697L2.01716 16.672ZM7.09196 10.9246C6.72054 10.5532 6.11834 10.5532 5.74692 10.9246L0.672122 15.9994C0.3007 16.3709 0.300699 16.9731 0.672121 17.3445L5.74692 22.4193C6.11834 22.7907 6.72054 22.7907 7.09196 22.4193L12.1668 17.3445C12.5382 16.9731 12.5382 16.3709 12.1668 15.9994L7.09196 10.9246ZM15.9015 15.1588C16.18 15.4373 16.6317 15.4373 16.9102 15.1588L25.1457 6.92332C25.4243 6.64475 25.8759 6.64475 26.1545 6.92332C26.4331 7.20188 26.4331 7.65353 26.1545 7.9321L17.919 16.1676C17.6405 16.4461 17.6405 16.8978 17.919 17.1763L26.1545 25.4118C26.4331 25.6904 26.4331 26.142 26.1545 26.4206C25.8759 26.6992 25.4243 26.6992 25.1457 26.4206L16.9102 18.1851C16.6317 17.9066 16.18 17.9066 15.9015 18.1851L7.66598 26.4206C7.38742 26.6992 6.93577 26.6992 6.6572 26.4206C6.37864 26.142 6.37864 25.6904 6.6572 25.4118L14.8927 17.1763C15.1712 16.8978 15.1712 16.4461 14.8927 16.1676L6.65722 7.9321C6.37865 7.65353 6.37865 7.20188 6.65722 6.92332C6.93578 6.64475 7.38743 6.64475 7.666 6.92332L15.9015 15.1588ZM17.5947 26.6584C17.5947 27.315 17.0624 27.8472 16.4058 27.8472C15.7493 27.8472 15.217 27.315 15.217 26.6584C15.217 26.0018 15.7493 25.4695 16.4058 25.4695C17.0624 25.4695 17.5947 26.0018 17.5947 26.6584ZM26.3923 17.8608C27.0489 17.8608 27.5811 17.3286 27.5811 16.672C27.5811 16.0154 27.0489 15.4831 26.3923 15.4831C25.7357 15.4831 25.2034 16.0154 25.2034 16.672C25.2034 17.3286 25.7357 17.8608 26.3923 17.8608ZM17.5947 6.68555C17.5947 7.34214 17.0624 7.87441 16.4058 7.87441C15.7493 7.87441 15.217 7.34214 15.217 6.68555C15.217 6.02896 15.7493 5.49669 16.4058 5.49669C17.0624 5.49669 17.5947 6.02896 17.5947 6.68555ZM6.41944 17.8608C7.07603 17.8608 7.6083 17.3286 7.6083 16.672C7.6083 16.0154 7.07603 15.4831 6.41944 15.4831C5.76285 15.4831 5.23058 16.0154 5.23058 16.672C5.23058 17.3286 5.76285 17.8608 6.41944 17.8608Z" fill="white"/>
</g>
</g>
</g>
</svg>
